<svg width="32" height="33" viewBox="0 0 32 33" fill="none" xmlns="http://www.w3.org/2000/svg">
<path d="M16 0.523438C24.5819 0.523438 31.4766 7.47973 31.4766 16.0674C31.4765 24.5863 24.5833 31.5439 16 31.5439C7.41669 31.5439 0.523513 24.5863 0.523438 16.0674C0.523438 7.47973 7.41807 0.523438 16 0.523438Z" stroke="#fff" stroke-width="1.04715"/>
<path d="M17.7479 26.2856V17.3444H20.7731L21.3109 13.647H17.7479V11.2268C17.7479 10.2184 18.2857 9.20998 19.8319 9.20998H21.4454V6.11754C21.4454 6.11754 20.0336 5.84863 18.6219 5.84863C15.6639 5.84863 13.7815 7.59653 13.7815 10.8234V13.647H10.5546V17.3444H13.7815V26.2856H17.7479Z" fill="#fff"/>
</svg>
