<svg width="360" height="280" viewBox="0 0 360 280" fill="none" xmlns="http://www.w3.org/2000/svg">
<rect width="360" height="280" fill="#F0F5FE"/>
<path d="M271.718 128.366L320.203 129.943L271.718 131.524V128.366Z" fill="#0274B9"/>
<path d="M299.639 168.836L348.125 170.414L299.639 171.994V168.836Z" fill="#0274B9"/>
<path d="M286.896 147.49L341.09 149.071L286.896 150.648V147.49Z" fill="#0274B9"/>
<mask id="mask0_37_7559" style="mask-type:luminance" maskUnits="userSpaceOnUse" x="39" y="97" width="201" height="143">
<path d="M234.632 116.334C223.684 109.577 211.547 104.302 198.841 101.04C186.143 97.7641 172.897 96.5239 159.913 97.3495C146.925 98.1676 134.137 101.052 122.303 105.742C110.456 110.418 99.5765 116.87 90.1061 124.43C87.7256 126.303 85.4622 128.291 83.2574 130.29C81.0629 132.304 78.9649 134.385 76.9427 136.488C76.4466 137.021 75.9471 137.558 75.4544 138.087L74.7172 138.883L73.9972 139.697C73.5183 140.238 73.0429 140.778 72.5675 141.315C72.1059 141.863 71.6442 142.411 71.1826 142.959L70.497 143.777L69.8287 144.61C69.3843 145.165 68.9433 145.717 68.5024 146.265C68.0752 146.824 67.6445 147.383 67.2208 147.942C67.0072 148.219 66.7971 148.497 66.5869 148.778C66.3802 149.06 66.177 149.345 65.9703 149.626C65.5603 150.189 65.1538 150.752 64.7473 151.311C64.3545 151.881 63.9618 152.447 63.5691 153.01C63.3727 153.291 63.1798 153.573 62.9834 153.854C62.7939 154.139 62.6079 154.424 62.4184 154.709C62.0429 155.279 61.6709 155.846 61.2988 156.412C59.8485 158.7 58.4532 160.969 57.1786 163.265C54.6051 167.833 52.3728 172.39 50.478 176.866C46.6712 185.818 44.1426 194.395 42.4993 202.084C41.6794 205.931 41.0593 209.555 40.6218 212.92C40.5046 213.761 40.422 214.586 40.3221 215.393C40.2738 215.797 40.229 216.197 40.1808 216.589C40.1429 216.985 40.1085 217.378 40.0706 217.763C39.9982 218.536 39.9293 219.288 39.8639 220.025C39.8122 220.761 39.7605 221.48 39.7123 222.179C39.3437 227.777 39.385 232.171 39.4746 235.155C39.4987 236.647 39.5814 237.791 39.6089 238.557C39.6468 239.327 39.6641 239.723 39.6641 239.723C39.6641 239.723 39.6916 239.327 39.7467 238.561C39.8087 237.795 39.8639 236.654 40.0189 235.177C40.2876 232.219 40.7699 227.888 41.7931 222.483C41.924 221.809 42.0583 221.117 42.1927 220.406C42.3443 219.699 42.4993 218.977 42.6612 218.237C42.7405 217.866 42.8231 217.492 42.9058 217.115C42.9954 216.737 43.0884 216.36 43.1814 215.975C43.3709 215.208 43.5466 214.42 43.7602 213.624C44.5767 210.436 45.5964 207.034 46.8228 203.469C49.2791 196.346 52.6621 188.579 57.2165 180.746C59.4833 176.825 62.0602 172.905 64.9299 169.044C66.3527 167.104 67.8822 165.208 69.4532 163.309C69.8528 162.843 70.2559 162.376 70.6589 161.906L71.2653 161.203L71.8888 160.51C72.3057 160.048 72.7225 159.585 73.1428 159.122C73.5734 158.667 74.0006 158.211 74.4347 157.756L75.0823 157.071L75.7472 156.397C76.1917 155.949 76.6361 155.501 77.0839 155.05C77.5387 154.609 77.9968 154.169 78.455 153.728L79.144 153.065L79.8503 152.418C80.3222 151.988 80.7942 151.555 81.2662 151.122C81.7485 150.7 82.2342 150.278 82.72 149.856L83.4503 149.223L84.1944 148.604C84.6905 148.194 85.1901 147.783 85.6896 147.368C87.7153 145.75 89.7892 144.169 91.9389 142.67C94.0955 141.182 96.2865 139.72 98.5636 138.379C107.628 132.945 117.625 128.758 128.046 126.237C138.464 123.701 149.281 122.842 159.909 123.664C170.541 124.486 180.903 126.992 190.456 130.938C198.104 134.085 205.222 138.15 211.65 142.84L239.631 119.584C237.991 118.466 236.33 117.374 234.625 116.337L234.632 116.334Z" fill="white"/>
</mask>
<g mask="url(#mask0_37_7559)">
<path d="M39.3438 137.306L144.283 96.5244H239.637V162.599L41.1799 239.727H39.3438V137.306Z" fill="#243268"/>
</g>
<mask id="mask1_37_7559" style="mask-type:luminance" maskUnits="userSpaceOnUse" x="229" y="126" width="76" height="115">
<path d="M255.953 234.341C255.953 234.429 255.946 234.5 255.943 234.581C255.936 234.737 255.926 234.885 255.919 235.033C255.905 235.325 255.891 235.603 255.878 235.862C255.747 238.598 255.678 240.06 255.678 240.06L304.645 239.394C304.645 239.394 304.518 237.683 304.28 234.474C304.242 233.993 304.201 233.482 304.156 232.945C304.135 232.678 304.111 232.401 304.087 232.119C304.073 231.979 304.063 231.838 304.049 231.697C304.036 231.564 304.022 231.431 304.005 231.294C303.884 230.205 303.753 229.017 303.612 227.732C303.44 226.451 303.267 225.078 303.054 223.616C302.94 222.886 302.819 222.131 302.699 221.357C302.637 220.969 302.575 220.576 302.513 220.18C302.44 219.784 302.368 219.381 302.296 218.973C302.148 218.159 301.996 217.322 301.838 216.467C301.672 215.612 301.486 214.738 301.304 213.842C301.211 213.394 301.118 212.943 301.021 212.487C300.918 212.032 300.811 211.573 300.704 211.106C300.484 210.177 300.28 209.226 300.032 208.263C299.085 204.406 297.9 200.282 296.463 195.958C293.587 187.313 289.594 177.869 284.189 168.322C281.495 163.546 278.429 158.759 275.008 154.043C273.309 151.677 271.487 149.352 269.606 147.035C269.127 146.465 268.645 145.891 268.162 145.313C267.921 145.028 267.68 144.74 267.436 144.451C267.188 144.169 266.94 143.884 266.691 143.603C266.192 143.037 265.692 142.47 265.193 141.9C264.68 141.345 264.166 140.786 263.65 140.223C263.391 139.945 263.133 139.664 262.871 139.383C262.606 139.109 262.34 138.831 262.075 138.557C261.541 138.009 261.007 137.458 260.473 136.906C259.925 136.366 259.378 135.825 258.83 135.281C258.554 135.011 258.279 134.74 258.003 134.47C257.721 134.204 257.442 133.941 257.159 133.674C256.594 133.145 256.026 132.615 255.457 132.082C254.878 131.564 254.296 131.042 253.714 130.524C253.421 130.265 253.132 130.005 252.839 129.743C252.543 129.487 252.243 129.235 251.943 128.98C251.344 128.473 250.744 127.966 250.145 127.458C249.573 126.992 248.998 126.525 248.416 126.066L229.113 158.907L229.217 159.03C229.595 159.474 229.978 159.914 230.353 160.355C230.722 160.807 231.087 161.254 231.456 161.702L232.004 162.373L232.534 163.054C232.885 163.505 233.237 163.957 233.588 164.409C233.929 164.868 234.267 165.323 234.605 165.778L235.108 166.46L235.597 167.152C235.921 167.611 236.244 168.07 236.565 168.525C236.875 168.988 237.185 169.451 237.495 169.914L237.96 170.602L238.404 171.302C238.701 171.765 238.997 172.227 239.29 172.686C240.43 174.552 241.532 176.396 242.532 178.262C244.554 181.975 246.297 185.666 247.765 189.286C250.717 196.528 252.639 203.425 253.862 209.596C254.472 212.683 254.923 215.586 255.233 218.281C255.319 218.951 255.371 219.617 255.443 220.262C255.478 220.584 255.509 220.902 255.543 221.217C255.567 221.535 255.592 221.846 255.616 222.157C255.664 222.775 255.709 223.379 255.757 223.967C255.788 224.556 255.819 225.134 255.85 225.693C255.864 225.97 255.881 226.248 255.895 226.518C255.902 226.792 255.912 227.059 255.919 227.325C255.936 227.855 255.953 228.369 255.967 228.865C255.977 229.861 255.984 230.794 255.995 231.664C255.981 232.53 255.967 233.334 255.957 234.07C255.957 234.163 255.957 234.252 255.953 234.341Z" fill="white"/>
</mask>
<g mask="url(#mask1_37_7559)">
<path d="M229.12 132.978L246.91 126.066H294.996L304.649 154.754V239.979L304.446 240.06H229.12V132.978Z" fill="#E33BA3"/>
<path d="M304.649 154.754L294.996 126.066H304.649V154.754Z" fill="#E33BA3"/>
</g>
<path d="M217.321 147.28L140.693 210.974C137.272 212.369 134.099 214.627 131.471 217.734C130.816 218.507 130.217 219.311 129.669 220.136L129.114 221.006C122.786 231.42 124.243 245.521 133.083 254.158C141.923 262.795 155.124 263.013 164.171 255.258L164.925 254.584C165.642 253.917 166.327 253.199 166.982 252.426C169.611 249.319 171.402 245.71 172.37 241.919L238.18 129.943L217.324 147.28H217.321ZM149.977 245.336C144.097 245.336 139.329 240.212 139.329 233.893C139.329 227.574 144.097 222.45 149.977 222.45C155.858 222.45 160.626 227.574 160.626 233.893C160.626 240.212 155.858 245.336 149.977 245.336Z" fill="#0274B9"/>
<path d="M49.0508 54.8298L63.7165 32.2673H67.8744L73.4828 54.8298H69.3249L64.619 34.4268H66.2951L53.5311 54.8298H49.0508ZM54.7882 49.6082L56.5609 46.3205H68.7125L69.2604 49.6082H54.7882ZM75.9977 54.8298L80.7681 30.9135H84.7971L80.0267 54.8298H75.9977ZM91.7613 55.0555C90.6439 55.0555 89.6769 54.8191 88.8604 54.3464C88.0653 53.8521 87.4851 53.1645 87.1199 52.2835C86.776 51.381 86.7223 50.3173 86.9587 49.0925L90.0208 33.8144H94.0498L90.9877 49.0603C90.8588 49.8553 90.9447 50.5 91.2456 50.9942C91.5464 51.4884 92.1158 51.7355 92.9539 51.7355C93.3407 51.7355 93.7275 51.6818 94.1142 51.5744C94.5225 51.4454 94.8878 51.2735 95.2101 51.0587L95.9192 54.024C95.3176 54.4108 94.6514 54.6794 93.9209 54.8298C93.1903 54.9803 92.4704 55.0555 91.7613 55.0555ZM85.8306 40.841L86.443 37.6178H97.9176L97.273 40.841H85.8306ZM106.239 55.0555C104.843 55.0555 103.564 54.7546 102.404 54.153C101.265 53.5513 100.352 52.6918 99.664 51.5744C98.9978 50.4355 98.6648 49.071 98.6648 47.4809C98.6648 46.0197 98.9012 44.6767 99.3739 43.4519C99.8681 42.227 100.556 41.1634 101.437 40.2609C102.318 39.3584 103.338 38.66 104.499 38.1658C105.681 37.6715 106.97 37.4244 108.367 37.4244C109.806 37.4244 111.042 37.6823 112.073 38.198C113.126 38.7137 113.921 39.498 114.459 40.551C114.996 41.5824 115.243 42.8717 115.2 44.4188C115.157 46.5462 114.77 48.4156 114.04 50.0272C113.309 51.6174 112.288 52.8529 110.977 53.7339C109.667 54.615 108.087 55.0555 106.239 55.0555ZM107.271 51.6066C108.431 51.6066 109.452 51.338 110.333 50.8008C111.214 50.2421 111.912 49.4793 112.428 48.5123C112.944 47.5454 113.202 46.428 113.202 45.1602C113.202 43.8279 112.804 42.775 112.009 42.0014C111.214 41.2278 110.096 40.841 108.657 40.841C107.518 40.841 106.497 41.1204 105.595 41.6791C104.714 42.2163 104.015 42.9684 103.5 43.9353C102.984 44.9023 102.726 46.0197 102.726 47.2875C102.726 48.6198 103.124 49.6727 103.919 50.4463C104.714 51.2198 105.831 51.6066 107.271 51.6066ZM111.493 54.8298L112.267 50.8975L113.363 46.3205L113.911 41.7113L114.716 37.6178H118.745L115.329 54.8298H111.493ZM136.535 54.8298L131.217 32.2673H135.536L140.274 52.6703H137.599L150.653 32.2673H155.004L140.661 54.8298H136.535ZM159.865 55.0555C158.146 55.0555 156.653 54.7439 155.385 54.1207C154.117 53.4761 153.129 52.5951 152.42 51.4777C151.732 50.3388 151.388 49.0065 151.388 47.4809C151.388 45.5255 151.818 43.7957 152.678 42.2915C153.537 40.7873 154.708 39.6055 156.191 38.746C157.695 37.8649 159.403 37.4244 161.316 37.4244C162.928 37.4244 164.324 37.7253 165.506 38.3269C166.688 38.9286 167.601 39.7989 168.246 40.9377C168.912 42.0551 169.245 43.3981 169.245 44.9668C169.245 45.375 169.224 45.7941 169.181 46.2238C169.138 46.6536 169.073 47.0511 168.987 47.4164H154.386L154.837 44.7411H167.085L165.442 45.6436C165.614 44.5478 165.538 43.6345 165.216 42.9039C164.894 42.1733 164.378 41.6146 163.669 41.2278C162.96 40.841 162.111 40.6477 161.123 40.6477C159.941 40.6477 158.909 40.927 158.028 41.4857C157.169 42.0229 156.503 42.7965 156.03 43.8064C155.557 44.7949 155.321 45.9552 155.321 47.2875C155.321 48.6842 155.718 49.7586 156.513 50.5107C157.33 51.2628 158.587 51.6388 160.284 51.6388C161.251 51.6388 162.175 51.4884 163.056 51.1876C163.937 50.8653 164.668 50.4248 165.248 49.8661L166.924 52.6703C166.022 53.4653 164.947 54.067 163.701 54.4753C162.476 54.8621 161.198 55.0555 159.865 55.0555ZM171.184 54.8298L175.954 30.9135H179.983L175.213 54.8298H171.184ZM189.01 55.0555C187.334 55.0555 185.862 54.7439 184.594 54.1207C183.348 53.4761 182.381 52.5951 181.693 51.4777C181.006 50.3388 180.662 49.0065 180.662 47.4809C180.662 45.547 181.102 43.8279 181.983 42.3237C182.864 40.7981 184.068 39.6055 185.593 38.746C187.14 37.8649 188.903 37.4244 190.879 37.4244C192.577 37.4244 194.049 37.736 195.295 38.3592C196.563 38.9608 197.541 39.8311 198.228 40.97C198.916 42.0874 199.26 43.4196 199.26 44.9668C199.26 46.8792 198.819 48.5983 197.938 50.1239C197.057 51.6496 195.843 52.8529 194.296 53.7339C192.77 54.615 191.008 55.0555 189.01 55.0555ZM189.268 51.6066C190.428 51.6066 191.449 51.338 192.33 50.8008C193.211 50.2421 193.909 49.4793 194.425 48.5123C194.941 47.5454 195.199 46.428 195.199 45.1602C195.199 43.8279 194.801 42.775 194.006 42.0014C193.211 41.2278 192.093 40.841 190.654 40.841C189.515 40.841 188.494 41.1204 187.592 41.6791C186.711 42.2163 186.012 42.9684 185.497 43.9353C184.981 44.9023 184.723 46.0197 184.723 47.2875C184.723 48.6412 185.121 49.7049 185.916 50.4785C186.711 51.2306 187.828 51.6066 189.268 51.6066ZM209.881 55.0555C208.184 55.0555 206.69 54.7439 205.401 54.1207C204.133 53.4761 203.156 52.5951 202.468 51.4777C201.78 50.3388 201.436 49.0065 201.436 47.4809C201.436 45.547 201.877 43.8279 202.758 42.3237C203.639 40.7981 204.853 39.6055 206.4 38.746C207.947 37.8649 209.731 37.4244 211.751 37.4244C213.491 37.4244 214.985 37.7682 216.231 38.4559C217.499 39.122 218.477 40.1212 219.164 41.4535L215.715 43.2262C215.329 42.4097 214.77 41.808 214.039 41.4212C213.33 41.0344 212.46 40.841 211.428 40.841C210.311 40.841 209.301 41.1204 208.399 41.6791C207.496 42.2163 206.787 42.9684 206.271 43.9353C205.756 44.9023 205.498 46.0197 205.498 47.2875C205.498 48.6198 205.895 49.6727 206.69 50.4463C207.485 51.2198 208.614 51.6066 210.075 51.6066C211.02 51.6066 211.901 51.4132 212.718 51.0264C213.534 50.6396 214.222 50.038 214.781 49.2214L217.746 51.2198C216.951 52.4232 215.855 53.3686 214.458 54.0563C213.062 54.7224 211.536 55.0555 209.881 55.0555ZM219.878 54.8298L223.295 37.6178H227.324L223.907 54.8298H219.878ZM226.196 34.7814C225.487 34.7814 224.906 34.5665 224.455 34.1367C224.025 33.6855 223.81 33.1483 223.81 32.5251C223.81 31.7945 224.058 31.1821 224.552 30.6879C225.046 30.1937 225.701 29.9466 226.518 29.9466C227.249 29.9466 227.839 30.1614 228.291 30.5912C228.742 30.9995 228.968 31.5044 228.968 32.1061C228.968 32.9012 228.71 33.5458 228.194 34.04C227.7 34.5343 227.034 34.7814 226.196 34.7814ZM236.963 55.0555C235.566 55.0555 234.288 54.7546 233.128 54.153C231.967 53.5513 231.054 52.6918 230.388 51.5744C229.722 50.4355 229.389 49.071 229.389 47.4809C229.389 46.0197 229.625 44.6767 230.098 43.4519C230.592 42.227 231.28 41.1634 232.161 40.2609C233.042 39.3584 234.062 38.66 235.223 38.1658C236.405 37.6715 237.683 37.4244 239.058 37.4244C240.477 37.4244 241.701 37.6715 242.733 38.1658C243.764 38.66 244.559 39.4013 245.118 40.3898C245.677 41.3783 245.956 42.6031 245.956 44.0643C245.956 45.6759 245.752 47.1586 245.344 48.5123C244.935 49.8446 244.344 51.0049 243.571 51.9934C242.797 52.9604 241.852 53.7125 240.734 54.2497C239.638 54.7869 238.381 55.0555 236.963 55.0555ZM237.995 51.6066C239.134 51.6066 240.143 51.338 241.024 50.8008C241.927 50.2421 242.625 49.4793 243.12 48.5123C243.635 47.5454 243.893 46.428 243.893 45.1602C243.893 43.8279 243.496 42.775 242.701 42.0014C241.927 41.2278 240.81 40.841 239.348 40.841C238.231 40.841 237.221 41.1204 236.319 41.6791C235.416 42.2163 234.707 42.9684 234.191 43.9353C233.697 44.9023 233.45 46.0197 233.45 47.2875C233.45 48.6198 233.837 49.6727 234.61 50.4463C235.405 51.2198 236.533 51.6066 237.995 51.6066ZM242.185 54.8298L242.991 50.8975L244.054 46.3205L244.602 41.7113L246.762 30.9135H250.791L246.02 54.8298H242.185ZM259.059 55.0555C257.662 55.0555 256.384 54.7546 255.224 54.153C254.085 53.5513 253.171 52.6918 252.484 51.5744C251.818 50.4355 251.485 49.071 251.485 47.4809C251.485 46.0197 251.721 44.6767 252.194 43.4519C252.688 42.227 253.376 41.1634 254.257 40.2609C255.138 39.3584 256.158 38.66 257.319 38.1658C258.5 37.6715 259.79 37.4244 261.186 37.4244C262.626 37.4244 263.862 37.6823 264.893 38.198C265.946 38.7137 266.741 39.498 267.278 40.551C267.816 41.5824 268.063 42.8717 268.02 44.4188C267.977 46.5462 267.59 48.4156 266.859 50.0272C266.129 51.6174 265.108 52.8529 263.797 53.7339C262.487 54.615 260.907 55.0555 259.059 55.0555ZM260.091 51.6066C261.251 51.6066 262.272 51.338 263.153 50.8008C264.034 50.2421 264.732 49.4793 265.248 48.5123C265.763 47.5454 266.021 46.428 266.021 45.1602C266.021 43.8279 265.624 42.775 264.829 42.0014C264.034 41.2278 262.916 40.841 261.477 40.841C260.338 40.841 259.317 41.1204 258.414 41.6791C257.533 42.2163 256.835 42.9684 256.319 43.9353C255.804 44.9023 255.546 46.0197 255.546 47.2875C255.546 48.6198 255.943 49.6727 256.738 50.4463C257.533 51.2198 258.651 51.6066 260.091 51.6066ZM264.313 54.8298L265.087 50.8975L266.182 46.3205L266.73 41.7113L267.536 37.6178H271.565L268.149 54.8298H264.313ZM281.188 55.0555C279.791 55.0555 278.513 54.7546 277.352 54.153C276.192 53.5513 275.279 52.6918 274.613 51.5744C273.947 50.4355 273.614 49.071 273.614 47.4809C273.614 46.0197 273.85 44.6767 274.323 43.4519C274.817 42.227 275.504 41.1634 276.385 40.2609C277.266 39.3584 278.287 38.66 279.448 38.1658C280.629 37.6715 281.908 37.4244 283.283 37.4244C284.701 37.4244 285.926 37.6715 286.958 38.1658C287.989 38.66 288.784 39.4013 289.343 40.3898C289.902 41.3783 290.181 42.6031 290.181 44.0643C290.181 45.6759 289.977 47.1586 289.568 48.5123C289.16 49.8446 288.569 51.0049 287.796 51.9934C287.022 52.9604 286.077 53.7125 284.959 54.2497C283.863 54.7869 282.606 55.0555 281.188 55.0555ZM282.22 51.6066C283.358 51.6066 284.368 51.338 285.249 50.8008C286.152 50.2421 286.85 49.4793 287.344 48.5123C287.86 47.5454 288.118 46.428 288.118 45.1602C288.118 43.8279 287.72 42.775 286.925 42.0014C286.152 41.2278 285.034 40.841 283.573 40.841C282.456 40.841 281.446 41.1204 280.543 41.6791C279.641 42.2163 278.932 42.9684 278.416 43.9353C277.922 44.9023 277.675 46.0197 277.675 47.2875C277.675 48.6198 278.062 49.6727 278.835 50.4463C279.63 51.2198 280.758 51.6066 282.22 51.6066ZM286.41 54.8298L287.216 50.8975L288.279 46.3205L288.827 41.7113L290.987 30.9135H295.016L290.245 54.8298H286.41Z" fill="#243268"/>
</svg>
