<svg width="507" height="429" viewBox="0 0 507 429" fill="none" xmlns="http://www.w3.org/2000/svg">
<path d="M267.942 267.094L313.622 268.477L267.942 269.863V267.094Z" fill="#E33BA3"/>
<path d="M294.248 302.577L339.929 303.959L294.248 305.345V302.577Z" fill="#E33BA3"/>
<path d="M282.242 283.862L333.301 285.248L282.242 286.63V283.862Z" fill="#E33BA3"/>
<path d="M455.533 269.863L432.274 235.852H261.948V232.963H433.802L457.924 268.23L455.533 269.863Z" fill="#E33BA3"/>
<path d="M267.398 239.856C270.408 236.846 270.408 231.965 267.398 228.954C264.387 225.944 259.506 225.944 256.496 228.954C253.485 231.965 253.485 236.846 256.496 239.856C259.506 242.866 264.387 242.866 267.398 239.856Z" fill="#E33BA3"/>
<mask id="mask0_26_610" style="mask-type:luminance" maskUnits="userSpaceOnUse" x="49" y="239" width="189" height="126">
<path d="M233.001 256.546C222.686 250.622 211.252 245.997 199.281 243.138C187.318 240.265 174.838 239.178 162.605 239.902C150.368 240.619 138.32 243.147 127.171 247.26C116.009 251.359 105.759 257.016 96.8365 263.644C94.5937 265.286 92.4613 267.029 90.384 268.782C88.3165 270.548 86.3398 272.372 84.4346 274.215C83.9672 274.683 83.4966 275.153 83.0324 275.618L82.3378 276.315L81.6595 277.029C81.2083 277.503 80.7604 277.977 80.3125 278.448C79.8776 278.928 79.4427 279.409 79.0077 279.889L78.3618 280.606L77.7322 281.337C77.3135 281.823 76.898 282.307 76.4825 282.787C76.0801 283.277 75.6744 283.768 75.2751 284.258C75.0739 284.501 74.8759 284.745 74.6779 284.991C74.4832 285.238 74.2917 285.488 74.0969 285.734C73.7107 286.228 73.3277 286.721 72.9447 287.211C72.5747 287.711 72.2047 288.208 71.8347 288.701C71.6497 288.948 71.4679 289.194 71.2829 289.441C71.1044 289.691 70.9291 289.941 70.7506 290.191C70.3968 290.691 70.0463 291.187 69.6957 291.684C68.3293 293.69 67.0148 295.679 65.8138 297.692C63.3893 301.697 61.286 305.692 59.5009 309.617C55.9144 317.465 53.532 324.985 51.9838 331.726C51.2113 335.099 50.6271 338.276 50.2149 341.227C50.1045 341.964 50.0266 342.687 49.9325 343.395C49.887 343.749 49.8449 344.099 49.7994 344.443C49.7637 344.791 49.7312 345.135 49.6955 345.472C49.6274 346.15 49.5625 346.809 49.5008 347.455C49.4521 348.101 49.4034 348.731 49.358 349.344C49.0107 354.252 49.0496 358.105 49.134 360.721C49.1568 362.029 49.2347 363.032 49.2606 363.703C49.2963 364.379 49.3126 364.726 49.3126 364.726C49.3126 364.726 49.3385 364.379 49.3904 363.707C49.4489 363.035 49.5008 362.035 49.6469 360.74C49.9 358.147 50.3544 354.349 51.3184 349.61C51.4417 349.02 51.5683 348.413 51.6949 347.79C51.8377 347.17 51.9838 346.537 52.1363 345.888C52.211 345.563 52.2889 345.235 52.3668 344.904C52.4512 344.573 52.5388 344.242 52.6264 343.904C52.805 343.233 52.9705 342.541 53.1717 341.843C53.941 339.049 54.9017 336.066 56.0572 332.94C58.3714 326.696 61.5587 319.886 65.8495 313.018C67.9852 309.581 70.413 306.144 73.1167 302.758C74.4572 301.058 75.8983 299.396 77.3784 297.731C77.7549 297.322 78.1346 296.913 78.5144 296.501L79.0856 295.884L79.6731 295.277C80.0658 294.871 80.4586 294.465 80.8546 294.06C81.2603 293.661 81.6627 293.261 82.0717 292.862L82.6819 292.262L83.3083 291.671C83.727 291.278 84.1457 290.885 84.5677 290.489C84.9961 290.103 85.4278 289.717 85.8595 289.331L86.5086 288.75L87.174 288.182C87.6186 287.805 88.0633 287.426 88.508 287.046C88.9624 286.676 89.42 286.306 89.8777 285.936L90.5658 285.381L91.2669 284.839C91.7342 284.478 92.2049 284.118 92.6755 283.755C94.584 282.336 96.5379 280.95 98.5633 279.636C100.595 278.331 102.659 277.049 104.805 275.874C113.344 271.109 122.763 267.438 132.582 265.228C142.397 263.005 152.588 262.252 162.601 262.972C172.618 263.693 182.381 265.89 191.381 269.35C198.587 272.109 205.293 275.673 211.349 279.785L237.711 259.395C236.166 258.415 234.602 257.458 232.995 256.549L233.001 256.546Z" fill="white"/>
</mask>
<g mask="url(#mask0_26_610)">
<path d="M49.0107 274.933L147.879 239.178H237.717V297.108L50.7407 364.729H49.0107V274.933Z" fill="#E33BA3"/>
</g>
<mask id="mask1_26_610" style="mask-type:luminance" maskUnits="userSpaceOnUse" x="227" y="265" width="72" height="101">
<path d="M253.089 360.006C253.089 360.084 253.083 360.146 253.079 360.217C253.073 360.354 253.063 360.484 253.057 360.613C253.044 360.87 253.031 361.113 253.018 361.34C252.894 363.739 252.83 365.021 252.83 365.021L298.964 364.437C298.964 364.437 298.844 362.937 298.62 360.123C298.585 359.701 298.546 359.253 298.503 358.783C298.484 358.549 298.461 358.306 298.439 358.059C298.426 357.936 298.416 357.812 298.403 357.689C298.39 357.572 298.377 357.455 298.361 357.335C298.247 356.381 298.124 355.339 297.991 354.213C297.828 353.09 297.666 351.886 297.465 350.604C297.358 349.964 297.244 349.302 297.13 348.624C297.072 348.283 297.014 347.939 296.955 347.592C296.887 347.244 296.819 346.89 296.751 346.533C296.611 345.819 296.468 345.086 296.319 344.336C296.163 343.586 295.988 342.82 295.816 342.035C295.728 341.642 295.641 341.246 295.55 340.847C295.452 340.448 295.352 340.045 295.251 339.636C295.043 338.822 294.852 337.987 294.618 337.144C293.726 333.761 292.609 330.146 291.256 326.355C288.546 318.776 284.784 310.496 279.691 302.125C277.153 297.938 274.264 293.742 271.041 289.607C269.441 287.533 267.724 285.494 265.952 283.462C265.501 282.963 265.046 282.459 264.592 281.953C264.365 281.703 264.138 281.45 263.907 281.197C263.673 280.95 263.44 280.7 263.206 280.454C262.735 279.957 262.265 279.46 261.794 278.961C261.311 278.474 260.827 277.984 260.34 277.49C260.097 277.247 259.853 277 259.607 276.754C259.357 276.513 259.107 276.27 258.857 276.03C258.354 275.549 257.851 275.066 257.348 274.582C256.831 274.108 256.315 273.634 255.799 273.157C255.54 272.92 255.28 272.683 255.02 272.446C254.754 272.213 254.491 271.982 254.225 271.749C253.693 271.284 253.157 270.82 252.622 270.353C252.076 269.899 251.528 269.441 250.979 268.986C250.704 268.759 250.431 268.532 250.155 268.302C249.876 268.078 249.594 267.857 249.311 267.633C248.746 267.188 248.182 266.744 247.617 266.299C247.078 265.89 246.536 265.481 245.988 265.079L227.802 293.871L227.899 293.979C228.256 294.368 228.616 294.754 228.97 295.141C229.317 295.537 229.661 295.929 230.009 296.322L230.525 296.909L231.025 297.507C231.356 297.903 231.687 298.299 232.018 298.695C232.339 299.097 232.657 299.496 232.975 299.896L233.449 300.493L233.91 301.1C234.215 301.502 234.52 301.905 234.822 302.304C235.114 302.71 235.406 303.115 235.699 303.521L236.137 304.125L236.555 304.738C236.835 305.144 237.114 305.55 237.39 305.952C238.464 307.588 239.503 309.204 240.444 310.84C242.349 314.096 243.991 317.332 245.374 320.506C248.156 326.855 249.967 332.901 251.119 338.312C251.693 341.019 252.119 343.564 252.411 345.926C252.492 346.514 252.541 347.098 252.609 347.663C252.641 347.945 252.67 348.224 252.703 348.5C252.726 348.779 252.748 349.052 252.771 349.325C252.817 349.867 252.859 350.396 252.904 350.912C252.933 351.428 252.963 351.934 252.992 352.424C253.005 352.668 253.021 352.911 253.034 353.148C253.04 353.388 253.05 353.622 253.057 353.856C253.073 354.32 253.089 354.771 253.102 355.206C253.112 356.079 253.118 356.897 253.128 357.66C253.115 358.419 253.102 359.124 253.092 359.77C253.092 359.851 253.092 359.929 253.089 360.006Z" fill="white"/>
</mask>
<g mask="url(#mask1_26_610)">
<path d="M227.808 271.138L244.569 265.079H289.873L298.968 290.23V364.95L298.776 365.021H227.808V271.138Z" fill="#E33BA3"/>
<path d="M298.968 290.23L289.873 265.079H298.968V290.23Z" fill="#E33BA3"/>
</g>
<path d="M216.692 283.677L144.497 339.519C141.274 340.743 138.284 342.723 135.808 345.446C135.191 346.125 134.627 346.829 134.11 347.553L133.588 348.315C127.625 357.446 128.998 369.809 137.327 377.381C145.656 384.953 158.093 385.145 166.616 378.345L167.327 377.754C168.002 377.17 168.648 376.54 169.265 375.862C171.741 373.139 173.429 369.974 174.341 366.651L236.344 268.477L216.695 283.677H216.692ZM153.244 369.646C147.704 369.646 143.211 365.154 143.211 359.614C143.211 354.073 147.704 349.581 153.244 349.581C158.784 349.581 163.277 354.073 163.277 359.614C163.277 365.154 158.784 369.646 153.244 369.646Z" fill="#E33BA3"/>
<path d="M82.1895 95.0239C81.5339 95.0239 81.2565 94.6708 81.3573 93.9647L88.847 46.5302C88.9479 45.8241 89.3261 45.4711 89.9818 45.4711H120.697C121.05 45.4711 121.327 45.5719 121.529 45.7737C121.731 45.925 121.781 46.1772 121.68 46.5302L120.319 55.1547C120.218 55.8608 119.84 56.2138 119.184 56.2138H99.5141L98.001 65.5191H114.72C115.477 65.5191 115.805 65.8722 115.704 66.5783L114.342 74.9758C114.241 75.6819 113.888 76.0349 113.283 76.0349H96.3366L93.5375 93.9647C93.4366 94.6708 93.0583 95.0239 92.4027 95.0239H82.1895ZM117.787 95.0239C117.081 95.0239 116.778 94.6708 116.879 93.9647L122.477 58.4078C122.628 57.7521 123.007 57.4243 123.612 57.4243H133.371C134.128 57.4243 134.456 57.7521 134.355 58.4078L128.756 93.9647C128.605 94.6708 128.227 95.0239 127.622 95.0239H117.787ZM129.664 53.112C127.647 53.112 126.109 52.6077 125.049 51.599C123.99 50.5903 123.562 49.1529 123.763 47.2867L123.99 45.8493C124.192 44.0337 124.848 42.6215 125.957 41.6128C127.117 40.6041 128.706 40.0997 130.723 40.0997C132.791 40.0997 134.355 40.6041 135.414 41.6128C136.473 42.571 136.876 43.9832 136.624 45.8493L136.473 47.2867C136.221 49.1529 135.515 50.5903 134.355 51.599C133.245 52.6077 131.682 53.112 129.664 53.112ZM150.237 95.9317C148.017 95.9317 145.975 95.8056 144.109 95.5534C142.243 95.3013 140.402 95.0491 138.586 94.7969C136.821 94.4943 134.929 94.2673 132.912 94.116L140.78 44.4119C140.881 43.7058 141.284 43.3528 141.99 43.3528H151.75C152.405 43.3528 152.683 43.7058 152.582 44.4119L146.076 85.6429C146.782 85.7437 147.538 85.8698 148.345 86.0211C149.152 86.122 149.984 86.1724 150.842 86.1724C152.657 86.1724 154.07 85.6681 155.078 84.6594C156.137 83.6002 156.844 81.9359 157.197 79.6663L158.331 72.101C158.634 70.2349 158.483 68.8983 157.878 68.0914C157.323 67.2844 156.415 66.8809 155.154 66.8809C153.994 66.8809 152.758 67.1835 151.447 67.7887C150.186 68.394 148.774 69.327 147.21 70.5879L148.799 62.1148C150.968 60.2486 153.111 58.8617 155.23 57.9538C157.398 56.9956 159.643 56.5164 161.963 56.5164C165.342 56.5164 167.813 57.5504 169.377 59.6182C170.94 61.6861 171.369 64.9139 170.663 69.3018L168.847 80.5741C168.292 84.0542 167.284 86.929 165.821 89.1986C164.409 91.4682 162.417 93.1578 159.844 94.2673C157.323 95.3769 154.12 95.9317 150.237 95.9317ZM171.06 95.0239C170.354 95.0239 170.051 94.6708 170.152 93.9647L174.389 67.1079C174.641 65.4939 174.843 63.9809 174.994 62.5687C175.145 61.1565 175.271 59.7947 175.372 58.4834C175.372 57.7773 175.725 57.4243 176.431 57.4243H184.829C185.485 57.4243 185.838 57.7521 185.888 58.4078C185.989 59.2652 186.014 60.1982 185.964 61.2069C185.913 62.1652 185.812 63.1487 185.661 64.1574L185.964 68.9992L182.03 93.9647C181.979 94.2673 181.878 94.5195 181.727 94.7213C181.576 94.923 181.298 95.0239 180.895 95.0239H171.06ZM184.375 73.841L185.132 64.0061C186.342 62.5939 187.552 61.333 188.763 60.2234C189.973 59.0634 191.259 58.1556 192.621 57.4999C194.033 56.8443 195.521 56.5164 197.085 56.5164C198.194 56.5164 198.976 56.5921 199.43 56.7434C199.733 56.8947 199.909 57.0712 199.96 57.273C200.01 57.4747 200.01 57.7269 199.96 58.0295C199.808 59.3912 199.556 60.98 199.203 62.7956C198.9 64.5609 198.573 66.1748 198.22 67.6374C198.018 68.3435 197.614 68.6461 197.009 68.5453C196.706 68.4948 196.353 68.4444 195.95 68.394C195.546 68.3435 195.042 68.3183 194.437 68.3183C193.529 68.3183 192.495 68.5201 191.335 68.9235C190.175 69.2766 188.99 69.8566 187.779 70.6636C186.619 71.4705 185.485 72.5297 184.375 73.841ZM204.875 95.9317C202.454 95.9317 200.563 95.4021 199.201 94.343C197.839 93.2838 196.932 91.7708 196.478 89.8038C196.024 87.7864 196.024 85.3655 196.478 82.5411L198.218 71.6471C199.075 66.3513 200.941 62.5182 203.816 60.1478C206.691 57.7269 210.953 56.5164 216.601 56.5164C220.031 56.5164 223.133 56.7434 225.907 57.1973C228.681 57.6512 231.556 57.9791 234.531 58.1808L230.219 85.2646C229.967 86.8785 229.765 88.4168 229.614 89.8795C229.462 91.2916 229.336 92.6534 229.236 93.9647C229.185 94.6708 228.832 95.0239 228.176 95.0239H219.855C219.199 95.0239 218.846 94.6708 218.795 93.9647C218.745 93.3091 218.72 92.6282 218.72 91.9221C218.72 91.1656 218.745 90.409 218.795 89.6525C216.677 91.6699 214.382 93.2334 211.911 94.343C209.49 95.4021 207.145 95.9317 204.875 95.9317ZM211.911 85.5672C213.071 85.5672 214.206 85.2898 215.315 84.735C216.425 84.1803 217.61 83.3985 218.871 82.3898L221.292 66.8053C220.636 66.6539 219.855 66.5279 218.947 66.427C218.039 66.3261 217.081 66.2757 216.072 66.2757C214.155 66.2757 212.718 66.78 211.76 67.7887C210.852 68.7975 210.247 70.3609 209.944 72.4792L208.734 80.3472C208.481 82.0115 208.582 83.2976 209.036 84.2055C209.541 85.1133 210.499 85.5672 211.911 85.5672ZM262.11 95.9317C256.108 95.9317 251.695 94.4943 248.87 91.6195C246.046 88.6942 245.088 84.609 245.996 79.3637L247.206 72.0253C248.114 66.8305 250.131 62.9469 253.258 60.3747C256.436 57.8025 260.773 56.5164 266.271 56.5164C272.172 56.5164 276.56 57.9791 279.434 60.9043C282.309 63.8296 283.318 67.9148 282.46 73.1601L281.25 80.2715C280.393 85.5672 278.375 89.5012 275.198 92.0734C272.071 94.6456 267.708 95.9317 262.11 95.9317ZM263.018 85.7185C265.035 85.7185 266.548 85.2142 267.557 84.2055C268.566 83.1968 269.272 81.482 269.675 79.0611L270.507 73.6897C270.911 71.2688 270.684 69.5035 269.826 68.394C269.019 67.234 267.532 66.6539 265.363 66.6539C263.345 66.6539 261.832 67.1583 260.824 68.167C259.865 69.1757 259.185 70.9157 258.781 73.3871L257.949 78.6828C257.596 81.1541 257.823 82.9446 258.63 84.0542C259.437 85.1637 260.899 85.7185 263.018 85.7185ZM260.975 52.9607C260.622 52.9607 260.395 52.8346 260.294 52.5825C260.193 52.3303 260.244 52.0277 260.445 51.6746L266.952 42.2936C267.405 41.5875 267.96 41.2345 268.616 41.2345H276.786C277.19 41.2345 277.417 41.3858 277.467 41.6884C277.568 41.9406 277.493 42.218 277.24 42.5206L268.919 51.9016C268.313 52.6077 267.632 52.9607 266.876 52.9607H260.975ZM303.495 95.9317C301.578 95.9317 299.637 95.7047 297.67 95.2508C295.753 94.7969 294.19 94.1917 292.979 93.4351L294.265 84.2811C295.123 84.8359 296.157 85.2898 297.367 85.6429C298.578 85.9959 299.738 86.1724 300.847 86.1724C302.461 86.1724 303.747 85.6681 304.705 84.6594C305.664 83.6002 306.294 82.0115 306.597 79.8932L307.732 72.2523C308.034 70.3862 307.908 69.0244 307.353 68.167C306.849 67.3096 305.891 66.8809 304.478 66.8809C303.268 66.8809 301.957 67.2592 300.545 68.0157C299.183 68.7218 297.644 69.8314 295.93 71.3444L296.232 63.7791C299.107 61.2069 301.679 59.366 303.949 58.2564C306.218 57.0964 308.614 56.5164 311.136 56.5164C314.818 56.5164 317.39 57.6008 318.853 59.7695C320.315 61.8878 320.719 65.1157 320.063 69.4531L318.247 80.8767C317.44 85.8698 315.801 89.6273 313.33 92.149C310.909 94.6708 307.631 95.9317 303.495 95.9317ZM281.102 109.02C280.345 109.02 280.017 108.667 280.118 107.961L286.624 67.0322C286.877 65.4687 287.078 63.9809 287.23 62.5687C287.381 61.106 287.507 59.7443 287.608 58.4834C287.608 57.7773 287.961 57.4243 288.667 57.4243H297.064C297.72 57.4243 298.073 57.7521 298.124 58.4078C298.174 58.9121 298.199 59.4669 298.199 60.0721C298.199 60.6773 298.174 61.3078 298.124 61.9635C298.124 62.5687 298.073 63.1739 297.972 63.7791L298.275 68.6209L291.996 107.961C291.895 108.667 291.542 109.02 290.937 109.02H281.102ZM336.569 95.9317C331.727 95.9317 328.373 94.8221 326.507 92.603C324.641 90.3334 324.111 86.6768 324.918 81.6333L327.188 67.4105H322.044C321.287 67.4105 320.984 67.0574 321.136 66.3513L322.346 58.4078C322.497 57.7521 322.851 57.4243 323.405 57.4243H329.155L331.727 48.3459C332.03 47.6902 332.458 47.3624 333.013 47.3624H341.108C341.814 47.3624 342.092 47.7154 341.94 48.4215L340.579 57.4243H349.506C350.262 57.4243 350.565 57.7521 350.414 58.4078L349.203 66.3513C349.052 67.0574 348.699 67.4105 348.144 67.4105H338.99L336.947 80.4228C336.645 82.2385 336.771 83.575 337.326 84.4324C337.931 85.2394 338.914 85.6429 340.276 85.6429C341.083 85.6429 341.865 85.5672 342.621 85.4159C343.428 85.2646 344.286 85.0377 345.193 84.735C346.051 84.382 346.404 84.6594 346.253 85.5672L344.966 93.5108C344.866 94.116 344.513 94.5447 343.907 94.7969C342.848 95.2004 341.688 95.4778 340.427 95.6291C339.166 95.8308 337.88 95.9317 336.569 95.9317ZM347.873 95.0239C347.167 95.0239 346.864 94.6708 346.965 93.9647L352.563 58.4078C352.714 57.7521 353.093 57.4243 353.698 57.4243H363.457C364.214 57.4243 364.542 57.7521 364.441 58.4078L358.842 93.9647C358.691 94.6708 358.313 95.0239 357.708 95.0239H347.873ZM359.75 53.112C357.733 53.112 356.194 52.6077 355.135 51.599C354.076 50.5903 353.647 49.1529 353.849 47.2867L354.076 45.8493C354.278 44.0337 354.934 42.6215 356.043 41.6128C357.203 40.6041 358.792 40.0997 360.809 40.0997C362.877 40.0997 364.441 40.6041 365.5 41.6128C366.559 42.571 366.962 43.9832 366.71 45.8493L366.559 47.2867C366.307 49.1529 365.601 50.5903 364.441 51.599C363.331 52.6077 361.768 53.112 359.75 53.112ZM380.625 95.9317C374.623 95.9317 370.21 94.4691 367.386 91.5438C364.612 88.5681 363.654 84.5081 364.511 79.3637L365.721 71.9497C366.579 66.7044 368.571 62.8209 371.698 60.2991C374.825 57.7773 379.188 56.5164 384.786 56.5164C388.569 56.5164 391.696 57.1721 394.167 58.4834C396.638 59.7443 398.378 61.4591 399.387 63.6278C400.446 65.7965 400.673 68.2931 400.068 71.1175C399.917 71.8236 399.564 72.1766 399.009 72.1766H390.006C389.25 72.1766 388.922 71.8236 389.023 71.1175C389.224 69.6549 388.846 68.5453 387.888 67.7887C386.93 67.0322 385.593 66.6539 383.878 66.6539C381.861 66.6539 380.373 67.1835 379.415 68.2427C378.456 69.2514 377.75 70.9914 377.296 73.4627L376.464 78.8341C376.061 81.255 376.288 83.0202 377.145 84.1298C378.002 85.189 379.465 85.7185 381.533 85.7185C383.399 85.7185 384.786 85.315 385.694 84.5081C386.602 83.7011 387.156 82.6168 387.358 81.255C387.459 80.5489 387.812 80.1959 388.417 80.1959H397.42C398.227 80.1959 398.58 80.5489 398.479 81.255C398.025 85.9959 396.21 89.6273 393.032 92.149C389.905 94.6708 385.77 95.9317 380.625 95.9317ZM409.322 95.9317C406.901 95.9317 405.01 95.4021 403.648 94.343C402.286 93.2838 401.378 91.7708 400.924 89.8038C400.47 87.7864 400.47 85.3655 400.924 82.5411L402.664 71.6471C403.522 66.3513 405.388 62.5182 408.263 60.1478C411.138 57.7269 415.399 56.5164 421.048 56.5164C424.478 56.5164 427.579 56.7434 430.353 57.1973C433.127 57.6512 436.002 57.9791 438.978 58.1808L434.666 85.2646C434.413 86.8785 434.212 88.4168 434.06 89.8795C433.909 91.2916 433.783 92.6534 433.682 93.9647C433.632 94.6708 433.279 95.0239 432.623 95.0239H424.301C423.646 95.0239 423.292 94.6708 423.242 93.9647C423.192 93.3091 423.166 92.6282 423.166 91.9221C423.166 91.1656 423.192 90.409 423.242 89.6525C421.124 91.6699 418.829 93.2334 416.358 94.343C413.937 95.4021 411.591 95.9317 409.322 95.9317ZM416.358 85.5672C417.518 85.5672 418.652 85.2898 419.762 84.735C420.872 84.1803 422.057 83.3985 423.318 82.3898L425.739 66.8053C425.083 66.6539 424.301 66.5279 423.393 66.427C422.485 66.3261 421.527 66.2757 420.519 66.2757C418.602 66.2757 417.165 66.78 416.206 67.7887C415.298 68.7975 414.693 70.3609 414.391 72.4792L413.18 80.3472C412.928 82.0115 413.029 83.2976 413.483 84.2055C413.987 85.1133 414.945 85.5672 416.358 85.5672Z" fill="#59B2FF"/>
<path d="M118.401 217.551C110.175 217.551 103.491 216.382 98.35 214.046C93.3021 211.615 89.7032 208.297 87.5532 204.09C85.4967 199.884 84.6554 195.116 85.0293 189.788C85.2163 188.479 85.8706 187.825 86.9924 187.825H104.379C105.688 187.825 106.342 188.386 106.342 189.508C106.342 193.06 107.417 195.443 109.567 196.659C111.811 197.78 115.129 198.341 119.523 198.341C123.449 198.341 126.44 197.593 128.497 196.098C130.553 194.509 131.581 192.172 131.581 189.087V187.124C131.581 181.235 127.609 178.29 119.663 178.29H109.427C108.118 178.29 107.464 177.636 107.464 176.327V162.446C107.464 161.137 108.118 160.483 109.427 160.483H117.279C121.673 160.483 124.804 159.782 126.674 158.379C128.637 156.977 129.618 154.734 129.618 151.649V149.265C129.618 146.461 128.684 144.404 126.814 143.096C125.038 141.694 122.187 140.992 118.261 140.992C114.148 140.992 111.156 141.694 109.287 143.096C107.417 144.498 106.483 146.554 106.483 149.265C106.483 150.574 105.828 151.228 104.52 151.228H87.2728C85.9641 151.228 85.3098 150.574 85.3098 149.265C85.3098 140.572 88.1608 133.935 93.863 129.354C99.6586 124.681 108.259 122.344 119.663 122.344C130.974 122.344 139.247 124.447 144.481 128.653C149.716 132.766 152.334 138.749 152.334 146.601C152.334 152.023 151.165 156.557 148.828 160.202C146.585 163.848 143.313 166.465 139.013 168.054V168.475C143.874 169.784 147.613 172.308 150.23 176.047C152.848 179.692 154.156 184.226 154.156 189.648C154.156 198.809 151.118 205.773 145.042 210.54C138.966 215.214 130.086 217.551 118.401 217.551ZM194.83 217.551C182.959 217.551 173.891 214.56 167.628 208.577C161.459 202.501 158.374 193.761 158.374 182.356V157.538C158.374 146.134 161.459 137.44 167.628 131.458C173.891 125.382 182.959 122.344 194.83 122.344C206.795 122.344 215.863 125.382 222.032 131.458C228.202 137.44 231.287 146.134 231.287 157.538V182.356C231.287 193.761 228.202 202.501 222.032 208.577C215.863 214.56 206.795 217.551 194.83 217.551ZM194.83 198.061C199.317 198.061 202.729 196.705 205.066 193.994C207.403 191.284 208.571 187.217 208.571 181.796V158.099C208.571 152.677 207.403 148.611 205.066 145.9C202.729 143.189 199.317 141.834 194.83 141.834C190.25 141.834 186.791 143.189 184.454 145.9C182.117 148.611 180.949 152.677 180.949 158.099V181.796C180.949 187.217 182.117 191.284 184.454 193.994C186.791 196.705 190.25 198.061 194.83 198.061ZM272.273 217.551C260.401 217.551 251.334 214.56 245.071 208.577C238.901 202.501 235.816 193.761 235.816 182.356V157.538C235.816 146.134 238.901 137.44 245.071 131.458C251.334 125.382 260.401 122.344 272.273 122.344C284.238 122.344 293.305 125.382 299.475 131.458C305.644 137.44 308.729 146.134 308.729 157.538V182.356C308.729 193.761 305.644 202.501 299.475 208.577C293.305 214.56 284.238 217.551 272.273 217.551ZM272.273 198.061C276.76 198.061 280.172 196.705 282.509 193.994C284.846 191.284 286.014 187.217 286.014 181.796V158.099C286.014 152.677 284.846 148.611 282.509 145.9C280.172 143.189 276.76 141.834 272.273 141.834C267.692 141.834 264.234 143.189 261.897 145.9C259.56 148.611 258.391 152.677 258.391 158.099V181.796C258.391 187.217 259.56 191.284 261.897 193.994C264.234 196.705 267.692 198.061 272.273 198.061Z" fill="#12006C"/>
<path d="M315.054 210.399V152.824H326.075L350.586 193.456H344.746L368.845 152.824H379.785L379.949 210.399H367.447L367.365 171.989H369.668L350.421 204.313H344.417L324.759 171.989H327.556V210.399H315.054ZM383.739 210.399V152.824H411.869C419.107 152.824 424.535 154.195 428.154 156.937C431.828 159.678 433.665 163.297 433.665 167.794C433.665 170.81 432.925 173.442 431.444 175.69C429.964 177.883 427.935 179.583 425.358 180.789C422.781 181.996 419.82 182.599 416.475 182.599L418.038 179.227C421.657 179.227 424.864 179.83 427.661 181.036C430.457 182.188 432.623 183.915 434.159 186.218C435.749 188.521 436.544 191.345 436.544 194.69C436.544 199.625 434.597 203.49 430.704 206.287C426.811 209.029 421.081 210.399 413.514 210.399H383.739ZM396.981 200.365H412.527C415.981 200.365 418.586 199.817 420.341 198.72C422.15 197.568 423.055 195.759 423.055 193.291C423.055 190.879 422.15 189.097 420.341 187.945C418.586 186.739 415.981 186.136 412.527 186.136H395.994V176.43H410.224C413.459 176.43 415.926 175.882 417.626 174.785C419.381 173.634 420.258 171.906 420.258 169.603C420.258 167.355 419.381 165.683 417.626 164.586C415.926 163.435 413.459 162.859 410.224 162.859H396.981V200.365Z" fill="#12006C"/>
<path d="M347.866 129.214C340.054 129.214 332.799 132.022 327.405 137.287C326.289 138.339 326.289 140.094 327.405 141.147C327.963 141.674 328.707 142.025 329.451 142.025C330.195 142.025 330.939 141.674 331.497 141.147C335.962 136.936 341.728 134.83 347.866 134.83C354.005 134.83 359.957 137.111 364.235 141.147C365.351 142.2 367.211 142.2 368.327 141.147C369.444 140.094 369.444 138.339 368.327 137.287C362.933 132.022 355.679 129.214 347.866 129.214Z" fill="#12006C"/>
<path d="M347.864 151.675C346.376 151.675 345.074 152.201 344.144 153.079C343.214 153.956 342.656 155.184 342.656 156.588C342.656 157.992 343.214 159.221 344.144 160.098C345.074 160.976 346.376 161.502 347.864 161.502C349.352 161.502 350.654 160.976 351.584 160.098C352.514 159.221 353.072 157.992 353.072 156.588C353.072 155.184 352.514 153.956 351.584 153.079C350.654 152.201 349.352 151.675 347.864 151.675Z" fill="#12006C"/>
<path d="M335.589 145.006C334.473 146.058 334.473 147.813 335.589 148.866C336.705 149.919 338.566 149.919 339.682 148.866C344.146 144.654 351.586 144.654 356.051 148.866C356.609 149.393 357.353 149.744 358.097 149.744C358.841 149.744 359.585 149.393 360.143 148.866C361.259 147.813 361.259 146.058 360.143 145.006C353.446 138.512 342.286 138.512 335.589 145.006Z" fill="#12006C"/>
<path d="M366.28 142.024C365.536 142.024 364.792 141.673 364.234 141.147C359.77 136.935 354.003 134.829 347.865 134.829C341.727 134.829 335.774 137.11 331.496 141.147C330.938 141.673 330.194 142.024 329.45 142.024C328.706 142.024 327.962 141.673 327.404 141.147C326.846 140.62 326.474 139.918 326.474 139.216C326.474 138.514 326.846 137.812 327.404 137.286C332.798 132.197 340.239 129.213 347.865 129.213C355.678 129.213 362.932 132.021 368.326 137.286C368.884 137.812 369.256 138.514 369.256 139.216C369.256 139.918 368.884 140.62 368.326 141.147C367.954 141.673 367.21 142.024 366.28 142.024ZM347.865 134.654C354.003 134.654 359.956 136.935 364.234 141.147C364.792 141.673 365.536 142.024 366.28 142.024C367.024 142.024 367.768 141.673 368.326 141.147C368.884 140.62 369.256 139.918 369.256 139.216C369.256 138.514 368.884 137.812 368.326 137.286C362.932 132.197 355.492 129.213 347.865 129.213C340.053 129.213 332.798 132.021 327.404 137.286C326.846 137.812 326.474 138.514 326.474 139.216C326.474 139.918 326.846 140.62 327.404 141.147C327.962 141.673 328.706 142.024 329.45 142.024C330.194 142.024 330.938 141.673 331.496 141.147C335.774 136.935 341.727 134.654 347.865 134.654Z" fill="#12006C"/>
<path d="M396.279 132.958H399.843L396.913 146.798H392.65C392.198 145.239 391.804 143.716 391.469 142.229C391.148 140.742 390.842 139.153 390.551 137.462H390.507C390.172 139.153 389.836 140.742 389.501 142.229C389.18 143.716 388.816 145.239 388.408 146.798H384.144L381.215 132.958H384.778C384.997 133.979 385.194 134.977 385.369 135.954C385.544 136.93 385.711 137.929 385.872 138.949C386.047 139.955 386.221 141.048 386.396 142.229H386.44C386.659 141.048 386.87 139.955 387.074 138.949C387.278 137.929 387.49 136.93 387.708 135.954C387.927 134.977 388.16 133.979 388.408 132.958H392.65C392.985 134.503 393.313 136.048 393.633 137.594C393.969 139.139 394.297 140.684 394.617 142.229H394.661C394.938 140.684 395.208 139.139 395.47 137.594C395.732 136.048 396.002 134.503 396.279 132.958Z" fill="#12006C"/>
<path d="M404.885 132.193C404.929 132.718 404.95 133.155 404.95 133.505C404.95 133.709 404.943 133.92 404.929 134.139C404.929 134.343 404.914 134.576 404.885 134.839C404.579 134.897 404.28 134.941 403.988 134.97C403.697 134.999 403.405 135.014 403.114 135.014C402.837 135.014 402.553 134.999 402.261 134.97C401.984 134.941 401.7 134.897 401.408 134.839C401.379 134.591 401.357 134.365 401.343 134.161C401.328 133.942 401.321 133.731 401.321 133.527C401.321 133.337 401.328 133.133 401.343 132.915C401.357 132.696 401.379 132.455 401.408 132.193C401.7 132.12 401.991 132.076 402.283 132.062C402.589 132.033 402.888 132.018 403.179 132.018C403.456 132.018 403.733 132.033 404.01 132.062C404.302 132.076 404.593 132.12 404.885 132.193ZM404.885 146.798H401.387V136.15H404.885V146.798Z" fill="#12006C"/>
<path d="M406.65 142.688V139.955H410.848V142.688H406.65Z" fill="#12006C"/>
<path d="M416.132 146.798H412.634V132.958H422.91V135.801H416.132V138.971H422.473V141.813H416.132V146.798Z" fill="#12006C"/>
<path d="M427.85 132.193C427.893 132.718 427.915 133.155 427.915 133.505C427.915 133.709 427.908 133.92 427.893 134.139C427.893 134.343 427.879 134.576 427.85 134.839C427.544 134.897 427.245 134.941 426.953 134.97C426.662 134.999 426.37 135.014 426.079 135.014C425.802 135.014 425.517 134.999 425.226 134.97C424.949 134.941 424.665 134.897 424.373 134.839C424.344 134.591 424.322 134.365 424.308 134.161C424.293 133.942 424.286 133.731 424.286 133.527C424.286 133.337 424.293 133.133 424.308 132.915C424.322 132.696 424.344 132.455 424.373 132.193C424.665 132.12 424.956 132.076 425.248 132.062C425.554 132.033 425.853 132.018 426.144 132.018C426.421 132.018 426.698 132.033 426.975 132.062C427.267 132.076 427.558 132.12 427.85 132.193ZM427.85 146.798H424.351V136.15H427.85V146.798Z" fill="#12006C"/>
</svg>
