<svg width="32" height="33" viewBox="0 0 32 33" fill="none" xmlns="http://www.w3.org/2000/svg">
<path d="M16 0.523438C24.5819 0.523438 31.4766 7.47973 31.4766 16.0674C31.4765 24.5863 24.5833 31.5439 16 31.5439C7.41669 31.5439 0.523514 24.5863 0.523438 16.0674C0.523438 7.47973 7.41807 0.523438 16 0.523438Z" stroke="#E33BA3" stroke-width="1.04715"/>
<path d="M20.437 10.6891C19.8992 10.6891 19.4286 11.1597 19.4286 11.6975C19.4286 12.2353 19.8992 12.6387 20.437 12.6387C20.9748 12.6387 21.3782 12.2353 21.3782 11.6975C21.3782 11.1597 20.9748 10.6891 20.437 10.6891Z" fill="#E33BA3"/>
<path d="M16.0673 11.9663C13.7816 11.9663 11.9664 13.7814 11.9664 16.0672C11.9664 18.2856 13.7816 20.168 16.0673 20.168C18.353 20.168 20.1681 18.2856 20.1681 16.0672C20.1681 13.7814 18.353 11.9663 16.0673 11.9663ZM16.0673 18.689C14.6555 18.689 13.4454 17.4789 13.4454 16.0672C13.4454 14.5882 14.6555 13.4453 16.0673 13.4453C17.5463 13.4453 18.6891 14.5882 18.6891 16.0672C18.6891 17.4789 17.5463 18.689 16.0673 18.689Z" fill="#E33BA3"/>
<path d="M19.3614 24.4034H12.7059C9.88237 24.4034 7.66388 22.1176 7.66388 19.3613V12.7059C7.66388 9.94958 9.88237 7.73108 12.7059 7.73108H19.3614C22.1177 7.73108 24.3362 9.94958 24.3362 12.7059V19.3613C24.3362 22.1176 22.1177 24.4034 19.3614 24.4034ZM12.7059 9.27731C10.7563 9.27731 9.2101 10.8235 9.2101 12.7059V19.3613C9.2101 21.3109 10.7563 22.7899 12.7059 22.7899H19.3614C21.2437 22.7899 22.7899 21.3109 22.7899 19.3613V12.7059C22.7899 10.8235 21.2437 9.27731 19.3614 9.27731H12.7059Z" fill="#E33BA3"/>
</svg>
