<svg width="24" height="24" viewBox="0 0 24 24" fill="none" xmlns="http://www.w3.org/2000/svg">
<path d="M18.3872 4.25806C17.613 4.25806 16.9355 4.93548 16.9355 5.70967C16.9355 6.48386 17.613 7.0645 18.3872 7.0645C19.1614 7.0645 19.742 6.48386 19.742 5.70967C19.742 4.93548 19.1614 4.25806 18.3872 4.25806Z" fill="#1A5394"/>
<path d="M12.0966 6.09668C8.80625 6.09668 6.19336 8.70959 6.19336 11.9999C6.19336 15.1935 8.80625 17.9031 12.0966 17.9031C15.3869 17.9031 17.9998 15.1935 17.9998 11.9999C17.9998 8.70959 15.3869 6.09668 12.0966 6.09668ZM12.0966 15.7741C10.0643 15.7741 8.32239 14.0322 8.32239 11.9999C8.32239 9.87088 10.0643 8.22569 12.0966 8.22569C14.2256 8.22569 15.8708 9.87088 15.8708 11.9999C15.8708 14.0322 14.2256 15.7741 12.0966 15.7741Z" fill="#1A5394"/>
<path d="M16.8387 24H7.25806C3.19355 24 0 20.7097 0 16.7419V7.16131C0 3.19357 3.19355 0 7.25806 0H16.8387C20.8064 0 24 3.19357 24 7.16131V16.7419C24 20.7097 20.8064 24 16.8387 24ZM7.25806 2.22582C4.45161 2.22582 2.22581 4.45163 2.22581 7.16131V16.7419C2.22581 19.5484 4.45161 21.6774 7.25806 21.6774H16.8387C19.5484 21.6774 21.7742 19.5484 21.7742 16.7419V7.16131C21.7742 4.45163 19.5484 2.22582 16.8387 2.22582H7.25806Z" fill="#1A5394"/>
</svg>
