<?xml version="1.0" encoding="UTF-8"?><svg id="Capa_2" xmlns="http://www.w3.org/2000/svg" viewBox="0 0 152.4 127.1"><defs><style>.cls-1{fill:#22b1bc;}.cls-2{fill:#0a0b0b;}</style></defs><g id="Capa_1-2"><path class="cls-1" d="M69.7,6.3c2.7,2.3,4.5,5.6,7.2,8,.3,0,2.4-4.2,2.9-4.9,8.3-12,25.6-12.5,34.9-1.6,8.3,9.6,16,21.4,23.6,31.7s13.2,14.6,14.1,25-11,25.6-24.1,24.4c-9.7-.8-12.7-5.9-18.5-12.3s-1.6-1.7-1.7-1.8c-.3-.2-.5-.2-.7-.1-.5,1.1-1.2,2.6-1.9,3.5-5.3,7.8-13.6,11.5-23,10.1-3.3-.5-7.2-2-9.8-4.1s-6-6.8-8.2-9.7c-4.2-5.6-8.3-11.4-12.5-16.9s-13.1-23.2-25-15.9c-4.6,2.8-13.9,15.2-15.5,20.4-4,12.4,10.5,21.5,19.7,12.6,3.1-3,5.2-7.2,7.9-10.4,4.4-5.1,12.2-.2,8.5,6.2s-9.4,13-13.7,15.5C17.7,95-1.8,82.1.1,63.5c.7-7.2,8.4-17.8,13-23.3,11.7-14,25.8-15.5,38.1-1.1,9,10.5,16.3,22.8,25.1,33.4,4.3,5.2,9.8,7.7,16.1,4.1,4.5-2.6,7.4-9.4,5.8-14.5s-7.8-11.6-10-14.6c-6.4-8.7-12.9-17.3-19.4-25.9-4.6-6-9.3-13.4-18.2-10.2s-5.9,6.1-9.2,8.8-10.1-.8-8.2-6.1,5.3-7.4,7.2-9c9.2-7.7,20.6-6.4,29.5,1.1ZM106.4,13.9c-5.2-4.6-14-4.2-18.1,1.7-5.3,7.7-1.3,13.5,3.3,19.8s11,14.1,16.3,21.2,11.8,17.8,16.2,20.2c11.2,6.1,22.8-7.3,15.5-18.1-7.7-11.4-17.3-23.2-25.6-34.3-1.9-2.5-5.7-8.8-7.7-10.6Z"/><path class="cls-2" d="M6.8,125.7c-.3,1.5-3.4,1.7-3.5-.3v-18.5c.5-1.5,2.2-1.9,3.3-.9,1.1,1.2,5.8,9.8,6.5,10.1s.3-.2.4-.3c.9-1.3,1.7-2.9,2.6-4.2s.4-.3.6-.5c.8-1.2,2.4-4.6,3.3-5.3s2.5-.3,3,.7v18.6c-.3,2.9-3.8,1.5-3.8.3v-11.8c-1.4,1.2-4.1,7-5.4,7.5s-1.9-.2-2.6-1.2c-1.6-2-2.6-4.9-4.4-6.8v12.6Z"/><path class="cls-2" d="M49.4,119.7v-12.8c0,0,.6-1.1.7-1.2,1-.6,2.7-.2,2.8,1.2-.5,5.7.7,12.7,0,18.3s-2.1,2.2-3.4,1.1c-2-1.7-5-6.7-6.8-9s-2.4-3-3.7-4.4v12.6c0,0-.5,1-.6,1.1-.7.7-2.8.4-2.9-.8v-18.5c0-1.7,2.2-2.1,3.3-1.1l10.6,13.7Z"/><path class="cls-2" d="M86.2,112.8c1.2,1.8,8,1.3,10,4.3s1,7.2-2.1,8.9-6.7,1.5-9.3.3-4.1-2.6-2.5-4.5,3.6.9,5.1,1.4,5,.5,6-1.5c1.6-3.4-5.4-3.8-7.1-4.5-6.6-2.4-5-11.1,1.8-11.9s9.8.7,8.7,4.3-3.3.3-4.8-.2-6.1-.9-6,2.1.2,1.1.3,1.3Z"/><path class="cls-2" d="M76.3,110.5c-.9-.4-1.6-1.1-2.8-1.3-2.1-.5-5.8-.2-5.3,2.8s9.3,1.6,11,6.2c2.7,7.6-6.6,10.7-12.2,8-1.5-.7-4-2.5-2.4-4.4s3.4.8,4.9,1.3,4.8.7,6-1.1c2.5-3.6-5.6-4.3-7.3-5-2.8-1.1-4.1-3.5-3.7-6.6.6-5.9,9.7-6.5,13.5-3.4s.8,4.6-1.7,3.4Z"/><path class="cls-2" d="M139.7,109v5.1h7.3c1.5,0,1.5,3.6,0,3.6h-7.3v5.6h8.8c0,0,.8.9.9,1.1.5,1.1-.3,2.3-1.4,2.5-1.7.3-8.9.3-10.6,0s-1.5-1-1.6-2.1c-.4-3.9-.4-12.8,0-16.8s.4-2.2,1.9-2.4,9.2-.3,10.6,0,1.8,3.4,0,3.7-.5-.2-.6-.2h-7.8Z"/><path class="cls-2" d="M109.1,105.8l7.6,18.2c.8,1.9-1.1,4-2.7,2.6s-1.5-4.3-2.3-4.5c-1.3,0-7.9-.4-8.5.4s-1,3.4-1.8,4.2c-1.4,1.3-3.3,0-2.8-1.9l7.5-18.3c.7-1.2,2-1.5,3.1-.6ZM105,118.4h5.5c-.6-2.3-1.8-4.4-2.6-6.6-.4,0-.5.3-.6.6-.5.9-1.8,4-2.1,5s-.2.7-.1,1Z"/><path class="cls-2" d="M123.1,123h8.1c0,0,1,.5,1.1.6.8.9.5,2.7-.6,3.2-3.4-.2-7.3.4-10.6,0s-1.1-.2-1.5-1v-19.1c.1-1.2,1.6-1.5,2.6-1.1s1,.9,1,1v16.4Z"/><path class="cls-2" d="M28.5,105.5c1.8-.6,2.7.7,2.8,2.4.5,5.5-.4,11.7,0,17.3-.3,2.2-3.7,2.3-4,0-.7-5.4.6-12.5,0-18.1,0-.5.7-1.4,1.2-1.6Z"/><path class="cls-2" d="M58.5,105.5c1.6-.4,2.4.6,2.6,2.1.5,5.6-.4,11.9,0,17.5-.3,2.2-3.7,2.3-4,0,.5-5.6-.6-12.3,0-17.8s.5-1.7,1.4-1.8Z"/></g></svg>