<?xml version="1.0" encoding="UTF-8"?><svg id="Capa_2" xmlns="http://www.w3.org/2000/svg" viewBox="0 0 149.5 120.8"><defs><style>.cls-1{fill:#1d1d1b;}</style></defs><g id="Capa_1-2"><path d="M46.6,0h61.4c5.4,0,10,3.6,10.9,9,.5,22.5,0,45.2.2,67.7-.3,5.3-3.5,9.4-8.7,10.6-21.3.5-42.7,0-64,.2-5.9-.4-10.1-5-10.3-10.8V10.8c.4-6.1,4.4-10.3,10.5-10.8ZM45.6,85.3c1.6.2,3.6-.1,5.3,0v-30.8c0-1.6,1.6-4.8,2.6-6,7.8-9.4,22.9-2.8,21.3,9.2s-7.4,11.2-14,10.2v-4.9c6.3,1.8,11.5-4.8,8.4-10.6s-6.8-4.8-10.2-2.6-3.4,3.3-3.4,5v30.5h54c3.2,0,7.2-4.5,7.2-7.7v-9.5h-29.2c-2.1,0-5.2-1.5-6.8-2.8-6.4-5.2-5.6-15.6,1.6-19.7s17,.5,18,9h-4.6c-.7-2-1.7-3.7-3.6-4.8-6.1-3.5-13,2.6-10.4,9.1s3.7,4.5,6.2,4.5h28.6l.2-.2V10c0-3.6-4.1-7.5-7.7-7.7h-62.7c-4.3.3-7.6,3.6-8,7.9v67.6c.3,3.6,3.7,7.2,7.2,7.6Z"/><path class="cls-1" d="M5.1,111.7v-3.9c.9,0,1.3-.3,1.3-1s-.3-.9-1-.9-1,.4-1,1.3v9.6H0v-9.2c0-1,0-1.7.3-2.3s.5-1.2,1-1.7c.5-.6,1.2-1,1.9-1.4.8-.3,1.6-.5,2.4-.5,1.5,0,2.8.5,3.8,1.5,1,1,1.5,2.3,1.5,3.7s-.5,2.6-1.4,3.5c-.8.8-2.1,1.2-3.8,1.2h-.7Z"/><path class="cls-1" d="M18.4,112.8v4.2c-.3,0-.6,0-.9,0-1.6,0-3-.5-4.1-1.6-1.1-1.1-1.6-2.4-1.6-4s.5-2.9,1.6-4c1.1-1.1,2.4-1.6,4-1.6s3.1.5,4.1,1.5c1,1,1.5,2.4,1.5,4.2v5.3h-4v-5c0-.6-.1-1-.4-1.4-.3-.3-.6-.5-1.1-.5s-.8.2-1.1.5-.5.7-.5,1.1.1.8.4,1.1.6.4,1.1.4.7,0,1-.3Z"/><path class="cls-1" d="M29.2,120.8h-4v-9c0-1.6.4-3,1.3-4,.5-.6,1.1-1.1,1.9-1.4.8-.4,1.6-.5,2.4-.5,1.6,0,3,.5,4.1,1.6,1.1,1.1,1.7,2.4,1.7,4s-.5,2.8-1.6,4c-1.1,1.1-2.4,1.7-3.9,1.7s-.6,0-1.1,0v-4.5c.3.3.7.4,1,.4s.8-.2,1.1-.5c.3-.3.4-.7.4-1.1s-.2-.8-.5-1.1-.7-.4-1.1-.4c-1,0-1.6.7-1.6,2.1v8.8Z"/><path class="cls-1" d="M48.8,112.1h-6.1c0-.3-.1-.6-.1-.9s0-.7.2-1.1h2.1c-.1-.8-.6-1.2-1.3-1.2s-.9.2-1.2.6-.5,1-.5,1.6.2,1.3.5,1.7c.3.4.7.6,1.2.6s.8-.2,1.2-.6l2.3,2.8c-1.1.8-2.3,1.3-3.6,1.3s-2.9-.5-4-1.6c-1.1-1.1-1.6-2.4-1.6-4s.5-2.9,1.6-4c1.1-1.1,2.4-1.6,4-1.6s2.9.5,3.9,1.6c1.1,1.1,1.6,2.4,1.6,3.9s0,.4,0,.8Z"/><path class="cls-1" d="M54.5,102.1v14.7h-4v-14.7h4Z"/><path class="cls-1" d="M67.5,112.1h-6.1c0-.3-.1-.6-.1-.9s0-.7.2-1.1h2.1c-.1-.8-.6-1.2-1.3-1.2s-.9.2-1.2.6-.5,1-.5,1.6.2,1.3.5,1.7c.3.4.7.6,1.2.6s.8-.2,1.2-.6l2.3,2.8c-1.1.8-2.3,1.3-3.6,1.3s-2.9-.5-4-1.6c-1.1-1.1-1.6-2.4-1.6-4s.5-2.9,1.6-4c1.1-1.1,2.4-1.6,4-1.6s2.9.5,3.9,1.6c1.1,1.1,1.6,2.4,1.6,3.9s0,.4,0,.8Z"/><path class="cls-1" d="M75.1,105.9v4.3c-.3-.2-.5-.2-.8-.2-.7,0-1.1.6-1.1,1.7v5.1h-4v-5.9c0-1.6.4-2.8,1.3-3.7.8-.9,2-1.4,3.4-1.4s.7,0,1.2.1Z"/><path class="cls-1" d="M82.2,112.8v4.2c-.3,0-.6,0-.9,0-1.6,0-3-.5-4.1-1.6-1.1-1.1-1.6-2.4-1.6-4s.5-2.9,1.6-4c1.1-1.1,2.4-1.6,4-1.6s3.1.5,4.1,1.5c1,1,1.5,2.4,1.5,4.2v5.3h-4v-5c0-.6-.1-1-.4-1.4-.3-.3-.6-.5-1.1-.5s-.8.2-1.1.5-.5.7-.5,1.1.1.8.4,1.1.6.4,1.1.4.7,0,1-.3Z"/><path class="cls-1" d="M105.1,109.6h4.6c-.3,2.5-1.1,4.3-2.5,5.6-1.3,1.3-3.1,1.9-5.3,1.9s-4-.7-5.5-2.2c-1.5-1.5-2.2-3.3-2.2-5.5s.8-4,2.3-5.5c1.5-1.5,3.4-2.2,5.6-2.2s4,.7,5.4,2.2c1,1,1.7,2.4,2.1,4.2l-4.7.3c-.5-1.6-1.5-2.4-3-2.4s-1.7.3-2.3,1-.9,1.5-.9,2.5.3,1.8.9,2.4c.6.6,1.4.9,2.3.9s1.7-.3,2.2-.8c.6-.6.9-1.3,1-2.4Z"/><path class="cls-1" d="M117.4,112.8v4.2c-.3,0-.6,0-.9,0-1.6,0-3-.5-4.1-1.6-1.1-1.1-1.6-2.4-1.6-4s.5-2.9,1.6-4c1.1-1.1,2.4-1.6,4-1.6s3.1.5,4.1,1.5c1,1,1.5,2.4,1.5,4.2v5.3h-4v-5c0-.6-.1-1-.4-1.4-.3-.3-.6-.5-1.1-.5s-.8.2-1.1.5-.5.7-.5,1.1.1.8.4,1.1.6.4,1.1.4.7,0,1-.3Z"/><path class="cls-1" d="M131.2,106.2v4.3c-.6,0-1,.1-1.2.3s-.3.6-.4,1.3c-.2,2.1-1,3.5-2.4,4.4-.8.4-1.8.7-3.2.7h-.6v-4.3h.2c.6,0,1.1-.1,1.4-.4.3-.3.4-.7.5-1.4,0-1.1.2-1.9.3-2.3.1-.4.4-.9.9-1.3.8-.8,1.9-1.2,3.3-1.2h1.2Z"/><path class="cls-1" d="M138.5,112.8v4.2c-.3,0-.6,0-.9,0-1.6,0-3-.5-4.1-1.6-1.1-1.1-1.6-2.4-1.6-4s.5-2.9,1.6-4c1.1-1.1,2.4-1.6,4-1.6s3.1.5,4.1,1.5c1,1,1.5,2.4,1.5,4.2v5.3h-4v-5c0-.6-.1-1-.4-1.4-.3-.3-.6-.5-1.1-.5s-.8.2-1.1.5-.5.7-.5,1.1.1.8.4,1.1.6.4,1.1.4.7,0,1-.3Z"/><path class="cls-1" d="M149.5,102.1v14.7h-4v-14.7h4Z"/></g></svg>