<svg width="26" height="25" viewBox="0 0 26 25" fill="none" xmlns="http://www.w3.org/2000/svg">
<path fill-rule="evenodd" clip-rule="evenodd" d="M22.8123 16.0876C21.7065 15.4241 20.3796 14.5395 19.0527 15.203C18.1681 15.6453 17.5046 17.1933 16.8412 17.8568C16.5463 18.2991 16.104 18.3728 15.5143 18.0779C11.8284 16.6036 8.95341 14.1709 6.88932 10.7799C6.44702 10.1165 6.66817 9.67414 6.88932 9.23184C7.55278 8.56838 8.4374 7.68376 8.65855 6.79915C8.65855 5.69339 8.21626 4.58764 7.77395 3.70304C7.33165 2.59727 6.66819 0.828058 5.56243 0.385754C4.67782 -0.277703 3.12976 -0.0565236 2.24515 0.828085C0.697085 2.155 -0.187523 4.14535 0.0336289 6.13572C0.0336289 6.72546 0.0336289 7.31517 0.0336289 7.90491C0.475933 9.23182 1.13936 10.3376 1.80282 11.6645C2.24512 12.5491 2.83487 13.4338 3.57204 14.3184C5.56241 16.9722 7.99509 19.4048 10.8701 21.174C12.4181 22.0586 13.9662 22.7221 15.5143 23.3856C17.2835 23.8279 18.8315 24.4914 20.8219 24.0491C22.8123 23.8279 25.0238 22.501 25.6873 20.5106C25.9084 19.8472 26.1295 19.1837 25.9084 18.7414C25.6872 17.4145 23.918 16.5299 22.8123 16.0876Z" fill="#1A5394"/>
</svg>
