<svg width="360" height="280" viewBox="0 0 360 280" fill="none" xmlns="http://www.w3.org/2000/svg">
<g clip-path="url(#clip0_37_7389)">
<rect width="360" height="280" fill="#F0F5FE"/>
<path d="M203.975 200.367L175.061 140.338C173.415 136.926 171.772 133.506 170.125 130.095C164.197 134.185 157.348 138.316 151.416 142.415C156.35 167.781 166.488 191.915 183.23 211.6C190.184 207.838 197.582 205.03 203.978 200.373L203.975 200.367Z" fill="#E33BA3"/>
<path d="M67.3017 266.267L36.0429 207.312C34.2579 203.964 32.4875 200.602 30.7024 197.254C50.4444 189.289 72.3038 179.932 92.0458 171.967C121.486 185.832 137.378 207.268 131.456 237.611C109.946 247.225 88.9869 257.724 67.3017 266.267Z" fill="#E33BA3"/>
<path d="M196.614 202.593C184.808 176.37 172.963 149.742 161.157 123.519C155.203 130.777 146.505 135.14 138.014 139.154C129.523 143.168 120.742 147.21 114.324 154.073C107.913 160.933 104.41 171.446 108.453 179.923C108.651 180.341 108.876 181.248 109.08 181.662L131.969 229.179C153.255 218.927 174.011 209.474 196.614 202.593Z" fill="#E4E5ED"/>
<path d="M70.8867 263.15C57.7452 237.574 44.3033 211.711 31.1532 186.132C40.5448 185.998 49.3737 181.921 57.8083 177.784C66.243 173.648 74.8746 169.294 84.238 168.559C93.5986 167.817 104.003 171.639 108.111 180.087C108.315 180.502 108.881 181.245 109.085 181.66L131.974 229.177C110.688 239.429 90.3587 249.767 70.8894 263.155L70.8867 263.15Z" fill="#C1C4ED"/>
<path d="M35.7001 178.608C47.7846 201.675 59.8633 224.744 71.9479 247.811C80.9178 241.219 90.4462 236.095 100.893 232.251C111.34 228.408 122.988 227.05 133.653 230.223C122.358 214.109 113.755 196.72 107.36 178.108C103.344 166.42 87.626 162.913 75.5311 165.485C68.5174 166.973 62.2947 170.853 55.8581 174.018C49.4215 177.184 42.7123 180.093 35.7001 178.608Z" fill="#E4E5ED"/>
<path d="M43.1557 170.698C53.0497 191.725 62.5845 212.923 71.7522 234.275C74.138 231.715 76.7969 231.324 79.1828 228.763C83.919 223.672 88.8201 218.463 95.109 215.5C101.725 212.386 109.603 212.077 116.442 214.664C123.281 217.251 131.428 227.768 134.325 234.483C126.791 218.504 114.885 194.099 107.351 178.12C103.498 169.95 101.011 164.1 92.6334 160.713C84.5423 157.442 75.3521 160.329 67.3428 163.791C59.3276 167.256 51.8321 171.562 43.144 170.704L43.1557 170.698Z" fill="#F5F6FF"/>
<path d="M149.047 121.664C158.213 146.342 168.609 170.563 180.185 194.201C169.809 194.899 158.595 199.087 150.708 205.867C142.823 212.654 137.221 222.038 134.979 232.192C125.669 212.642 116.27 193.93 106.966 174.377C102.985 166.02 107.094 156.027 112.058 148.213C119.993 135.72 139.312 132.813 149.039 121.661L149.047 121.664Z" fill="#F5F6FF"/>
<path d="M298.137 66.4464C296.996 63.2735 296.272 61.0774 295.26 59.3963C266.429 89.3899 227.689 109.623 198.859 139.6C204.358 152.781 211.516 170.619 217.024 183.808C244.071 193.864 277.299 183.406 293.716 159.665C310.124 135.932 308.02 100.341 289.058 78.5901C292.429 73.686 295.071 70.9933 298.146 66.4385L298.137 66.4464ZM280.717 130.488C277.747 141.89 270.038 151.712 260.476 158.584C250.914 165.455 239.589 169.563 228.062 171.961C224.779 167.806 222.458 163.736 219.175 159.581C238.477 140.737 256.226 120.31 272.203 98.5796C279.906 107.495 283.679 119.093 280.717 130.488Z" fill="#E33BA3"/>
<path d="M295.26 59.3968C290.351 54.1679 282.842 47.49 277.933 42.2611C249.102 72.2547 223.689 104.197 194.858 134.191C200.357 147.371 207.515 165.209 213.023 178.398C240.07 188.455 273.298 177.996 289.715 154.256C306.123 130.523 304.019 94.9319 285.057 73.1807C288.428 68.2766 292.21 63.9609 295.284 59.4062L295.26 59.3968ZM276.709 125.07C273.739 136.472 266.029 146.294 256.467 153.166C246.905 160.037 235.58 164.145 224.053 166.543C220.77 162.388 218.449 158.318 215.166 154.163C234.468 135.319 252.217 114.892 268.195 93.1616C275.889 102.068 279.67 113.675 276.709 125.07Z" fill="#0274B9"/>
<path d="M275.839 63.8323C273.022 60.6563 268.376 57.239 265.552 54.0544" stroke="#FEFEFE" stroke-width="2.29316" stroke-miterlimit="10" stroke-linecap="round"/>
<path d="M263.633 75.9388C259.984 72.3859 256.378 69.5037 252.973 66.9114" stroke="#FEFEFE" stroke-width="2.29316" stroke-miterlimit="10" stroke-linecap="round"/>
<path d="M250.493 91.2955C246.728 88.1005 242.905 85.2578 239.467 82.1274" stroke="#FEFEFE" stroke-width="2.29316" stroke-miterlimit="10" stroke-linecap="round"/>
<path d="M237.338 106.429C234.132 103.813 229.838 99.38 226.633 96.7639" stroke="#FEFEFE" stroke-width="2.29316" stroke-miterlimit="10" stroke-linecap="round"/>
<path d="M225.827 118.675C223.01 115.499 218.364 112.082 215.54 108.897" stroke="#FEFEFE" stroke-width="2.29316" stroke-miterlimit="10" stroke-linecap="round"/>
<path d="M215.532 129.624C211.882 126.071 208.276 123.188 204.871 120.596" stroke="#FEFEFE" stroke-width="2.29316" stroke-miterlimit="10" stroke-linecap="round"/>
<path d="M202.4 144.973C198.635 141.778 194.812 138.935 191.375 135.805" stroke="#FEFEFE" stroke-width="2.29316" stroke-miterlimit="10" stroke-linecap="round"/>
<path d="M189.253 160.115C186.047 157.499 181.753 153.066 178.547 150.45" stroke="#FEFEFE" stroke-width="2.29316" stroke-miterlimit="10" stroke-linecap="round"/>
<path d="M160.376 32.8322C162.151 32.3834 163.833 31.5985 165.35 30.5668C163.004 28.8252 160.457 27.3675 157.716 26.308C157.575 26.2903 157.457 26.2754 157.374 26.3933C155.678 28.3754 154.266 30.5589 153.101 32.8715C155.491 33.4196 158.001 33.4322 160.376 32.8322Z" fill="#E33BA3"/>
<path d="M186.06 64.6363C183.391 56.8665 180.487 49.0976 176.02 42.1962C173.151 37.7648 169.573 33.697 165.343 30.5656C163.833 31.5983 162.15 32.3906 160.368 32.831C157.994 33.4236 155.484 33.4184 153.094 32.8704C150.584 37.8575 149.233 43.4723 148.781 49.0641C148.118 57.2536 149.246 65.4713 150.576 73.5786C151.234 77.5975 151.954 81.6015 152.72 85.6037C164.638 81.0631 176.887 77.3708 189.339 74.5863C188.285 71.2569 187.193 67.9378 186.053 64.6353L186.06 64.6363Z" fill="#0274B9"/>
<path d="M154.167 57.3623C158.018 82.1344 163.177 106.701 169.616 130.922" stroke="white" stroke-width="1.23891" stroke-linecap="round" stroke-linejoin="round"/>
<path d="M206.204 135.089C202.869 113.119 197.546 91.4883 190.817 70.3074C176.759 73.4564 162.927 77.6216 149.465 82.7531C153.539 103.933 158.997 124.85 166.257 145.162C172.44 143.84 178.967 143.45 185.189 142.239L185.204 142.301L186.357 142.008L187.026 141.843L188.179 141.55L188.164 141.487C194.221 139.606 200.146 136.857 206.219 135.091L206.204 135.089Z" fill="#E33BA3"/>
<path d="M161.615 90.8726C164.269 104.063 168.201 116.99 173.334 129.419" stroke="white" stroke-width="3.72319" stroke-linecap="round" stroke-linejoin="round"/>
<path d="M95.6114 63.0647C90.4783 63.0797 85.3751 62.7504 80.2495 62.6157C80.025 63.0497 79.7631 63.4613 79.4638 63.8504C78.6407 64.8905 77.5557 65.6911 76.3435 66.2224C76.4183 71.7521 76.4857 77.2892 76.5605 82.8189C97.6766 104.534 118.636 127.573 139.752 149.28L152.869 121.445C133.713 102.064 114.775 82.4373 95.6189 63.0572L95.6114 63.0647Z" fill="#F0F5FE"/>
<path d="M79.4641 63.8507C79.7709 63.4691 80.0253 63.0501 80.2498 62.6161C78.9328 62.5862 77.6084 62.5637 76.2914 62.5637C76.3064 63.7834 76.3214 65.0031 76.3363 66.2228C77.5485 65.6915 78.641 64.8908 79.4566 63.8507H79.4641Z" fill="#243268"/>
<path d="M151.717 139.657C129.373 118.736 107.038 97.8215 84.6943 76.8999C79.1272 76.8999 76.5157 79.5637 76.5831 82.8337C93.9728 103.172 127.809 138.692 153.714 165.008C153.37 156.68 152.061 147.993 151.709 139.665L151.717 139.657Z" fill="#0274B9"/>
<path d="M166.645 146.676C141.959 121.669 115.688 94.8808 91.0022 69.8737C91.5035 66.6786 92.7531 65.1147 95.6115 63.0645C122.422 86.3056 143.366 104.698 180.405 138.176C176.103 142.134 172.399 147.716 166.645 146.676Z" fill="#F0F5FE"/>
<path d="M84.6944 76.9003C83.3475 73.3161 87.4106 69.874 91.0098 69.874C122.669 95.4423 151.17 125.051 179.59 152.7C176.02 155.132 169.825 157.219 165.522 156.845C135.502 135.056 109.253 104.706 84.6944 76.9003Z" fill="#0274B9"/>
<path d="M249.967 229.444C282.474 196.937 282.474 144.232 249.967 111.725C217.46 79.2181 164.755 79.2181 132.248 111.725C99.7407 144.232 99.7407 196.937 132.248 229.444C164.755 261.951 217.46 261.951 249.967 229.444Z" fill="#3BE3BC"/>
<path d="M116.091 176.216C116.004 175.527 115.787 175.812 115.725 175.713C115.961 176.855 116.153 176.172 116.091 176.216Z" fill="#F0F5FE"/>
<path d="M118.892 187.3L118.736 187.132L119.394 188.697L118.892 187.3Z" fill="#F0F5FE"/>
<path d="M121.897 197.534C121.946 196.981 121.624 196.075 121.232 195.069C120.854 194.063 120.431 192.945 120.233 192.014L120.245 191.685L119.674 190.958C119.99 192.07 120.469 193.318 120.872 194.491C121.294 195.659 121.704 196.745 121.897 197.54V197.534Z" fill="#F0F5FE"/>
<path d="M123.064 203.228C123.089 202.83 123.673 204.327 122.605 201.961C122.63 202.091 122.642 202.129 122.655 202.203C122.748 202.42 122.866 202.718 123.064 203.228Z" fill="#F0F5FE"/>
<path d="M122.661 202.203C122.81 202.948 122.214 201.154 122.661 202.203Z" fill="#F0F5FE"/>
<path d="M124.909 206.972C124.629 206.55 124.368 206.115 124.12 205.68C124.139 205.842 124.281 206.239 124.393 206.531C124.511 206.823 124.586 207.022 124.437 206.817C125.219 208.164 125.163 207.829 124.915 206.972H124.909Z" fill="#F0F5FE"/>
<path d="M125.846 208.096L125.436 207.432C125.461 207.574 125.542 207.761 125.846 208.096Z" fill="#F0F5FE"/>
<path d="M124.573 206.016C124.84 206.5 125.151 206.96 125.436 207.432C125.399 207.202 125.517 207.121 125.045 206.78C125.231 206.842 124.952 206.612 124.573 206.016Z" fill="#F0F5FE"/>
<path d="M124.244 205.134C123.983 204.327 123.592 203.321 124.35 204.619C123.716 203.334 123.418 202.8 123.387 202.93C123.375 202.992 123.425 203.222 123.561 203.594C123.704 203.967 123.934 204.482 124.244 205.128V205.134Z" fill="#F0F5FE"/>
<path d="M122.512 197.894C122.418 197.534 122.35 197.167 122.276 196.807L121.829 195.95C122.052 196.379 122.387 198.012 122.512 197.894Z" fill="#F0F5FE"/>
<path d="M129.621 215.2C129.752 215.219 129.516 214.635 129.541 214.473C129.292 214.188 129.019 213.921 128.796 213.616C129.056 214.138 129.696 215.045 129.621 215.2Z" fill="#F0F5FE"/>
<path d="M129.541 214.467L130.677 215.722C129.789 214.505 129.566 214.331 129.541 214.467Z" fill="#F0F5FE"/>
<path d="M126.399 208.109C125.896 207.357 125.362 206.612 124.877 205.836C125.443 206.761 126.057 207.662 126.641 208.568L126.399 208.109Z" fill="#F0F5FE"/>
<path d="M133.95 220.068L133.111 219.547C133.602 219.87 134.068 220.211 134.564 220.503C134.347 220.373 134.148 220.218 133.944 220.068H133.95Z" fill="#F0F5FE"/>
<path d="M137.185 222.85C136.521 222.552 137.75 223.689 137.098 223.31C138.029 224.005 138.893 224.508 139.706 224.893C138.886 224.427 138.116 223.769 137.185 222.844V222.85Z" fill="#F0F5FE"/>
<path d="M141.029 225.595C140.625 225.359 140.184 225.135 139.706 224.893C140.135 225.148 140.569 225.39 141.029 225.595Z" fill="#F0F5FE"/>
<path d="M132.528 217.945C132.577 218.081 132.646 218.354 133.273 219.069L132.993 218.417C132.851 218.274 132.689 218.112 132.528 217.945Z" fill="#F0F5FE"/>
<path d="M132.981 218.392L132.993 218.417C133.496 218.926 133.844 219.28 133.993 219.435C133.863 219.305 133.558 218.994 132.981 218.398V218.392Z" fill="#F0F5FE"/>
<path d="M132.416 217.821C132.453 217.87 132.484 217.901 132.528 217.951C132.503 217.883 132.484 217.852 132.416 217.821Z" fill="#F0F5FE"/>
<path d="M128.374 211.978C129.032 212.723 130.267 214.319 129.386 212.555C128.852 212.071 129.361 213.089 128.374 211.978Z" fill="#F0F5FE"/>
<path d="M132.118 216.976C131.745 216.51 131.36 216.057 131.006 215.585C130.969 215.653 131.087 215.976 130.733 215.635C131.168 216.107 131.658 216.535 132.118 216.982V216.976Z" fill="#F0F5FE"/>
<path d="M132.757 217.572L132.118 216.976L132.54 217.485L132.757 217.572Z" fill="#F0F5FE"/>
<path d="M138.725 223.608C139.389 223.999 140.085 224.446 140.855 224.992C140.066 224.359 139.228 223.751 138.464 223.117C138.303 223.099 137.868 222.943 138.725 223.608Z" fill="#F0F5FE"/>
<path d="M135.862 221.161C135.906 221.192 135.962 221.236 135.999 221.261C135.937 221.174 135.875 221.112 135.862 221.161Z" fill="#F0F5FE"/>
<path d="M148.679 229.855C148.642 229.818 148.61 229.78 148.573 229.743C148.555 229.749 148.542 229.762 148.524 229.768L148.679 229.861V229.855Z" fill="#F0F5FE"/>
<path d="M138.365 222.974C137.8 222.465 137.408 222.235 137.017 222.03C137.477 222.366 137.961 222.72 138.464 223.123C138.539 223.129 138.563 223.123 138.365 222.98V222.974Z" fill="#F0F5FE"/>
<path d="M143.246 226.93C142.948 226.669 142.6 226.384 142.227 226.092C142.5 226.371 143.09 226.911 143.246 226.93Z" fill="#F0F5FE"/>
<path d="M136.148 221.49C136.117 221.466 136.086 221.447 136.055 221.422C136.204 221.633 136.198 221.59 136.148 221.49Z" fill="#F0F5FE"/>
<path d="M136.148 221.49C136.471 221.72 136.738 221.881 137.017 222.024C136.645 221.751 136.309 221.478 136.005 221.26C136.061 221.335 136.117 221.422 136.148 221.484V221.49Z" fill="#F0F5FE"/>
<path d="M151.92 229.644C151.809 229.724 151.287 229.594 150.629 229.314C149.971 229.029 149.188 228.569 148.511 228.054C146.971 227.414 147.505 228.631 148.574 229.743C148.673 229.668 148.716 229.6 150.3 230.283C149.822 229.892 147.108 228.166 148.487 228.681C150.53 229.668 150.07 229.662 150.989 230.277C150.3 229.575 153.759 231.196 153.516 230.556L151.685 229.805C151.685 229.724 152.374 229.954 151.914 229.644H151.92Z" fill="#F0F5FE"/>
<path d="M145.729 228.072L145.102 227.731C145.779 228.184 146.22 228.575 147.052 229.283C148.151 229.755 148.412 229.792 148.518 229.761L146.996 228.898L145.5 227.979L145.729 228.072Z" fill="#F0F5FE"/>
<path d="M142.407 226.011C143.022 226.098 144.512 226.93 143.792 226.117C142.047 224.986 142.438 225.527 141.358 224.893C144.183 226.738 140.457 224.496 142.401 225.974C141.817 225.657 141.32 225.316 140.855 224.993C141.333 225.378 141.786 225.756 142.227 226.092C142.202 226.067 142.19 226.055 142.171 226.036H142.159V226.023C142.053 225.918 142.028 225.874 142.159 225.98C142.171 225.98 142.202 226.005 142.221 226.011C142.258 225.992 142.333 225.999 142.407 226.011C143.196 226.595 142.5 226.154 142.221 226.011C142.202 226.011 142.177 226.011 142.165 226.023V226.036C143.152 226.601 144.102 227.216 145.108 227.737C144.506 227.352 143.755 226.862 142.407 226.011Z" fill="#F0F5FE"/>
<path d="M130.882 213.691C130.926 213.79 130.907 213.796 130.895 213.815C131.049 213.97 131.118 214.019 130.882 213.691Z" fill="#F0F5FE"/>
<path d="M131.571 214.889C131.397 214.715 131.193 214.622 130.739 213.97C130.391 213.374 130.845 213.896 130.894 213.815C130.553 213.48 129.739 212.586 130.528 213.865L130.702 214.032C131.397 215.194 132.323 216.721 132.136 216.566C132.062 216.1 131.938 215.74 131.571 214.889Z" fill="#F0F5FE"/>
<path d="M136.676 220.851C137.39 221.453 138.172 221.968 138.93 222.521L137.961 221.459L137.93 221.614C136.732 220.571 136.905 220.894 136.682 220.851H136.676Z" fill="#F0F5FE"/>
<path d="M148.896 230.128L148.431 230.196C148.971 230.339 149.505 230.495 150.051 230.625C149.66 230.476 149.281 230.296 148.896 230.128Z" fill="#F0F5FE"/>
<path d="M152.15 231.786L151.92 231.941C152.231 232.04 152.535 232.152 152.852 232.239C152.616 232.096 152.386 231.935 152.15 231.786Z" fill="#F0F5FE"/>
<path d="M248.356 126.377L247.859 125.744C248.082 126.048 248.238 126.241 248.356 126.377Z" fill="#F0F5FE"/>
<path d="M251.361 131.326L251.54 131.388C251.348 131.19 251.249 131.122 251.361 131.326Z" fill="#F0F5FE"/>
<path d="M237.501 230.059C238.594 229.494 239.892 228.923 239.6 228.805L239.134 228.83C238.495 229.389 237.967 229.767 237.495 230.065L237.501 230.059Z" fill="#F0F5FE"/>
<path d="M263.693 176.874C263.662 176.986 263.631 177.098 263.6 177.216C263.687 177.507 263.737 177.781 263.799 178.029C263.787 177.681 263.749 177.29 263.7 176.874H263.693Z" fill="#F0F5FE"/>
<path d="M262.613 175.986L262.849 174.453C262.774 174.794 262.694 175.291 262.613 175.986Z" fill="#F0F5FE"/>
<path d="M226.274 104.327L225.355 104.06C226.56 104.837 226.107 104.377 226.274 104.327Z" fill="#F0F5FE"/>
<path d="M187.719 242.646C188.743 242.876 189.569 242.963 190.289 243.043C189.048 242.783 188.066 242.478 187.719 242.646Z" fill="#F0F5FE"/>
<path d="M252.026 126.794C251.734 126.384 251.548 126.241 251.51 126.285C251.839 126.688 252.019 126.924 252.026 126.794Z" fill="#F0F5FE"/>
<path d="M193.295 243.224C193.109 243.193 192.935 243.168 192.748 243.137C191.985 243.15 191.215 243.156 190.289 243.044C191.202 243.255 192.264 243.361 193.295 243.224Z" fill="#F0F5FE"/>
<path d="M126.28 133.922C126.225 133.984 126.169 134.065 126.119 134.121C126.138 134.158 126.2 134.065 126.28 133.922Z" fill="#F0F5FE"/>
<path d="M115.551 165.635C115.532 165.293 115.507 164.741 115.52 164.219C115.489 164.474 115.495 164.902 115.551 165.635Z" fill="#F0F5FE"/>
<path d="M165.618 237.579C165.494 237.567 164.887 237.338 165.618 237.579Z" fill="#F0F5FE"/>
<path d="M162.477 235.288C162.638 235.319 162.768 235.325 162.811 235.276C162.731 235.313 162.613 235.313 162.477 235.288Z" fill="#F0F5FE"/>
<path d="M200.958 241.51C200.958 241.51 200.995 241.51 201.026 241.51C200.796 241.467 200.833 241.473 200.958 241.51Z" fill="#F0F5FE"/>
<path d="M164.563 237.077C164.824 237.201 165.128 237.344 165.47 237.48C165.327 237.406 165.054 237.282 164.563 237.077Z" fill="#F0F5FE"/>
<path d="M164.669 237.25C164.42 237.151 164.228 237.07 164.041 236.996C163.936 236.996 164.004 237.064 164.669 237.25Z" fill="#F0F5FE"/>
<path d="M166.643 237.927C166.227 237.784 165.842 237.635 165.47 237.486C165.606 237.555 165.662 237.592 165.619 237.586C165.836 237.66 166.134 237.76 166.637 237.927H166.643Z" fill="#F0F5FE"/>
<path d="M175.38 98.7205C175.33 98.7267 175.275 98.7391 175.219 98.7453C174.529 99.0868 174.84 98.9626 175.38 98.7205Z" fill="#F0F5FE"/>
<path d="M249.337 213.914C249.318 213.945 249.312 213.964 249.299 213.995C249.324 213.97 249.349 213.933 249.368 213.908H249.337V213.914Z" fill="#F0F5FE"/>
<path d="M250.697 211.593C250.324 212.716 249.914 213.238 249.362 213.909L250.504 213.623L250.697 211.593Z" fill="#F0F5FE"/>
<path d="M239.836 115.498C240.215 116.007 240.563 116.535 240.917 117.063C240.029 116.33 239.308 115.678 238.942 115.374C238.576 115.07 238.563 115.126 239.035 115.883C239.234 115.79 239.656 116.063 240.165 116.541C240.668 117.026 241.283 117.709 241.885 118.386C242.469 119.087 243.053 119.789 243.543 120.292C244.028 120.807 244.4 121.136 244.611 121.056L245.226 122.155C245.015 121.869 244.94 121.851 244.735 121.565C245.313 122.645 245.686 122.919 246.151 123.248C246.598 123.583 247.188 123.937 247.989 125.291C248.536 126.241 248.846 126.942 248.356 126.377C248.846 127.023 249.374 127.644 249.84 128.309C250.188 128.93 249.97 128.855 249.629 128.24L251.566 131.401L251.529 131.389C251.895 131.786 252.634 132.755 252.988 133.233C253.323 134.127 252.684 132.854 252.709 133.121L253.851 134.847C253.926 135.276 253.752 135.12 253.454 134.717C253.149 134.313 252.746 133.643 252.429 133.009C252.504 134.052 252.752 134.4 253.162 134.978C253.559 135.561 254.1 136.393 254.758 138.362L253.833 136.66C253.882 137.325 254.106 137.977 254.404 138.722C254.677 139.473 254.994 140.343 255.279 141.398C255.242 140.871 254.267 137.089 255.335 139.045C255.522 139.647 255.807 140.423 256.434 141.467C256.298 141.529 256.36 141.821 256.528 142.268C256.683 142.721 256.925 143.33 257.186 144.019L256.776 144.062C257.422 145.503 257.577 145.317 258.061 146.143C258.552 147.844 258.372 148.285 258.248 148.751C259.03 151.458 258.136 146.745 259.21 149.918C259.434 151.079 259.694 152.042 260.011 153.054C260.353 154.06 260.632 155.14 261.061 156.494C261.272 158.133 260.762 156.258 260.775 156.86C260.986 157.314 261.191 157.773 261.365 158.233C261.414 158.587 261.303 158.487 261.241 158.444C261.564 159.636 261.65 158.475 262.066 160.375C262.327 160.599 262.346 161.611 262.315 162.859C262.296 164.101 262.352 165.56 262.644 166.746C262.569 167.342 262.383 166.479 262.24 166.672C262.501 168.305 262.613 169 262.718 169.627C262.799 170.254 262.892 170.813 263.128 172.167C263.054 172.937 262.979 173.707 262.843 174.471C263.209 172.782 263.476 174.949 263.687 176.886C263.855 176.284 264.004 175.769 264.078 175.421C264.097 176.445 264.165 177.482 264.116 178.507C264.016 178.873 263.911 178.55 263.793 178.041C263.811 178.252 263.824 178.451 263.836 178.606C263.588 179.687 263.414 179.097 263.265 178.302C263.371 177.936 263.507 177.576 263.594 177.222C263.383 176.452 263.147 175.738 262.905 175.887C262.942 176.085 262.967 176.464 262.973 176.886C262.917 176.688 262.861 176.557 262.818 176.644C262.768 176.744 262.849 177.066 262.923 177.569L262.414 178.221L262.576 178.401L262.253 180.351L262.091 181.326C262.029 181.649 261.949 181.972 261.88 182.289C261.88 183.003 261.905 183.692 261.93 184.406C261.936 184.76 261.949 185.12 261.955 185.493C261.942 185.859 261.924 186.232 261.911 186.623C261.874 187.399 261.812 188.231 261.719 189.144C261.613 190.057 261.39 191.044 261.147 192.156C261.129 190.982 260.7 191.783 260.346 191.616C260.7 191.075 260.899 190.225 261.067 189.231C261.191 188.225 261.303 187.083 261.582 185.952C261.29 187.132 261.166 186.834 261.166 186.517C260.992 187.884 260.88 189.274 260.601 190.634C260.322 190.467 260.142 191.423 259.738 192.429C259.943 192.274 260.017 192.392 260.011 192.677C260.011 192.969 259.918 193.423 259.763 193.944C259.465 194.994 259.024 196.322 258.831 197.154C258.608 197.186 258.539 196.726 259.235 194.795C258.645 195.795 258.614 196.552 258.527 197.297C258.434 198.042 258.353 198.794 257.757 199.756C257.937 199.284 258.068 199.042 258.043 198.819C257.906 199.396 257.558 200.352 257.204 201.054C256.838 201.75 256.534 202.215 256.596 201.868L256.801 201.408C256.434 202.159 255.981 203.11 255.509 204.122C255.006 205.121 254.447 206.158 253.969 207.146C253.851 207.394 253.733 207.636 253.615 207.866C253.491 208.096 253.373 208.319 253.255 208.531C253.025 208.959 252.827 209.35 252.659 209.698C252.33 210.393 252.144 210.89 252.187 211.07C252.112 211.064 251.877 210.35 251.895 210.126C251.759 210.623 251.641 211.139 251.479 211.629L250.995 213.107L250.498 214.604L250.243 215.355L249.952 216.088C249.902 215.392 247.834 216.355 249.281 213.989C248.79 214.616 248.095 215.305 247.201 216.733C247.579 216.348 248.548 216.075 248.126 216.684C247.294 217.33 247.033 217.572 246.729 217.851C246.412 218.124 246.058 218.447 245.071 219.242C245.679 218.696 245.617 219.844 244.742 220.801C244.798 220.577 244.158 220.403 244.413 220L244.009 220.714L243.574 221.403L242.693 222.788C243.171 222.13 242.37 222.272 241.736 222.633C241.891 222.558 241.432 223.067 240.799 223.62C240.165 224.166 239.42 224.806 239.128 225.11L240.246 224.334C238.861 225.483 238.383 226.29 237.824 227.017C237.278 227.749 236.756 228.55 235.284 229.606C235.564 229.24 235.645 228.283 234.098 229.24C233.856 229.618 233.341 230.494 232.552 231.543C231.733 232.543 230.609 233.679 229.267 234.623L228.615 234.723L226.492 236.058C226.783 235.76 227.212 235.35 227.715 234.884C227.97 234.654 228.237 234.406 228.522 234.151C228.665 234.027 228.808 233.897 228.951 233.766C229.093 233.624 229.23 233.481 229.373 233.338C229.944 232.76 230.534 232.183 231.081 231.649C231.36 231.388 231.627 231.134 231.875 230.891C232.118 230.643 232.347 230.407 232.552 230.19C231.354 230.811 232.13 230.227 230.416 231.27C229.708 231.463 231.211 230.481 231.689 230.146C231.031 230.55 230.342 230.904 229.671 231.289C228.988 231.649 228.336 232.071 227.634 232.388C228.019 232.661 224.654 234.363 224.958 234.598L227.131 233.257L228.212 232.593C228.566 232.357 228.907 232.102 229.249 231.854C229.342 231.916 229.274 232.108 229.062 232.382C228.851 232.655 228.51 233.027 228.032 233.388C227.56 233.76 226.976 234.164 226.324 234.574C225.995 234.779 225.653 234.983 225.293 235.176C224.933 235.368 224.542 235.524 224.157 235.685C223.306 235.871 224.442 234.754 224.318 234.654C223.983 234.952 221.536 236.169 221.195 236.138C221.611 235.902 222.027 235.679 222.424 235.418C221.549 235.716 220.884 236.07 220.176 236.461C219.816 236.648 219.45 236.846 219.028 237.002C218.599 237.144 218.121 237.269 217.562 237.337C217.19 237.442 216.606 237.486 216.109 237.536C215.606 237.567 215.19 237.604 215.159 237.741C216.488 237.883 217.159 239.212 216.432 239.79C216.295 239.808 215.258 239.957 214.147 240.119C213.035 240.268 211.837 240.324 211.377 240.311C210.055 240.212 213.073 239.038 211.936 238.951C211.918 239.069 211.259 239.355 210.98 239.467C210.167 239.529 211.241 239.082 209.527 239.442C209.31 239.908 205.987 240.001 208.769 239.933C207.087 240.349 206.944 240.144 204.938 240.404C205.273 240.504 204.851 240.789 204.118 241.094C203.386 241.367 202.342 241.64 201.467 241.771C201.56 241.653 201.163 241.547 200.97 241.497C199.182 241.535 197.809 241.559 196.468 241.473C195.798 241.441 195.133 241.41 194.431 241.379C193.73 241.33 192.991 241.28 192.159 241.243C191.854 241.143 190.271 240.883 190.966 240.758C190.488 240.796 190.041 240.901 189.017 240.82C187.085 240.286 191.289 240.957 189.83 240.392C189.756 240.504 189.091 240.541 188.265 240.535C187.439 240.504 186.446 240.448 185.713 240.429C185.912 240.647 186.744 240.765 187.713 240.839C188.681 240.926 189.787 240.864 190.513 240.864C190.495 241.125 189.842 241.342 188.75 241.479C188.203 241.559 187.545 241.566 186.806 241.572C186.067 241.572 185.235 241.572 184.366 241.479C181.584 241.156 183.229 240.951 182.732 240.945C181.441 240.721 180.528 240.541 179.789 240.479C179.056 240.417 178.51 240.404 178.001 240.373C176.982 240.311 176.045 240.299 174.002 239.523C172.425 238.746 174.107 238.864 173.803 238.529C176.007 239.02 177.107 239.603 178.609 239.957L176.809 239.361C177.535 239.417 179.013 239.715 179.802 239.945C179.466 239.808 178.758 239.616 177.839 239.361C176.92 239.113 175.772 238.846 174.561 238.492C172.133 237.834 169.425 236.952 167.569 236.188C166.861 236.058 165.662 235.76 166.165 236.076L167.382 236.455C168.401 237.101 164.998 236.014 166.482 236.666C164.805 236.287 162.887 235.902 160.701 234.853L160.421 234.331C160.421 234.449 161.794 235.145 162.477 235.269C161.974 235.176 161.16 234.71 160.328 234.269C159.496 233.835 158.639 233.437 158.037 233.431C158.515 233.742 158.999 234.046 159.49 234.331C157.826 233.847 155.696 233.363 153.808 232.313C154.535 233.071 154.274 232.487 155.472 233.543C154.982 233.021 156.236 233.592 157.403 234.102C158.565 234.63 159.664 235.052 158.788 234.394C160.043 235.455 161.21 235.635 162.98 236.759C162.967 236.617 162.384 236.275 164.054 236.977C164.141 236.977 164.34 236.995 164.464 237.008C164.513 237.033 164.532 237.039 164.576 237.057C164.545 237.039 164.52 237.026 164.489 237.008C164.569 237.014 164.576 237.014 164.458 236.989C164.073 236.797 163.768 236.604 163.663 236.486C164.128 236.517 165.041 236.766 165.954 237.026C166.867 237.3 167.78 237.573 168.264 237.641C169.258 238.026 167.792 237.641 168.308 237.945L169.754 238.181C169.798 238.504 172.338 239.448 169.872 238.877L172.046 239.541C172.661 239.815 173.418 240.075 174.157 240.299C174.896 240.522 175.616 240.709 176.194 240.777C177.231 241.087 178.914 241.112 177.951 241.106C179.125 241.336 180.317 241.479 181.497 241.671L181.515 241.746C185.005 242.416 188.756 242.398 192.761 243.093C193.357 243.087 193.966 243.075 194.674 243.081C195.381 243.062 196.189 243.068 197.182 243.112L197.573 243.354C198.337 243.311 199.492 243.311 200.542 243.317C201.585 243.317 202.523 243.23 202.839 243.093C203.268 243.217 203.951 243.279 204.77 243.224C205.59 243.168 206.559 243.05 207.552 242.913C208.54 242.727 209.558 242.528 210.496 242.348C211.427 242.149 212.278 241.938 212.948 241.833L212.98 241.504C213.899 241.336 214.768 241.056 215.699 240.783C216.159 240.64 216.643 240.504 217.134 240.324C217.624 240.137 218.133 239.945 218.674 239.746L218.456 239.523C220.282 238.753 223.337 238.026 226.194 236.691C226.057 236.902 225.299 237.175 224.759 237.343C225.219 237.225 225.684 237.095 226.131 236.915C226.572 236.728 227.013 236.517 227.448 236.294C228.311 235.84 229.18 235.368 229.988 234.828C231.59 233.71 233.155 232.667 234.657 231.848C235.303 231.283 235.825 230.966 236.359 230.686C236.297 230.73 236.241 230.773 236.191 230.817C236.266 230.767 236.371 230.699 236.483 230.624C236.818 230.444 237.147 230.239 237.507 230.022C237.185 230.19 236.887 230.351 236.638 230.513C237.147 230.103 237.911 229.463 238.631 228.811L239.147 228.786C239.209 228.737 239.259 228.693 239.321 228.637C240.147 228.128 239.836 228.054 239.29 228.196C239.65 227.867 239.942 227.519 240.153 227.234C241.047 227.079 241.947 225.433 243.071 225.092C243.363 224.446 246.393 221.502 246.282 220.714C246.356 220.732 246.567 220.546 246.226 220.937C246.977 220.167 247.753 219.416 248.25 218.571L248.828 218.453L249.871 216.286C250.405 215.802 250.784 215.454 250.939 215.38C251.094 215.311 251.094 215.56 250.765 216.206C251.603 214.684 251.932 214.076 252.268 213.535C252.584 212.989 252.914 212.523 253.466 211.157L253.603 211.412C254.137 210.511 254.733 208.94 255.211 208.499C255.59 208.046 256.118 207.183 256.757 206.072C256.913 205.792 257.08 205.5 257.254 205.19C257.409 204.873 257.565 204.544 257.732 204.202C258.055 203.519 258.403 202.787 258.757 202.035C259.136 201.29 259.409 200.47 259.75 199.663C260.067 198.85 260.433 198.049 260.725 197.229C261.023 196.409 261.315 195.602 261.601 194.82C261.75 194.428 261.893 194.05 262.035 193.677C262.166 193.298 262.29 192.932 262.408 192.578C261.402 193.509 263.457 189.97 262.961 189.597C263.197 189.299 263.464 188.498 263.408 189.486C263.644 187.964 263.942 186.853 264.184 185.841C264.376 184.822 264.501 183.916 264.42 182.835C264.643 182.512 264.569 183.518 264.718 183.226C264.718 182.978 264.718 182.239 264.867 181.935C265.016 181.637 264.942 182.4 264.942 182.891C265.19 181.332 265.066 180.451 264.935 179.935C264.786 179.42 264.544 179.265 264.308 179.128C264.712 177.582 264.693 176.787 264.414 175.638C264.6 175.098 264.805 174.185 264.786 176.123C264.805 175.849 264.842 175.303 264.886 174.626C264.904 174.291 264.929 173.918 264.954 173.539C264.966 173.161 264.954 172.763 264.954 172.378C264.942 170.838 264.879 169.416 264.681 169.373C264.761 169.031 264.612 167.858 264.55 167.572C264.482 166.355 264.47 165.69 264.414 165.038C264.345 164.386 264.271 163.734 264.116 162.548L264.128 163.213C263.544 162.331 263.824 161.251 263.433 159.363L263.489 159.406C263.395 158.301 263.321 157.637 263.253 157.183C263.166 156.736 263.097 156.513 263.029 156.283C262.899 155.83 262.774 155.389 262.507 153.209L262.265 153.507C261.93 153.377 261.756 152.433 261.588 151.21C261.501 150.601 261.408 149.918 261.284 149.241C261.129 148.57 260.936 147.912 260.688 147.322L260.8 148.241C260.489 147.614 260.409 146.639 260.359 145.633C260.303 144.634 260.222 143.628 260.024 142.957C259.974 142.653 260.272 143.379 260.458 143.764C259.545 140.194 259.949 143.448 258.893 140.939C258.893 140.399 259.645 141.343 258.968 139.629C258.856 139.182 258.229 137.996 257.447 136.673C256.652 135.356 255.863 133.829 255.422 132.643C255.534 133.208 255.646 133.761 254.95 132.699C254.46 131.867 254.025 130.619 253.448 129.47C252.876 128.315 252.274 127.203 251.61 126.588C251.51 126.359 251.498 126.259 251.529 126.228C251.069 125.645 250.368 124.67 249.691 123.763C249.02 122.856 248.306 122.074 247.946 121.788C247.964 121.36 247.604 120.696 247.052 119.957C246.505 119.205 245.785 118.367 245.052 117.597C244.692 117.206 244.338 116.827 244.015 116.473C243.68 116.125 243.376 115.809 243.133 115.523C242.643 114.958 242.388 114.536 242.575 114.387C241.531 113.281 240.501 112.17 239.389 111.127L239.544 111.139C238.538 110.077 237.781 109.444 237.172 108.997C236.564 108.55 236.123 108.276 235.651 108.04C235.179 107.556 235.614 107.804 235.688 107.804C234.906 107.084 234.303 106.513 233.769 106.072C233.229 105.631 232.782 105.29 232.341 104.973C231.906 104.65 231.459 104.377 230.919 104.085C230.379 103.793 229.77 103.451 228.969 103.054L228.826 102.595C228.361 102.421 227.168 101.44 225.511 100.403C223.884 99.3283 221.791 98.2168 219.798 97.5337C219.847 97.5213 219.953 97.5027 220.276 97.5958C219.996 97.4964 219.717 97.3847 219.431 97.2667C219.139 97.1611 218.848 97.0494 218.55 96.9376C217.953 96.7078 217.357 96.4532 216.749 96.1986C216.134 95.9627 215.519 95.7267 214.911 95.4907C214.606 95.3728 214.308 95.2486 214.01 95.143C213.706 95.0436 213.408 94.9505 213.116 94.8574C211.936 94.4972 210.85 94.1308 209.912 94.0004C208.974 93.8762 208.223 93.87 207.751 94.0625C207.229 94.0191 206.72 93.9445 206.199 93.9321L204.64 93.8887C208.596 94.4413 203.988 94.2985 205.59 94.6773C204.044 94.5593 201.622 93.87 203.535 94.0377L203.827 94.1308C204.019 94.0066 203.808 93.8949 203.386 93.7893C203.175 93.7396 202.908 93.6837 202.616 93.6465C202.318 93.6216 201.995 93.5968 201.666 93.5658C200.349 93.4664 198.958 93.3919 199.014 93.1932C195.065 93.1497 191.171 93.3671 187.359 93.8328C183.558 94.3606 179.857 95.112 176.306 96.1303L177.249 96.3415C176.417 96.5464 175.604 96.7948 174.784 97.0556C174.114 97.1611 173.815 96.9935 175.567 96.4532C174.567 96.5029 172.698 97.5958 172.685 97.7076C170.965 98.2168 171.251 97.987 171.841 97.6517C172.418 97.3039 173.331 96.95 172.803 97.1052C172.325 97.2605 171.866 97.453 171.4 97.6331L171.735 97.5647C170.655 98.1609 170.624 98.3658 168.556 99.1172C167.233 99.558 167.792 99.1234 167.277 99.3159C167.271 99.2848 167.09 99.3407 166.494 99.6201L164.985 100.216L163.501 100.862L164.824 100.663C163.588 101.409 162.048 101.887 163.57 101.651C162.439 101.793 159.689 103.017 157.112 104.364C154.528 105.693 152.138 107.134 151.511 107.401C149.908 108.63 148.238 109.667 146.17 110.984C146.729 110.723 147.232 110.841 145.469 111.977C145.556 111.412 144.705 111.884 143.618 112.561C142.55 113.263 141.24 114.163 140.383 114.467C141.116 114.163 139.917 115.082 138.868 116.001C137.812 116.926 136.868 117.796 137.974 117.249C136.583 118.336 137.688 117.075 136.545 117.808C135.049 119.298 133.347 120.882 131.578 122.596C129.851 124.341 128.069 126.241 126.56 128.402C126.598 128.532 127.262 127.93 126.716 128.923C126.051 129.575 125.362 130.227 124.697 130.898C124.194 131.817 124.71 132.034 123.418 133.469C123.629 133.282 123.94 133.003 123.636 133.624C122.232 135.779 121.09 138.114 120.09 140.529C119.152 142.963 118.357 145.472 117.743 148.024C116.526 153.135 115.867 158.351 115.309 163.554C115.544 162.145 115.551 163.089 115.538 164.163C115.6 163.461 115.805 164.181 115.961 164.045C115.867 164.765 115.836 165.492 115.774 166.212C115.712 166.939 115.669 167.665 115.65 168.392C116.072 169.162 116.016 173.036 116.495 173.44C116.408 172.993 116.339 172.54 116.277 172.086C116.911 173.844 117.06 169.46 117.699 169.696C117.389 168.714 117.476 167.379 117.637 165.902C117.699 165.163 117.768 164.386 117.799 163.592C117.823 162.797 117.761 161.977 117.631 161.151C117.792 160.437 117.786 161.772 117.948 161.393C117.749 160.555 117.712 159.543 118.022 157.711L118.066 157.928C118.271 155.333 118.643 153.507 119.065 151.619C119.301 150.682 119.556 149.725 119.86 148.664C120.202 147.608 120.531 146.428 121.034 145.068L120.624 145.391C121.046 144.211 121.195 143.982 121.475 143.466C121.524 142.727 121.177 143.528 120.91 144.385C120.624 145.236 120.332 146.099 120.295 145.404C120.574 145.05 120.854 144.342 121.201 143.485C121.382 143.056 121.568 142.591 121.754 142.106C121.934 141.616 122.133 141.119 122.356 140.628C122.779 139.647 123.201 138.685 123.636 137.946C124.058 137.201 124.412 136.648 124.71 136.493C125.635 134.822 124.139 136.822 125.07 135.152L125.474 134.798L125.505 134.257C126.206 133.208 126.734 132.792 126.889 132.835C126.716 133.084 126.473 133.593 126.312 133.872C126.834 133.239 127.405 132.258 127.964 131.42C128.237 130.991 128.485 130.594 128.69 130.271C128.908 129.96 129.081 129.724 129.181 129.625C128.771 130.084 128.386 130.563 128.013 131.047C129.435 128.861 131.267 126.595 133.242 124.483C135.217 122.372 137.309 120.41 139.135 118.622L138.744 118.764C140.166 117.423 140.799 116.957 141.494 116.498C141.842 116.268 142.196 116.032 142.674 115.684C143.165 115.349 143.773 114.908 144.624 114.256L144.519 114.374C145.14 113.766 146.046 113.058 147.033 112.412C146.214 113.138 148.915 111.561 147.822 112.486C149.511 111.207 149.946 110.909 150.194 110.655C150.449 110.406 150.517 110.208 151.591 109.27L152.268 109.139C152.988 108.475 152.995 108.326 154.851 107.227C153.404 108.264 156.217 106.861 154.622 108.059C155.659 107.612 156.547 107.183 157.31 106.767C158.074 106.351 158.714 105.942 159.304 105.588C160.49 104.898 161.415 104.37 162.502 104.253C164.097 102.775 158.844 105.643 159.825 105.016C158.857 105.258 161.148 103.83 162.464 103.278C163.129 102.986 163.775 102.924 164.663 102.744C165.11 102.657 165.613 102.526 166.215 102.352C166.823 102.185 167.525 101.949 168.363 101.607C168.028 101.738 168.028 101.793 167.693 101.924C168.351 101.744 168.941 101.446 169.574 101.141C170.214 100.862 170.903 100.583 171.723 100.421C172.095 100.08 172.605 99.8996 173.027 99.7381C173.455 99.5829 173.803 99.4587 173.853 99.1793C172.803 99.5332 171.791 99.9927 170.76 100.39C171.623 100.018 172.412 99.5146 173.387 99.0613C174.368 98.6266 175.505 98.1547 177.032 97.8504C176.821 97.9994 175.983 98.4093 175.399 98.6701C175.852 98.6018 176.262 98.4465 176.672 98.2851C177.088 98.1485 177.51 98.0056 177.988 97.956C177.858 98.4651 174.151 99.1917 172.381 100.235C173.344 100.067 175.877 98.7197 175.076 99.5208C176.25 98.4031 178.485 98.5769 180.708 97.4592L180.621 97.7821C180.988 97.6517 181.733 97.3412 182.428 97.1922L181.267 97.8442C182.186 97.4716 183.13 97.3288 184.061 97.2108C184.999 97.1239 185.924 97.0804 186.837 96.8258C182.962 97.5151 185.906 96.6271 184.217 96.7078C188.967 95.4907 187.104 96.9003 192.457 96.1862C191.73 96.2421 189.7 96.3042 190.83 96.0186C191.861 95.9316 193.239 96.0061 193.873 96.1055C197.443 95.8136 193.307 95.8323 194.823 95.5528C196.058 95.8571 196.58 95.379 198.176 95.2361V95.5342C198.697 95.5404 199.095 95.5653 199.412 95.5839C199.728 95.5963 199.958 95.5963 200.138 95.5839C200.492 95.559 200.616 95.4845 200.734 95.4162C200.964 95.292 201.15 95.112 202.988 95.3852C202.46 95.4473 201.926 95.5839 201.399 95.6894C202.044 95.6832 202.684 95.677 203.324 95.7329L202.901 96.0248C203.945 96.0248 204.634 96.0558 205.304 96.1303C205.981 96.1862 206.639 96.3601 207.627 96.596C207.198 96.298 207.987 96.1117 209.782 96.4408C210.943 96.9252 209.049 96.5402 211.545 97.1549C210.93 97.2046 210.285 97.2232 209.248 96.7389C209.117 96.8134 208.645 96.8196 208.515 96.8879C208.832 96.9997 209.192 97.0928 209.57 97.1798C209.943 97.2791 210.328 97.3909 210.713 97.4778C211.471 97.6517 212.185 97.8193 212.632 97.9249C212.29 97.8256 211.887 97.7014 211.688 97.602C212.303 97.7014 212.924 97.7697 213.532 97.8876L215.364 98.2789C215.886 98.5707 215.414 98.5086 214.948 98.4465C215.308 98.5521 215.625 98.608 215.985 98.6887C216.339 98.7818 216.73 98.8936 217.252 99.0861C216.892 99.2165 216.873 99.4463 215.376 99.024C215.948 99.1544 216.5 99.3593 217.065 99.5208C217.624 99.7009 218.202 99.8437 218.748 100.061C218.922 100.26 220.27 101.073 219.816 100.968C220.679 101.408 221.772 101.887 222.965 102.365C223.554 102.619 224.144 102.917 224.734 103.215C225.026 103.371 225.318 103.526 225.604 103.7C225.883 103.88 226.15 104.066 226.411 104.265C226.548 104.296 226.802 104.408 227.286 104.675C227.802 105.01 228.268 105.376 228.733 105.749C229.199 106.115 229.665 106.482 230.143 106.854C231.068 107.637 232.099 108.369 233.297 109.202C233.62 109.667 233.949 110.127 234.266 110.599C236.011 112.064 232.981 108.674 235.893 111.12C236.942 111.971 237.036 112.238 236.98 112.35C236.918 112.462 236.675 112.449 236.967 112.822C238.066 113.592 240.053 114.945 241.401 117.069C240.799 116.51 240.432 115.97 239.88 115.442L239.836 115.498ZM255.329 138.983C255.074 138.499 254.404 137.604 254.398 137.163C254.969 137.586 255.056 138.082 255.329 138.983ZM262.756 181.016C262.694 180.593 262.805 179.972 262.986 179.265C262.961 179.786 262.892 180.37 262.756 181.016ZM173.766 239.889C173.766 239.889 173.809 239.889 173.828 239.889C175.008 240.336 174.592 240.168 173.766 239.889ZM171.294 239.038C171.034 239.001 171.034 239.051 171.133 239.119C171.332 239.1 171.891 239.262 172.524 239.473C172.369 239.343 172.058 239.194 171.294 239.038ZM167.022 99.5891L167.519 99.4711C166.488 99.9803 166.755 99.7878 167.022 99.5891Z" fill="#F0F5FE"/>
<path d="M262.737 176.104C262.793 175.949 262.849 175.911 262.911 175.874C262.867 175.657 262.811 175.651 262.737 176.104Z" fill="#F0F5FE"/>
<path d="M226.442 104.377L226.373 104.327C226.324 104.315 226.293 104.321 226.274 104.327L226.442 104.377Z" fill="#F0F5FE"/>
<path d="M210.905 239.032C211.421 238.964 211.719 238.958 211.924 238.97C211.936 238.896 211.688 238.883 210.905 239.032Z" fill="#F0F5FE"/>
<path d="M158.105 234.816L159.689 235.387C158.931 235.095 158.689 234.928 158.329 234.723C158.335 234.804 158.59 235.021 158.105 234.816Z" fill="#F0F5FE"/>
<path d="M146.065 226.607C145.841 226.514 145.624 226.346 145.4 226.253L145.382 226.408C146.27 226.93 146.946 227.203 146.065 226.607Z" fill="#F0F5FE"/>
<path d="M157.087 233.276C157.068 232.985 156.075 232.668 155.007 232.202C155.069 232.233 155.131 232.258 155.193 232.289C154.733 232.463 155.907 232.898 157.087 233.276Z" fill="#F0F5FE"/>
<path d="M154.758 232.097C154.429 231.954 154.094 231.805 153.783 231.643C153.597 231.712 154.168 231.854 154.758 232.097Z" fill="#F0F5FE"/>
<path d="M168.09 238.207C167.581 237.971 167.655 238.405 167.388 238.207C166.699 238.318 171.033 238.983 168.09 238.207Z" fill="#F0F5FE"/>
<path d="M156.565 232.14L156.82 232.593L157.515 232.624L156.565 232.14Z" fill="#F0F5FE"/>
<path d="M164.954 235.797C164.383 235.562 163.818 235.307 163.253 235.065C163.259 235.121 163.029 235.065 162.75 234.99C163.812 235.406 164.961 235.909 164.954 235.797Z" fill="#F0F5FE"/>
<path d="M162.75 234.984C162.197 234.766 161.663 234.574 161.34 234.493C161.638 234.617 162.29 234.853 162.75 234.984Z" fill="#F0F5FE"/>
<path d="M158.912 233.072C159.067 233.165 159.229 233.252 159.39 233.345L160.589 233.86L158.912 233.078V233.072Z" fill="#F0F5FE"/>
<path d="M184.173 240.976C184.844 241.063 185.514 241.125 186.191 241.174C186.409 241.094 185.868 240.963 185.117 240.907C184.626 240.907 183.881 240.82 184.173 240.976Z" fill="#F0F5FE"/>
<path d="M178.349 238.989C178.864 239.175 178.883 239.262 179.162 239.424L179.305 239.057C178.982 239.051 178.671 239.014 178.355 238.989H178.349Z" fill="#F0F5FE"/>
<path d="M184.105 240.008C184.322 239.945 187.017 240.15 184.508 239.79C184.291 239.865 182.298 239.629 184.105 240.008Z" fill="#F0F5FE"/>
<path d="M214.153 239.38L213.663 239.517L213.88 240.107L214.153 239.38Z" fill="#F0F5FE"/>
<path d="M236.955 226.39C235.03 227.706 236.756 227.042 234.98 228.191C234.639 228.65 236.433 227.247 236.067 227.7C237.085 226.7 237.719 226.315 236.949 226.39H236.955Z" fill="#F0F5FE"/>
<path d="M236.073 227.7C235.912 227.861 235.738 228.035 235.564 228.222C235.862 227.936 235.999 227.793 236.073 227.7Z" fill="#F0F5FE"/>
<path d="M115.507 171.379L115.52 172.956L115.638 171.925L115.507 171.379Z" fill="#F0F5FE"/>
<path d="M116.296 174.316L115.942 174.732L116.42 175.614C116.358 175.266 116.234 174.589 116.296 174.316Z" fill="#F0F5FE"/>
<path d="M256.167 143.168L256.298 143.243C256.31 142.988 256.217 142.647 255.95 141.995C256.037 142.38 256.105 142.777 256.167 143.168Z" fill="#F0F5FE"/>
<path d="M246.989 125.005L247.176 125.303C247.157 125.055 247.138 124.794 247.114 124.552L246.996 125.005H246.989Z" fill="#F0F5FE"/>
<path d="M235.613 112.338C236.116 112.81 236.737 113.344 237.228 113.841C236.669 113.332 236.315 112.841 236.073 112.53C235.825 112.226 235.7 112.108 235.613 112.338Z" fill="#F0F5FE"/>
<g filter="url(#filter0_d_37_7389)">
<path d="M146.682 174.137V138.283L151.527 142.957H139.272V134.236H157.969V174.137H146.682ZM177.935 174.935C175.199 174.935 172.444 174.593 169.67 173.909C166.896 173.225 164.502 172.256 162.487 171.002L166.535 162.509C168.169 163.573 169.936 164.39 171.836 164.96C173.774 165.53 175.693 165.815 177.593 165.815C179.493 165.815 181.032 165.454 182.21 164.732C183.388 163.972 183.977 162.927 183.977 161.597C183.977 160.799 183.749 160.096 183.293 159.488C182.837 158.842 182.058 158.367 180.956 158.063C179.854 157.721 178.277 157.55 176.225 157.55H165.395L167.39 134.236H192.813V142.957H171.38L177.137 137.998L175.826 153.73L170.069 148.771H178.904C182.856 148.771 186.029 149.341 188.423 150.481C190.818 151.583 192.566 153.084 193.668 154.984C194.77 156.847 195.321 158.956 195.321 161.312C195.321 163.668 194.694 165.891 193.44 167.981C192.224 170.033 190.343 171.705 187.796 172.997C185.25 174.289 181.963 174.935 177.935 174.935ZM203.908 174.137L231.155 134.236H239.364L212.117 174.137H203.908ZM207.557 155.84C205.619 155.84 203.87 155.402 202.312 154.528C200.754 153.654 199.538 152.381 198.664 150.709C197.79 149.037 197.353 147.061 197.353 144.781C197.353 142.501 197.79 140.544 198.664 138.91C199.538 137.238 200.754 135.965 202.312 135.091C203.87 134.179 205.619 133.723 207.557 133.723C209.533 133.723 211.281 134.179 212.801 135.091C214.359 135.965 215.575 137.219 216.449 138.853C217.361 140.487 217.817 142.463 217.817 144.781C217.817 147.061 217.361 149.037 216.449 150.709C215.575 152.381 214.359 153.654 212.801 154.528C211.281 155.402 209.533 155.84 207.557 155.84ZM207.557 150.424C208.545 150.424 209.343 149.987 209.951 149.113C210.597 148.239 210.92 146.795 210.92 144.781C210.92 142.767 210.597 141.323 209.951 140.449C209.343 139.575 208.545 139.138 207.557 139.138C206.645 139.138 205.847 139.575 205.162 140.449C204.516 141.323 204.193 142.767 204.193 144.781C204.193 146.795 204.516 148.239 205.162 149.113C205.847 149.987 206.645 150.424 207.557 150.424ZM235.716 174.65C233.74 174.65 231.973 174.213 230.414 173.339C228.894 172.465 227.697 171.192 226.823 169.52C225.949 167.848 225.512 165.872 225.512 163.592C225.512 161.312 225.949 159.355 226.823 157.721C227.697 156.049 228.894 154.775 230.414 153.901C231.973 152.989 233.74 152.533 235.716 152.533C237.692 152.533 239.44 152.989 240.96 153.901C242.518 154.775 243.734 156.049 244.608 157.721C245.52 159.355 245.976 161.312 245.976 163.592C245.976 165.872 245.52 167.848 244.608 169.52C243.734 171.192 242.518 172.465 240.96 173.339C239.44 174.213 237.692 174.65 235.716 174.65ZM235.716 169.235C236.666 169.235 237.464 168.798 238.11 167.924C238.756 167.05 239.079 165.606 239.079 163.592C239.079 161.578 238.756 160.134 238.11 159.26C237.464 158.386 236.666 157.949 235.716 157.949C234.804 157.949 234.006 158.386 233.322 159.26C232.676 160.134 232.353 161.578 232.353 163.592C232.353 165.606 232.676 167.05 233.322 167.924C234.006 168.798 234.804 169.235 235.716 169.235Z" fill="white"/>
</g>
<g filter="url(#filter1_d_37_7389)">
<path d="M161.474 217.728C158.9 217.728 156.505 217.305 154.29 216.458C152.107 215.578 150.201 214.356 148.572 212.792C146.976 211.196 145.721 209.355 144.809 207.27C143.929 205.152 143.49 202.839 143.49 200.33C143.49 197.822 143.929 195.525 144.809 193.44C145.721 191.322 146.976 189.481 148.572 187.917C150.201 186.321 152.107 185.099 154.29 184.252C156.473 183.373 158.867 182.933 161.474 182.933C164.048 182.933 166.426 183.373 168.609 184.252C170.792 185.099 172.681 186.305 174.278 187.869C175.907 189.432 177.161 191.273 178.041 193.391C178.953 195.509 179.409 197.822 179.409 200.33C179.409 202.839 178.953 205.152 178.041 207.27C177.161 209.388 175.907 211.229 174.278 212.792C172.681 214.356 170.792 215.578 168.609 216.458C166.426 217.305 164.048 217.728 161.474 217.728ZM161.474 214.503C163.526 214.503 165.416 214.161 167.143 213.477C168.902 212.76 170.417 211.766 171.688 210.495C172.991 209.192 174.001 207.694 174.718 205.999C175.434 204.273 175.793 202.383 175.793 200.33C175.793 198.278 175.434 196.405 174.718 194.71C174.001 192.984 172.991 191.485 171.688 190.214C170.417 188.911 168.902 187.917 167.143 187.233C165.416 186.516 163.526 186.158 161.474 186.158C159.421 186.158 157.515 186.516 155.756 187.233C153.997 187.917 152.465 188.911 151.162 190.214C149.892 191.485 148.882 192.984 148.132 194.71C147.416 196.405 147.057 198.278 147.057 200.33C147.057 202.35 147.416 204.224 148.132 205.951C148.882 207.677 149.892 209.192 151.162 210.495C152.465 211.766 153.997 212.76 155.756 213.477C157.515 214.161 159.421 214.503 161.474 214.503ZM187.515 217.435V183.226H210.973V186.354H191.132V217.435H187.515ZM190.741 202.921V199.793H208.823V202.921H190.741ZM218.441 217.435V183.226H241.899V186.354H222.057V217.435H218.441ZM221.666 202.921V199.793H239.748V202.921H221.666Z" fill="white"/>
</g>
</g>
<defs>
<filter id="filter0_d_37_7389" x="139.272" y="133.723" width="106.704" height="43.8992" filterUnits="userSpaceOnUse" color-interpolation-filters="sRGB">
<feFlood flood-opacity="0" result="BackgroundImageFix"/>
<feColorMatrix in="SourceAlpha" type="matrix" values="0 0 0 0 0 0 0 0 0 0 0 0 0 0 0 0 0 0 127 0" result="hardAlpha"/>
<feOffset dy="2.68656"/>
<feComposite in2="hardAlpha" operator="out"/>
<feColorMatrix type="matrix" values="0 0 0 0 0.00784314 0 0 0 0 0.454902 0 0 0 0 0.72549 0 0 0 1 0"/>
<feBlend mode="normal" in2="BackgroundImageFix" result="effect1_dropShadow_37_7389"/>
<feBlend mode="normal" in="SourceGraphic" in2="effect1_dropShadow_37_7389" result="shape"/>
</filter>
<filter id="filter1_d_37_7389" x="143.49" y="182.933" width="98.409" height="37.4822" filterUnits="userSpaceOnUse" color-interpolation-filters="sRGB">
<feFlood flood-opacity="0" result="BackgroundImageFix"/>
<feColorMatrix in="SourceAlpha" type="matrix" values="0 0 0 0 0 0 0 0 0 0 0 0 0 0 0 0 0 0 127 0" result="hardAlpha"/>
<feOffset dy="2.68656"/>
<feComposite in2="hardAlpha" operator="out"/>
<feColorMatrix type="matrix" values="0 0 0 0 0.00784314 0 0 0 0 0.454902 0 0 0 0 0.72549 0 0 0 1 0"/>
<feBlend mode="normal" in2="BackgroundImageFix" result="effect1_dropShadow_37_7389"/>
<feBlend mode="normal" in="SourceGraphic" in2="effect1_dropShadow_37_7389" result="shape"/>
</filter>
<clipPath id="clip0_37_7389">
<rect width="360" height="280" fill="white"/>
</clipPath>
</defs>
</svg>
