<svg width="379" height="96" viewBox="0 0 379 96" fill="none" xmlns="http://www.w3.org/2000/svg">
<path d="M12.1121 33L-3.17927e-06 4.35641H10.3935L20.2551 28.5398H14.0763L24.2243 4.35641H33.7176L21.6054 33H12.1121ZM41.655 33.4092C39.8818 33.4092 38.2723 33.0546 36.8265 32.3453C35.408 31.6087 34.2895 30.4766 33.4711 28.949C32.6527 27.394 32.2435 25.4026 32.2435 22.9747V10.6171H41.4913V21.3789C41.4913 22.9611 41.7505 24.0659 42.2688 24.6934C42.7871 25.3208 43.4964 25.6345 44.3966 25.6345C44.9422 25.6345 45.4469 25.4981 45.9106 25.2253C46.4017 24.9252 46.7972 24.4478 47.0973 23.7931C47.3974 23.1111 47.5474 22.2246 47.5474 21.1334V10.6171H56.7952V33H47.9975V26.5347L49.7571 28.2943C48.9659 30.0402 47.8338 31.3359 46.3607 32.1816C44.9149 33 43.3463 33.4092 41.655 33.4092ZM72.0271 33.4092C69.2992 33.4092 66.9122 32.9045 64.8662 31.8952C62.8475 30.8858 61.279 29.5082 60.1605 27.7623C59.042 25.9891 58.4828 23.9977 58.4828 21.7881C58.4828 19.5239 59.0284 17.5188 60.1196 15.7729C61.238 14.027 62.7521 12.663 64.6616 11.681C66.5985 10.6989 68.7672 10.2079 71.1678 10.2079C73.3775 10.2079 75.4098 10.6444 77.2648 11.5173C79.1471 12.3903 80.6475 13.686 81.7659 15.4046C82.9117 17.1233 83.4846 19.2511 83.4846 21.7881C83.4846 22.1154 83.4709 22.4837 83.4436 22.8929C83.4164 23.2748 83.3891 23.6295 83.3618 23.9568H66.1347V19.4966H78.4515L74.9733 20.6833C74.9733 19.8103 74.8096 19.0738 74.4823 18.4736C74.1822 17.8462 73.7594 17.3688 73.2138 17.0414C72.6682 16.6868 72.0135 16.5095 71.2497 16.5095C70.4858 16.5095 69.8175 16.6868 69.2446 17.0414C68.699 17.3688 68.2762 17.8462 67.9761 18.4736C67.676 19.0738 67.526 19.8103 67.526 20.6833V22.0745C67.526 23.0293 67.7169 23.8477 68.0989 24.5297C68.4808 25.2117 69.0264 25.73 69.7356 26.0846C70.4449 26.412 71.3042 26.5757 72.3136 26.5757C73.3502 26.5757 74.1959 26.4393 74.8506 26.1665C75.5326 25.8937 76.2418 25.4845 76.9784 24.9389L81.8069 29.8083C80.7157 30.9813 79.3653 31.8815 77.7558 32.509C76.1736 33.1091 74.2641 33.4092 72.0271 33.4092ZM85.1754 33V2.63779H94.4232V33H85.1754ZM108.097 33.4092C105.015 33.4092 102.614 32.6726 100.895 31.1995C99.1768 29.6992 98.3175 27.4077 98.3175 24.3251V5.58399H107.565V24.2432C107.565 24.9252 107.743 25.4572 108.097 25.8391C108.479 26.221 108.943 26.412 109.489 26.412C110.28 26.412 110.975 26.2074 111.575 25.7982L113.785 32.2225C113.076 32.6317 112.216 32.9318 111.207 33.1228C110.225 33.3137 109.188 33.4092 108.097 33.4092ZM95.2486 17.3688V10.6171H112.148V17.3688H95.2486ZM127.833 33V29.0308L127.179 27.9669V20.4377C127.179 19.3466 126.838 18.5145 126.156 17.9417C125.501 17.3688 124.423 17.0823 122.923 17.0823C121.914 17.0823 120.891 17.246 119.854 17.5734C118.817 17.8735 117.931 18.2963 117.194 18.8419L114.248 12.7449C115.557 11.9265 117.126 11.2991 118.954 10.8626C120.781 10.4261 122.568 10.2079 124.314 10.2079C128.161 10.2079 131.134 11.0672 133.235 12.7858C135.362 14.5044 136.426 17.2324 136.426 20.9697V33H127.833ZM121.491 33.4092C119.663 33.4092 118.135 33.0955 116.908 32.468C115.68 31.8406 114.753 31.0086 114.125 29.972C113.498 28.9081 113.184 27.735 113.184 26.4529C113.184 25.0071 113.552 23.7795 114.289 22.7701C115.025 21.7608 116.144 20.997 117.644 20.4787C119.172 19.9603 121.095 19.7012 123.414 19.7012H128.079V24.1614H124.887C123.905 24.1614 123.182 24.3251 122.718 24.6524C122.282 24.9525 122.064 25.4163 122.064 26.0437C122.064 26.562 122.255 26.9985 122.636 27.3531C123.046 27.6805 123.591 27.8442 124.273 27.8442C124.901 27.8442 125.474 27.6805 125.992 27.3531C126.537 26.9985 126.933 26.4529 127.179 25.7163L128.365 28.4579C128.011 30.122 127.26 31.3632 126.115 32.1816C124.969 33 123.428 33.4092 121.491 33.4092ZM163.78 33V29.0308L163.125 27.9669V20.4377C163.125 19.3466 162.784 18.5145 162.102 17.9417C161.448 17.3688 160.37 17.0823 158.87 17.0823C157.86 17.0823 156.837 17.246 155.801 17.5734C154.764 17.8735 153.877 18.2963 153.141 18.8419L150.195 12.7449C151.504 11.9265 153.073 11.2991 154.9 10.8626C156.728 10.4261 158.515 10.2079 160.261 10.2079C164.107 10.2079 167.081 11.0672 169.181 12.7858C171.309 14.5044 172.373 17.2324 172.373 20.9697V33H163.78ZM157.437 33.4092C155.61 33.4092 154.082 33.0955 152.854 32.468C151.627 31.8406 150.699 31.0086 150.072 29.972C149.445 28.9081 149.131 27.735 149.131 26.4529C149.131 25.0071 149.499 23.7795 150.236 22.7701C150.972 21.7608 152.091 20.997 153.591 20.4787C155.119 19.9603 157.042 19.7012 159.361 19.7012H164.025V24.1614H160.834C159.852 24.1614 159.129 24.3251 158.665 24.6524C158.229 24.9525 158.01 25.4163 158.01 26.0437C158.01 26.562 158.201 26.9985 158.583 27.3531C158.992 27.6805 159.538 27.8442 160.22 27.8442C160.847 27.8442 161.42 27.6805 161.939 27.3531C162.484 26.9985 162.88 26.4529 163.125 25.7163L164.312 28.4579C163.957 30.122 163.207 31.3632 162.061 32.1816C160.916 33 159.374 33.4092 157.437 33.4092ZM175.142 33V2.63779H184.39V33H175.142ZM213.401 33.6547C211.109 33.6547 208.982 33.3001 207.017 32.5908C205.081 31.8543 203.389 30.8176 201.943 29.4809C200.525 28.1442 199.42 26.562 198.629 24.7343C197.838 22.9065 197.442 20.8879 197.442 18.6782C197.442 16.4686 197.838 14.4499 198.629 12.6221C199.42 10.7944 200.525 9.21218 201.943 7.87548C203.389 6.53877 205.081 5.51579 207.017 4.80652C208.982 4.06997 211.109 3.7017 213.401 3.7017C216.211 3.7017 218.693 4.19273 220.848 5.1748C223.031 6.15686 224.831 7.5754 226.25 9.43041L220.153 14.8727C219.307 13.8088 218.366 12.9904 217.329 12.4175C216.32 11.8174 215.174 11.5173 213.892 11.5173C212.883 11.5173 211.969 11.681 211.15 12.0083C210.332 12.3357 209.623 12.8131 209.022 13.4405C208.45 14.0679 207.999 14.8318 207.672 15.732C207.345 16.605 207.181 17.587 207.181 18.6782C207.181 19.7694 207.345 20.7651 207.672 21.6653C207.999 22.5383 208.45 23.2885 209.022 23.9159C209.623 24.5433 210.332 25.0207 211.15 25.3481C211.969 25.6754 212.883 25.8391 213.892 25.8391C215.174 25.8391 216.32 25.5527 217.329 24.9798C218.366 24.3796 219.307 23.5476 220.153 22.4837L226.25 27.926C224.831 29.7537 223.031 31.1723 220.848 32.1816C218.693 33.1637 216.211 33.6547 213.401 33.6547ZM238.43 33.4092C235.893 33.4092 233.643 32.9182 231.679 31.9361C229.742 30.9267 228.214 29.5491 227.096 27.8032C225.977 26.0573 225.418 24.0523 225.418 21.7881C225.418 19.5239 225.977 17.5188 227.096 15.7729C228.214 14.027 229.742 12.663 231.679 11.681C233.643 10.6989 235.893 10.2079 238.43 10.2079C240.967 10.2079 243.218 10.6989 245.182 11.681C247.146 12.663 248.674 14.027 249.765 15.7729C250.884 17.5188 251.443 19.5239 251.443 21.7881C251.443 24.0523 250.884 26.0573 249.765 27.8032C248.674 29.5491 247.146 30.9267 245.182 31.9361C243.218 32.9182 240.967 33.4092 238.43 33.4092ZM238.43 26.2074C239.112 26.2074 239.726 26.0437 240.272 25.7163C240.817 25.389 241.254 24.898 241.581 24.2432C241.909 23.5613 242.072 22.7429 242.072 21.7881C242.072 20.806 241.909 20.0013 241.581 19.3738C241.254 18.7191 240.817 18.2281 240.272 17.9007C239.726 17.5734 239.112 17.4097 238.43 17.4097C237.748 17.4097 237.135 17.5734 236.589 17.9007C236.043 18.2281 235.607 18.7191 235.28 19.3738C234.952 20.0013 234.789 20.806 234.789 21.7881C234.789 22.7429 234.952 23.5613 235.28 24.2432C235.607 24.898 236.043 25.389 236.589 25.7163C237.135 26.0437 237.748 26.2074 238.43 26.2074ZM253.11 33V2.63779H262.357V33H253.11ZM277.586 33.4092C274.859 33.4092 272.472 32.9045 270.426 31.8952C268.407 30.8858 266.838 29.5082 265.72 27.7623C264.601 25.9891 264.042 23.9977 264.042 21.7881C264.042 19.5239 264.588 17.5188 265.679 15.7729C266.797 14.027 268.311 12.663 270.221 11.681C272.158 10.6989 274.327 10.2079 276.727 10.2079C278.937 10.2079 280.969 10.6444 282.824 11.5173C284.706 12.3903 286.207 13.686 287.325 15.4046C288.471 17.1233 289.044 19.2511 289.044 21.7881C289.044 22.1154 289.03 22.4837 289.003 22.8929C288.976 23.2748 288.948 23.6295 288.921 23.9568H271.694V19.4966H284.011L280.533 20.6833C280.533 19.8103 280.369 19.0738 280.042 18.4736C279.742 17.8462 279.319 17.3688 278.773 17.0414C278.228 16.6868 277.573 16.5095 276.809 16.5095C276.045 16.5095 275.377 16.6868 274.804 17.0414C274.258 17.3688 273.836 17.8462 273.535 18.4736C273.235 19.0738 273.085 19.8103 273.085 20.6833V22.0745C273.085 23.0293 273.276 23.8477 273.658 24.5297C274.04 25.2117 274.586 25.73 275.295 26.0846C276.004 26.412 276.864 26.5757 277.873 26.5757C278.91 26.5757 279.755 26.4393 280.41 26.1665C281.092 25.8937 281.801 25.4845 282.538 24.9389L287.366 29.8083C286.275 30.9813 284.925 31.8815 283.315 32.509C281.733 33.1091 279.823 33.4092 277.586 33.4092ZM313.805 33.4092C311.241 33.4092 308.963 32.9182 306.972 31.9361C304.98 30.954 303.412 29.59 302.266 27.8442C301.148 26.071 300.588 24.0523 300.588 21.7881C300.588 19.5239 301.148 17.5188 302.266 15.7729C303.412 14.027 304.98 12.663 306.972 11.681C308.963 10.6989 311.241 10.2079 313.805 10.2079C316.533 10.2079 318.866 10.7944 320.802 11.9674C322.739 13.1404 324.076 14.7636 324.813 16.8368L317.652 20.3559C317.188 19.3193 316.615 18.5691 315.933 18.1053C315.278 17.6416 314.555 17.4097 313.764 17.4097C313.082 17.4097 312.441 17.5734 311.841 17.9007C311.268 18.2281 310.804 18.7191 310.45 19.3738C310.123 20.0013 309.959 20.806 309.959 21.7881C309.959 22.7701 310.123 23.5885 310.45 24.2432C310.804 24.898 311.268 25.389 311.841 25.7163C312.441 26.0437 313.082 26.2074 313.764 26.2074C314.555 26.2074 315.278 25.9755 315.933 25.5117C316.615 25.048 317.188 24.2978 317.652 23.2612L324.813 26.7802C324.076 28.8535 322.739 30.4766 320.802 31.6497C318.866 32.8227 316.533 33.4092 313.805 33.4092ZM337.348 33.4092C334.811 33.4092 332.561 32.9182 330.597 31.9361C328.66 30.9267 327.132 29.5491 326.014 27.8032C324.895 26.0573 324.336 24.0523 324.336 21.7881C324.336 19.5239 324.895 17.5188 326.014 15.7729C327.132 14.027 328.66 12.663 330.597 11.681C332.561 10.6989 334.811 10.2079 337.348 10.2079C339.885 10.2079 342.136 10.6989 344.1 11.681C346.064 12.663 347.592 14.027 348.683 15.7729C349.801 17.5188 350.361 19.5239 350.361 21.7881C350.361 24.0523 349.801 26.0573 348.683 27.8032C347.592 29.5491 346.064 30.9267 344.1 31.9361C342.136 32.9182 339.885 33.4092 337.348 33.4092ZM337.348 26.2074C338.03 26.2074 338.644 26.0437 339.19 25.7163C339.735 25.389 340.172 24.898 340.499 24.2432C340.826 23.5613 340.99 22.7429 340.99 21.7881C340.99 20.806 340.826 20.0013 340.499 19.3738C340.172 18.7191 339.735 18.2281 339.19 17.9007C338.644 17.5734 338.03 17.4097 337.348 17.4097C336.666 17.4097 336.053 17.5734 335.507 17.9007C334.961 18.2281 334.525 18.7191 334.198 19.3738C333.87 20.0013 333.706 20.806 333.706 21.7881C333.706 22.7429 333.87 23.5613 334.198 24.2432C334.525 24.898 334.961 25.389 335.507 25.7163C336.053 26.0437 336.666 26.2074 337.348 26.2074ZM352.028 33V10.6171H360.825V17.1642L359.066 15.2819C359.939 13.5906 361.112 12.3221 362.585 11.4764C364.085 10.6307 365.749 10.2079 367.577 10.2079C369.296 10.2079 370.85 10.5625 372.242 11.2718C373.633 11.9538 374.724 13.0313 375.515 14.5044C376.334 15.9775 376.743 17.8871 376.743 20.2331V33H367.495V21.829C367.495 20.4377 367.25 19.4557 366.758 18.8828C366.267 18.2826 365.599 17.9826 364.753 17.9826C364.126 17.9826 363.54 18.1326 362.994 18.4327C362.476 18.7055 362.053 19.1692 361.725 19.8239C361.425 20.4787 361.275 21.3652 361.275 22.4837V33H352.028Z" fill="white"/>
<path d="M306.888 47.0496C287.759 62.9733 265.521 79.7895 246.399 95.7132C248.117 84.8767 246.883 81.753 247.597 70.805C263.334 59.3661 290.08 51.4451 306.888 47.0496Z" fill="#BFE1FF"/>
<path d="M246.399 95.7133L254.87 75.5428L276.737 71.3109L246.399 95.7133Z" fill="#0274B9"/>
<path d="M226.154 53.8847C233.049 59.6711 239.988 63.2485 247.597 70.805C265.64 63.4791 288.845 54.3756 306.888 47.0496C292.98 57.6183 271.188 69.3027 254.87 75.5353C260.27 81.6638 276.008 90.1054 280.924 95.7653C296.684 72.0694 299.726 59.3661 306.888 47.0496C283.616 46.3207 249.352 51.8617 226.154 53.8847Z" fill="white"/>
<path d="M174.035 83.7272V90.1249C170.834 91.803 167.255 92.6303 163.642 92.5275C161.387 92.5636 159.142 92.2091 157.007 91.4798C155.136 90.8402 153.428 89.7956 152.006 88.4207C150.616 87.014 149.557 85.3152 148.905 83.4478C148.154 81.3418 147.785 79.1183 147.816 76.8824C147.781 74.1007 148.323 71.342 149.408 68.7805C150.391 66.429 152.049 64.4214 154.172 63.0114C156.459 61.5562 159.131 60.8214 161.841 60.9021C167.121 60.9021 170.846 62.4946 173.016 65.6795C175.185 68.8644 176.261 73.3623 176.242 79.1733H155.387C155.416 80.2313 155.66 81.2724 156.104 82.233C156.548 83.1937 157.184 84.0537 157.971 84.7608C159.666 86.152 161.815 86.8683 164.006 86.7724C167.552 86.6174 171.002 85.57 174.035 83.7272ZM155.387 73.7255H168.769C168.733 71.8791 168.128 70.0887 167.037 68.5989C166.469 67.9264 165.751 67.3975 164.94 67.0552C164.129 66.7129 163.249 66.567 162.371 66.6293C161.458 66.5763 160.544 66.7225 159.692 67.0578C158.841 67.3931 158.072 67.9094 157.44 68.571C156.196 70.0081 155.476 71.8257 155.401 73.7255H155.387Z" fill="white"/>
<path d="M115.827 91.8289V50.3416H126.094C128.888 50.3416 131.305 50.4254 133.218 50.607C135.094 50.7789 136.934 51.226 138.68 51.934C140.395 52.6039 141.859 53.7901 142.871 55.3284C143.981 57.2102 144.515 59.3762 144.407 61.5585C144.42 63.1181 144.066 64.6589 143.374 66.0565C142.677 67.4281 141.65 68.6044 140.384 69.4788C139.035 70.406 137.483 70.9953 135.858 71.197V71.2948C137.563 71.4205 139.029 72.8593 140.245 75.5832L146.838 91.8289H137.563L132.576 78.8659C132.253 77.9848 131.826 77.1454 131.305 76.3654C130.877 75.7451 130.281 75.2603 129.586 74.9686C128.689 74.6558 127.742 74.5137 126.793 74.5495H124.125V91.8289H115.827ZM124.139 56.9069V68.0819H126.862C129.049 68.1648 131.228 67.7691 133.246 66.9225C134.853 66.1682 135.663 64.6316 135.663 62.3128C135.786 61.426 135.622 60.523 135.195 59.7361C134.767 58.9493 134.099 58.3201 133.288 57.9406C131.233 57.1843 129.05 56.8379 126.862 56.9209L124.139 56.9069Z" fill="white"/>
<path d="M105.63 85.068V90.6555L103.926 91.2981C103.269 91.5356 102.529 91.7451 101.83 91.9406C100.004 92.4009 98.126 92.6216 96.2429 92.5972C93.2331 92.6957 90.2492 92.0123 87.5823 90.6136C85.3111 89.3456 83.5013 87.389 82.4138 85.0261C81.2273 82.3211 80.6503 79.3882 80.7236 76.4353C80.6445 73.6919 81.2291 70.9699 82.4278 68.501C83.5173 66.2696 85.23 64.4016 87.3588 63.123C89.5896 61.8042 92.1433 61.1319 94.7343 61.1813C97.4713 61.0511 100.178 61.8 102.459 63.3186C104.451 64.7957 105.92 66.8709 106.65 69.2413C107.543 72.1068 107.972 75.0966 107.921 78.0976H86.5486C86.5353 79.9066 87.0185 81.6846 87.9455 83.2381C88.8128 84.7276 90.068 85.9538 91.5773 86.7862C93.0565 87.6346 94.7333 88.0779 96.4385 88.0713C98.2358 88.0449 100.014 87.6997 101.691 87.0516C103.112 86.6097 104.452 85.9398 105.658 85.068H105.63ZM86.5486 73.9768H102.04C102.054 72.5326 101.754 71.1027 101.16 69.7861C100.605 68.554 99.7079 67.5069 98.5757 66.7689C97.3815 66.0321 95.997 65.6629 94.5946 65.7072C93.0779 65.6568 91.5834 66.0817 90.3201 66.9225C89.2198 67.6746 88.3341 68.6999 87.7499 69.8979C87.1483 71.1712 86.7612 72.5353 86.6044 73.9349L86.5486 73.9768Z" fill="white"/>
<path d="M69.1157 50.2578H74.6333V91.829H69.1157V50.2578Z" fill="white"/>
<path d="M60.2593 85.0961V90.6836C59.7843 90.8792 59.2255 91.0747 58.569 91.3262C57.9125 91.5776 57.1721 91.7732 56.4737 91.9687C55.7753 92.1643 54.9092 92.304 53.9872 92.4437C52.9401 92.5743 51.8855 92.6349 50.8303 92.6253C47.8205 92.7238 44.8365 92.0404 42.1696 90.6417C39.8985 89.3737 38.0887 87.4171 37.0012 85.0542C35.816 82.3487 35.2391 79.4161 35.311 76.4633C35.2447 73.7059 35.8487 70.9737 37.071 68.5011C38.1606 66.2697 39.8733 64.4018 42.002 63.1231C44.2261 61.8142 46.7694 61.1469 49.3496 61.1954C52.0693 61.0813 54.7549 61.8346 57.0185 63.3466C59.0109 64.8238 60.4792 66.899 61.2091 69.2694C62.1023 72.1348 62.5315 75.1247 62.4803 78.1256H41.108C41.0889 79.9354 41.5725 81.7149 42.5049 83.2662C43.3707 84.7521 44.6203 85.9776 46.1228 86.8142C47.6089 87.6565 49.2898 88.0948 50.9979 88.0854C52.7945 88.0644 54.573 87.7238 56.2502 87.0796C57.6685 86.6413 59.0043 85.9711 60.2034 85.0961H60.2593ZM41.1918 74.0048H56.6833C56.6988 72.559 56.3934 71.1278 55.7892 69.8142C55.245 68.5381 54.3288 67.4556 53.1601 66.7081C51.9915 65.9605 50.6246 65.5826 49.2379 65.6236C47.7212 65.5731 46.2267 65.998 44.9634 66.8388C43.8237 67.6139 42.9122 68.6798 42.3233 69.9259C41.7308 71.2017 41.3487 72.565 41.1918 73.9629V74.0048Z" fill="white"/>
<path d="M202.881 91.8709V88.6999H202.755C201.6 89.9956 200.167 91.013 198.563 91.6759C196.959 92.3387 195.226 92.6298 193.494 92.5274C191.496 92.5823 189.512 92.176 187.696 91.34C186.129 90.594 184.774 89.4651 183.757 88.0574C182.72 86.6463 181.966 85.0477 181.536 83.3499C180.587 79.6333 180.587 75.7377 181.536 72.0212C181.966 70.3405 182.72 68.7602 183.757 67.3696C184.782 65.9935 186.136 64.8981 187.696 64.1847C189.516 63.364 191.498 62.9675 193.494 63.0253C195.196 62.9696 196.889 63.2944 198.45 63.9758C200.011 64.6572 201.401 65.6783 202.517 66.9645H202.629V50.2019H210.494V91.8709H202.881ZM189.024 77.7205C188.988 79.9358 189.532 82.122 190.602 84.0623C191.09 84.9619 191.826 85.703 192.722 86.1981C193.618 86.6931 194.637 86.9214 195.659 86.8561C197.12 86.9162 198.549 86.4166 199.654 85.4592C200.693 84.5233 201.464 83.3276 201.889 81.9949C202.346 80.6114 202.577 79.1634 202.573 77.7065C202.565 76.6417 202.429 75.5819 202.168 74.5495C201.899 73.5184 201.475 72.5341 200.911 71.63C200.345 70.7685 199.59 70.0472 198.704 69.5208C197.744 68.9725 196.652 68.6971 195.547 68.7245C194.129 68.6703 192.746 69.1714 191.692 70.1214C190.715 71.0649 190.006 72.2507 189.638 73.5578C189.23 74.9171 189.023 76.329 189.024 77.7484V77.7205Z" fill="white"/>
<path d="M21.873 55.4262H8.92395V50.174H40.7868V55.4262H27.8377V91.7451H21.873V55.4262Z" fill="white"/>
</svg>
