<svg width="360" height="99" viewBox="0 0 360 99" fill="none" xmlns="http://www.w3.org/2000/svg">
<path d="M15.9987 48.1377C15.1178 48.1377 14.2368 47.5871 13.3559 46.4859C12.5064 45.3848 11.7198 43.6386 10.9962 41.2474C10.2725 38.8563 9.69047 35.7415 9.24999 31.903C8.84098 28.0331 8.63647 23.3295 8.63647 17.7921C8.63647 14.7087 8.77806 12.3019 9.06122 10.5714C9.34438 8.80952 9.72193 7.51955 10.1939 6.70153C10.6973 5.8835 11.2636 5.36437 11.8928 5.14413C12.5221 4.92389 13.1671 4.81377 13.8278 4.81377C14.6773 4.81377 15.4009 5.1284 15.9987 5.75765C16.628 6.3869 16.9426 7.25212 16.9426 8.35331C16.9426 9.32865 16.6122 10.54 15.9515 11.9872C15.7627 13.5289 15.6369 14.9133 15.574 16.1403C15.5425 17.3359 15.5268 18.6101 15.5268 19.963C15.5268 22.1025 15.5582 24.2891 15.6212 26.5229C15.7156 28.7253 15.8414 30.849 15.9987 32.8941C16.156 34.9077 16.3291 36.7011 16.5178 38.2742C17.3044 36.355 18.1854 34.2313 19.1607 31.903C20.136 29.5748 21.1114 27.2309 22.0867 24.8712C23.0935 22.5115 24.0374 20.2934 24.9183 18.2168C25.8308 16.1088 26.6016 14.3155 27.2308 12.8367C27.8916 11.358 28.332 10.3512 28.5523 9.81632C29.3388 7.92857 30.1883 6.57568 31.1007 5.75765C32.0132 4.93963 32.9413 4.53061 33.8852 4.53061C34.6403 4.53061 35.2853 4.76658 35.8201 5.23852C36.355 5.71046 36.6224 6.60714 36.6224 7.92857C36.6224 8.18027 36.3707 8.91964 35.8673 10.1467C35.3954 11.3737 34.7347 12.9468 33.8852 14.8661C33.0672 16.7538 32.139 18.8618 31.1007 21.19C30.0939 23.4868 29.0557 25.8622 27.986 28.3163C26.8218 30.9906 25.6577 33.5234 24.4936 35.9145C23.361 38.3057 22.2598 40.4137 21.19 42.2385C20.1518 44.0633 19.1764 45.4949 18.264 46.5331C17.3831 47.6029 16.628 48.1377 15.9987 48.1377ZM52.1868 46.1556C51.4632 46.1556 50.8025 45.8567 50.2047 45.2589C49.6383 44.6926 49.3552 43.733 49.3552 42.3801C49.3552 41.3733 49.4338 39.9732 49.5911 38.1798C49.7799 36.355 50.126 34.011 50.6294 31.1479C49.5282 33.4132 48.3798 35.4268 47.1843 37.1888C45.9887 38.9507 44.8088 40.335 43.6447 41.3418C42.5121 42.3172 41.4266 42.8048 40.3883 42.8048C38.7208 42.8048 37.3994 42.3014 36.4241 41.2946C35.4487 40.2564 34.9611 38.3214 34.9611 35.4898C34.9611 34.1369 35.0712 32.6109 35.2914 30.912C35.5431 29.213 35.8577 27.514 36.2353 25.815C36.6128 24.1161 36.9904 22.6059 37.3679 21.2844C37.777 19.9315 38.1388 18.9247 38.4534 18.264C38.7051 17.6977 39.0197 17.2572 39.3973 16.9426C39.8063 16.628 40.3254 16.4707 40.9547 16.4707C41.9615 16.4707 42.7323 16.801 43.2672 17.4617C43.802 18.1224 44.0695 18.7989 44.0695 19.4911C44.0695 20.0259 43.9436 20.7968 43.6919 21.8036C43.4717 22.8104 43.1885 23.9273 42.8424 25.1543C42.5278 26.3814 42.1974 27.6399 41.8514 28.9298C41.5053 30.2198 41.2064 31.4311 40.9547 32.5638C40.7344 33.6964 40.6243 34.656 40.6243 35.4426C40.6243 36.4179 41.0019 36.9056 41.757 36.9056C42.1974 36.9056 42.7638 36.4808 43.4559 35.6314C44.1796 34.7819 44.9347 33.6492 45.7212 32.2334C46.5393 30.7861 47.3573 29.213 48.1753 27.514C49.0248 25.7836 49.7957 24.0374 50.4878 22.2755C51.2115 20.4821 51.825 18.8303 52.3284 17.3201C52.643 16.3763 53.0678 15.7156 53.6026 15.338C54.1375 14.9605 54.751 14.7717 55.4432 14.7717C56.5129 14.7717 57.3309 15.0706 57.8973 15.6684C58.4951 16.2661 58.7939 17.1156 58.7939 18.2168C58.7939 18.7202 58.7153 19.5697 58.558 20.7653C58.4007 21.9609 58.1962 23.361 57.9445 24.9655C57.7242 26.5701 57.4568 28.2691 57.1422 30.0625C56.8275 31.8558 56.5129 33.6178 56.1983 35.3482C55.9151 37.0786 55.632 38.6675 55.3488 40.1148C55.0656 41.5306 54.8297 42.6632 54.6409 43.5127C54.3263 44.7712 53.9487 45.5263 53.5082 45.778C53.0678 46.0297 52.6273 46.1556 52.1868 46.1556ZM67.833 45.6365C65.8824 45.6365 64.3092 44.96 63.1137 43.6071C61.9181 42.2228 61.3203 40.0047 61.3203 36.9528C61.3203 35.0021 61.5405 33.0514 61.981 31.1007C62.4529 29.1186 63.0979 27.2466 63.916 25.4847C64.7654 23.6913 65.7408 22.1025 66.842 20.7181C67.9746 19.3337 69.2174 18.2483 70.5703 17.4617C71.9232 16.6437 73.3233 16.2347 74.7705 16.2347C77.2246 16.2347 79.1438 16.8954 80.5282 18.2168C81.9125 19.5383 82.6047 21.2215 82.6047 23.2666C82.6047 24.8397 82.1642 26.2712 81.2833 27.5612C80.4338 28.8197 79.2697 29.9524 77.7909 30.9592C76.3122 31.966 74.6604 32.8784 72.8356 33.6964C71.0108 34.5144 69.1387 35.2538 67.2195 35.9145C67.0622 37.0472 66.9836 38.054 66.9836 38.9349C66.9836 39.4698 67.2824 39.7372 67.8802 39.7372C69.2961 39.7372 70.8063 39.517 72.4108 39.0765C74.0469 38.6046 75.6987 38.0068 77.3662 37.2831C79.0337 36.528 80.6383 35.7572 82.18 34.9706C83.7216 34.1526 85.1217 33.3818 86.3802 32.6581C87.6702 31.903 88.7242 31.3053 89.5422 30.8648C90.3917 30.3928 90.9423 30.1569 91.194 30.1569C91.8862 30.1569 92.3896 30.3614 92.7042 30.7704C93.0188 31.1794 93.1761 31.6199 93.1761 32.0918C93.1761 32.3121 92.7514 32.7997 91.9019 33.5548C91.0839 34.3099 89.9512 35.2066 88.5039 36.2449C87.0881 37.2517 85.4835 38.3057 83.6902 39.4069C81.9283 40.4766 80.0877 41.4991 78.1685 42.4745C76.2807 43.4183 74.4402 44.1734 72.6468 44.7398C70.8849 45.3376 69.2803 45.6365 67.833 45.6365ZM68.0218 31.7143C69.3118 30.9592 70.586 30.1726 71.8445 29.3546C73.1345 28.5051 74.2042 27.5612 75.0537 26.5229C75.9032 25.4532 76.3279 24.2104 76.3279 22.7946C76.3279 22.3856 76.2178 22.1182 75.9976 21.9923C75.7773 21.835 75.4627 21.7564 75.0537 21.7564C73.9525 21.7564 72.9457 22.244 72.0333 23.2194C71.1523 24.1947 70.3658 25.4532 69.6736 26.9949C69.0129 28.5051 68.4623 30.0782 68.0218 31.7143ZM95.8301 46.3916C92.9984 46.3916 90.7646 45.5263 89.1285 43.7959C87.5239 42.034 86.7216 39.5327 86.7216 36.2921C86.7216 34.5302 86.9576 32.4694 87.4295 30.1097C87.9015 27.7185 88.515 25.2015 89.2701 22.5587C90.0567 19.8843 90.8904 17.2415 91.7714 14.6301C92.6838 12.0187 93.5805 9.59608 94.4614 7.36224C95.3424 5.1284 96.1132 3.25638 96.7739 1.74617C97.3403 0.58206 98.1426 2.71967e-06 99.1808 2.71967e-06C99.8415 2.71967e-06 100.376 0.20451 100.785 0.613523C101.226 1.02254 101.446 1.68325 101.446 2.59566C101.446 3.03614 101.226 3.99575 100.785 5.47449C100.345 6.95323 99.7629 8.77806 99.0392 10.949C98.3471 13.0884 97.592 15.4009 96.7739 17.8865C95.9874 20.372 95.2323 22.8733 94.5086 25.3903C93.8164 27.9073 93.2501 30.2827 92.8096 32.5166C92.3692 34.7189 92.1489 36.591 92.1489 38.1326C92.1489 38.7619 92.322 39.2653 92.6681 39.6428C93.0456 40.0204 93.5333 40.2092 94.1311 40.2092C95.421 40.2092 96.7425 39.9732 98.0954 39.5013C99.4797 39.0293 100.833 38.4315 102.154 37.7079C103.507 36.9842 104.781 36.2134 105.977 35.3954C107.172 34.5774 108.242 33.8065 109.186 33.0829C110.161 32.3278 110.948 31.73 111.546 31.2895C112.332 30.6917 112.867 30.3928 113.15 30.3928C114.22 30.3928 114.755 30.912 114.755 31.9502C114.755 32.2019 114.44 32.7211 113.811 33.5076C113.276 34.1998 112.521 35.0808 111.546 36.1505C110.57 37.2202 109.438 38.3529 108.148 39.5484C106.889 40.7126 105.536 41.8137 104.089 42.852C102.673 43.8903 101.257 44.7398 99.8415 45.4005C98.4257 46.0612 97.0886 46.3916 95.8301 46.3916ZM141.698 20.2462C141.698 20.6237 141.573 20.9541 141.321 21.2372C141.069 21.5204 140.755 21.7406 140.377 21.8979C139.842 22.1182 138.914 22.4013 137.593 22.7474C136.271 23.0935 134.667 23.4868 132.779 23.9273C130.922 24.3678 128.925 24.824 126.785 25.2959C124.646 25.7364 122.506 26.1611 120.367 26.5701C119.549 29.5905 118.715 32.7053 117.866 35.9145C117.016 39.0922 116.167 42.2228 115.317 45.3061C115.002 46.4073 114.625 47.241 114.184 47.8074C113.744 48.4052 112.989 48.7041 111.919 48.7041C110.755 48.7041 109.968 48.3265 109.559 47.5714C109.182 46.8478 109.135 45.8567 109.418 44.5982C110.236 41.1688 110.991 37.9753 111.683 35.0178C112.407 32.0604 112.989 29.6692 113.429 27.8444C111.542 28.159 109.89 28.4107 108.474 28.5995C107.058 28.7568 106.051 28.8197 105.454 28.7882C104.793 28.7253 104.242 28.4579 103.802 27.986C103.361 27.514 103.157 26.932 103.188 26.2398C103.251 25.6105 103.534 25.0757 104.038 24.6352C104.541 24.1633 105.139 23.8801 105.831 23.7857C106.806 23.6913 108.065 23.5497 109.607 23.361C111.148 23.1722 112.847 22.9519 114.704 22.7002C115.113 21.0957 115.584 19.4439 116.119 17.7449C116.654 16.0144 117.205 14.3627 117.771 12.7895C118.369 11.1849 118.935 9.78486 119.47 8.58928C120.005 7.3937 120.493 6.52848 120.933 5.99362C121.279 5.58461 121.704 5.26998 122.207 5.04974C122.742 4.8295 123.261 4.71939 123.765 4.71939C124.425 4.71939 124.96 4.95536 125.369 5.4273C125.778 5.89923 125.983 6.44983 125.983 7.07908C125.983 7.33078 125.967 7.59821 125.936 7.88137C125.904 8.13308 125.841 8.38478 125.747 8.63647C125.149 10.2096 124.504 12.1131 123.812 14.3469C123.151 16.5808 122.459 19.0349 121.735 21.7092C124.095 21.3631 126.408 21.017 128.673 20.6709C130.97 20.2934 133.046 19.9473 134.902 19.6326C136.79 19.2866 138.3 18.9877 139.433 18.736C140.062 18.5157 140.597 18.5629 141.038 18.8775C141.478 19.1607 141.698 19.6169 141.698 20.2462ZM132.791 45.8252C131.784 45.8252 130.872 45.5421 130.054 44.9757C129.236 44.4409 128.591 43.733 128.119 42.852C127.647 41.9396 127.411 40.9643 127.411 39.926C127.411 37.9753 127.836 36.0718 128.685 34.2155C129.566 32.3592 130.714 30.5973 132.13 28.9298C133.546 27.2623 135.088 25.7364 136.755 24.352C138.454 22.9362 140.137 21.7249 141.805 20.7181C143.504 19.7113 145.046 18.9247 146.43 18.3584C147.846 17.7921 148.947 17.5089 149.734 17.5089C150.646 17.5089 151.385 17.7134 151.952 18.1224C152.549 18.5 152.848 19.0978 152.848 19.9158C152.848 20.1675 152.785 20.372 152.66 20.5293C153.069 20.6237 153.399 20.8597 153.651 21.2372C153.902 21.6148 154.028 22.1811 154.028 22.9362C154.028 23.2508 153.95 24.0689 153.792 25.3903C153.635 26.7117 153.462 28.3163 153.273 30.2041C153.116 32.0918 153.037 34.0582 153.037 36.1033C153.037 36.4179 153.084 36.7011 153.179 36.9528C153.273 37.173 153.478 37.2831 153.792 37.2831C155.051 37.2831 156.325 37.0314 157.615 36.528C158.936 35.9932 160.211 35.3482 161.438 34.5931C162.696 33.8065 163.829 33.0357 164.836 32.2806C165.874 31.494 166.739 30.849 167.431 30.3456C168.155 29.8108 168.627 29.5433 168.847 29.5433C169.917 29.5433 170.452 30.0782 170.452 31.1479C170.452 31.4311 170.106 32.0289 169.413 32.9413C168.753 33.8223 167.84 34.8448 166.676 36.0089C165.512 37.1416 164.206 38.2742 162.759 39.4069C161.343 40.5081 159.864 41.4205 158.323 42.1441C156.813 42.8677 155.35 43.2296 153.934 43.2296C152.203 43.2296 150.882 42.8206 149.97 42.0025C149.089 41.1845 148.459 40.0833 148.082 38.699C147.736 37.2831 147.547 35.6943 147.515 33.9324C145.911 36.2291 144.243 38.2742 142.513 40.0676C140.814 41.8295 139.131 43.2296 137.463 44.2678C135.796 45.3061 134.238 45.8252 132.791 45.8252ZM149.498 22.1811C146.414 23.6599 143.646 25.3588 141.191 27.278C138.737 29.1658 136.787 31.1479 135.339 33.2245C133.924 35.301 133.216 37.2989 133.216 39.2181C133.216 39.753 133.467 40.0204 133.971 40.0204C134.569 40.0204 135.355 39.6743 136.33 38.9821C137.337 38.2899 138.423 37.3775 139.587 36.2449C140.751 35.0808 141.915 33.7908 143.079 32.375C144.243 30.9277 145.329 29.449 146.336 27.9388C147.342 26.4286 148.145 24.9813 148.742 23.5969C148.963 23.0935 149.214 22.6216 149.498 22.1811ZM184.555 45.8252C183.548 45.8252 182.636 45.5421 181.818 44.9757C181 44.4409 180.355 43.733 179.883 42.852C179.411 41.9396 179.175 40.9643 179.175 39.926C179.175 37.9753 179.599 36.0718 180.449 34.2155C181.33 32.3592 182.478 30.5973 183.894 28.9298C185.31 27.2623 186.852 25.7364 188.519 24.352C190.218 22.9362 191.901 21.7249 193.569 20.7181C195.268 19.7113 196.81 18.9247 198.194 18.3584C199.61 17.7921 200.711 17.5089 201.497 17.5089C202.41 17.5089 203.149 17.7134 203.716 18.1224C204.313 18.5 204.612 19.0978 204.612 19.9158C204.612 20.1675 204.549 20.372 204.423 20.5293C204.832 20.6237 205.163 20.8597 205.415 21.2372C205.666 21.6148 205.792 22.1811 205.792 22.9362C205.792 23.2508 205.713 24.0689 205.556 25.3903C205.399 26.7117 205.226 28.3163 205.037 30.2041C204.88 32.0918 204.801 34.0582 204.801 36.1033C204.801 36.4179 204.848 36.7011 204.943 36.9528C205.037 37.173 205.241 37.2831 205.556 37.2831C206.815 37.2831 208.089 37.0314 209.379 36.528C210.7 35.9932 211.974 35.3482 213.202 34.5931C214.46 33.8065 215.593 33.0357 216.599 32.2806C217.638 31.494 218.503 30.849 219.195 30.3456C219.919 29.8108 220.391 29.5433 220.611 29.5433C221.681 29.5433 222.216 30.0782 222.216 31.1479C222.216 31.4311 221.869 32.0289 221.177 32.9413C220.517 33.8223 219.604 34.8448 218.44 36.0089C217.276 37.1416 215.97 38.2742 214.523 39.4069C213.107 40.5081 211.628 41.4205 210.087 42.1441C208.577 42.8677 207.114 43.2296 205.698 43.2296C203.967 43.2296 202.646 42.8206 201.733 42.0025C200.852 41.1845 200.223 40.0833 199.846 38.699C199.5 37.2831 199.311 35.6943 199.279 33.9324C197.675 36.2291 196.007 38.2742 194.277 40.0676C192.578 41.8295 190.895 43.2296 189.227 44.2678C187.56 45.3061 186.002 45.8252 184.555 45.8252ZM201.261 22.1811C198.178 23.6599 195.409 25.3588 192.955 27.278C190.501 29.1658 188.551 31.1479 187.103 33.2245C185.687 35.301 184.98 37.2989 184.98 39.2181C184.98 39.753 185.231 40.0204 185.735 40.0204C186.332 40.0204 187.119 39.6743 188.094 38.9821C189.101 38.2899 190.187 37.3775 191.351 36.2449C192.515 35.0808 193.679 33.7908 194.843 32.375C196.007 30.9277 197.093 29.449 198.099 27.9388C199.106 26.4286 199.909 24.9813 200.506 23.5969C200.727 23.0935 200.978 22.6216 201.261 22.1811ZM224.157 46.3916C221.325 46.3916 219.091 45.5263 217.455 43.7959C215.851 42.034 215.048 39.5327 215.048 36.2921C215.048 34.5302 215.284 32.4694 215.756 30.1097C216.228 27.7185 216.842 25.2015 217.597 22.5587C218.383 19.8843 219.217 17.2415 220.098 14.6301C221.01 12.0187 221.907 9.59608 222.788 7.36224C223.669 5.1284 224.44 3.25638 225.101 1.74617C225.667 0.58206 226.469 2.71967e-06 227.508 2.71967e-06C228.168 2.71967e-06 228.703 0.20451 229.112 0.613523C229.553 1.02254 229.773 1.68325 229.773 2.59566C229.773 3.03614 229.553 3.99575 229.112 5.47449C228.672 6.95323 228.09 8.77806 227.366 10.949C226.674 13.0884 225.919 15.4009 225.101 17.8865C224.314 20.372 223.559 22.8733 222.835 25.3903C222.143 27.9073 221.577 30.2827 221.136 32.5166C220.696 34.7189 220.476 36.591 220.476 38.1326C220.476 38.7619 220.649 39.2653 220.995 39.6428C221.372 40.0204 221.86 40.2092 222.458 40.2092C223.748 40.2092 225.069 39.9732 226.422 39.5013C227.806 39.0293 229.159 38.4315 230.481 37.7079C231.834 36.9842 233.108 36.2134 234.303 35.3954C235.499 34.5774 236.569 33.8065 237.513 33.0829C238.488 32.3278 239.275 31.73 239.872 31.2895C240.659 30.6917 241.194 30.3928 241.477 30.3928C242.547 30.3928 243.081 30.912 243.081 31.9502C243.081 32.2019 242.767 32.7211 242.138 33.5076C241.603 34.1998 240.848 35.0808 239.872 36.1505C238.897 37.2202 237.764 38.3529 236.474 39.5484C235.216 40.7126 233.863 41.8137 232.416 42.852C231 43.8903 229.584 44.7398 228.168 45.4005C226.752 46.0612 225.415 46.3916 224.157 46.3916ZM276.486 35.5842C277.461 35.5842 278.153 35.8516 278.562 36.3865C278.971 36.8899 279.176 37.4247 279.176 37.991C279.176 38.7776 278.783 39.6114 277.996 40.4923C277.21 41.3733 276.187 42.1913 274.928 42.9464C273.701 43.67 272.38 44.2678 270.964 44.7398C269.548 45.2117 268.195 45.4477 266.906 45.4477C264.986 45.4477 263.146 44.9285 261.384 43.8903C259.653 42.8206 258.238 41.3261 257.136 39.4069C256.067 37.4876 255.532 35.2066 255.532 32.5638C255.532 30.3928 255.941 28.2377 256.759 26.0982C257.608 23.9587 258.725 21.8979 260.11 19.9158C261.525 17.9337 263.067 16.0931 264.735 14.3941C266.434 12.6951 268.133 11.2164 269.832 9.9579C271.562 8.6994 273.151 7.72406 274.598 7.03188C276.045 6.30825 277.21 5.94643 278.09 5.94643C279.192 5.94643 280.01 6.22959 280.545 6.79592C281.111 7.33078 281.394 8.08588 281.394 9.06122C281.394 9.84778 281.237 10.4613 280.922 10.9018C280.639 11.3108 280.183 11.6726 279.553 11.9872C277.54 13.0255 275.495 14.284 273.418 15.7627C271.373 17.2415 269.501 18.8775 267.802 20.6709C266.103 22.4328 264.735 24.2891 263.696 26.2398C262.658 28.1905 262.139 30.1726 262.139 32.1862C262.139 34.3886 262.579 36.0561 263.46 37.1888C264.341 38.3214 265.537 38.8877 267.047 38.8877C267.802 38.8877 268.62 38.7304 269.501 38.4158C270.382 38.0697 271.247 37.6764 272.097 37.2359C272.978 36.7955 273.796 36.4179 274.551 36.1033C275.337 35.7572 275.982 35.5842 276.486 35.5842ZM289.807 45.5893C287.573 45.5893 285.78 44.8027 284.427 43.2296C283.074 41.625 282.398 39.4855 282.398 36.8112C282.398 35.9617 282.508 35.0965 282.728 34.2155C282.98 33.3346 283.279 32.5166 283.625 31.7615C283.436 31.4783 283.279 31.1165 283.153 30.676C283.058 30.2041 283.011 29.6535 283.011 29.0242C283.011 26.9792 283.373 25.1071 284.097 23.4082C284.82 21.6777 285.796 20.1832 287.023 18.9247C288.25 17.6662 289.603 16.6909 291.081 15.9987C292.56 15.3065 294.055 14.9604 295.565 14.9604C298.145 14.9604 300.253 15.8257 301.889 17.5561C303.556 19.2866 304.39 21.9766 304.39 25.6263C304.39 27.4511 304.107 29.3074 303.54 31.1951C302.974 33.0829 302.203 34.892 301.228 36.6224C300.284 38.3214 299.183 39.8473 297.924 41.2002C296.697 42.5531 295.376 43.6228 293.96 44.4094C292.576 45.196 291.191 45.5893 289.807 45.5893ZM289.052 29.6377C289.209 29.9838 289.288 30.3928 289.288 30.8648C289.288 31.3367 289.194 31.8244 289.005 32.3278C288.816 32.8312 288.627 33.5076 288.438 34.3571C288.25 35.1751 288.155 36.355 288.155 37.8967C288.155 38.3057 288.202 38.6518 288.297 38.9349C288.423 39.1866 288.69 39.3125 289.099 39.3125C290.169 39.3125 291.176 38.9664 292.12 38.2742C293.095 37.582 293.96 36.6696 294.715 35.537C295.502 34.4043 296.163 33.1458 296.697 31.7615C297.264 30.3456 297.688 28.9141 297.972 27.4668C298.286 25.9881 298.444 24.6195 298.444 23.361C298.444 22.5429 298.286 21.9766 297.972 21.662C297.657 21.3474 297.106 21.19 296.32 21.19C295.25 21.19 294.149 21.5361 293.016 22.2283C291.915 22.889 290.987 23.8014 290.232 24.9655C289.477 26.0982 289.099 27.3882 289.099 28.8354C289.099 29.1186 289.083 29.386 289.052 29.6377ZM316.024 46.3916C313.193 46.3916 310.959 45.5263 309.323 43.7959C307.718 42.034 306.916 39.5327 306.916 36.2921C306.916 34.5302 307.152 32.4694 307.624 30.1097C308.096 27.7185 308.709 25.2015 309.464 22.5587C310.251 19.8843 311.085 17.2415 311.966 14.6301C312.878 12.0187 313.775 9.59608 314.656 7.36224C315.537 5.1284 316.308 3.25638 316.968 1.74617C317.535 0.58206 318.337 2.71967e-06 319.375 2.71967e-06C320.036 2.71967e-06 320.571 0.20451 320.98 0.613523C321.42 1.02254 321.64 1.68325 321.64 2.59566C321.64 3.03614 321.42 3.99575 320.98 5.47449C320.539 6.95323 319.957 8.77806 319.234 10.949C318.541 13.0884 317.786 15.4009 316.968 17.8865C316.182 20.372 315.427 22.8733 314.703 25.3903C314.011 27.9073 313.444 30.2827 313.004 32.5166C312.563 34.7189 312.343 36.591 312.343 38.1326C312.343 38.7619 312.516 39.2653 312.862 39.6428C313.24 40.0204 313.728 40.2092 314.325 40.2092C315.615 40.2092 316.937 39.9732 318.29 39.5013C319.674 39.0293 321.027 38.4315 322.348 37.7079C323.701 36.9842 324.975 36.2134 326.171 35.3954C327.367 34.5774 328.436 33.8065 329.38 33.0829C330.356 32.3278 331.142 31.73 331.74 31.2895C332.526 30.6917 333.061 30.3928 333.344 30.3928C334.414 30.3928 334.949 30.912 334.949 31.9502C334.949 32.2019 334.634 32.7211 334.005 33.5076C333.47 34.1998 332.715 35.0808 331.74 36.1505C330.765 37.2202 329.632 38.3529 328.342 39.5484C327.083 40.7126 325.731 41.8137 324.283 42.852C322.867 43.8903 321.452 44.7398 320.036 45.4005C318.62 46.0612 317.283 46.3916 316.024 46.3916ZM334.629 45.6365C332.679 45.6365 331.106 44.96 329.91 43.6071C328.714 42.2228 328.117 40.0047 328.117 36.9528C328.117 35.0021 328.337 33.0514 328.777 31.1007C329.249 29.1186 329.894 27.2466 330.712 25.4847C331.562 23.6913 332.537 22.1025 333.638 20.7181C334.771 19.3337 336.014 18.2483 337.367 17.4617C338.72 16.6437 340.12 16.2347 341.567 16.2347C344.021 16.2347 345.94 16.8954 347.325 18.2168C348.709 19.5383 349.401 21.2215 349.401 23.2666C349.401 24.8397 348.961 26.2712 348.08 27.5612C347.23 28.8197 346.066 29.9524 344.587 30.9592C343.109 31.966 341.457 32.8784 339.632 33.6964C337.807 34.5144 335.935 35.2538 334.016 35.9145C333.859 37.0472 333.78 38.054 333.78 38.9349C333.78 39.4698 334.079 39.7372 334.677 39.7372C336.092 39.7372 337.603 39.517 339.207 39.0765C340.843 38.6046 342.495 38.0068 344.163 37.2831C345.83 36.528 347.435 35.7572 348.976 34.9706C350.518 34.1526 351.918 33.3818 353.177 32.6581C354.467 31.903 355.521 31.3053 356.339 30.8648C357.188 30.3928 357.739 30.1569 357.99 30.1569C358.683 30.1569 359.186 30.3614 359.501 30.7704C359.815 31.1794 359.973 31.6199 359.973 32.0918C359.973 32.3121 359.548 32.7997 358.698 33.5548C357.88 34.3099 356.748 35.2066 355.3 36.2449C353.885 37.2517 352.28 38.3057 350.487 39.4069C348.725 40.4766 346.884 41.4991 344.965 42.4745C343.077 43.4183 341.237 44.1734 339.443 44.7398C337.681 45.3376 336.077 45.6365 334.629 45.6365ZM334.818 31.7143C336.108 30.9592 337.382 30.1726 338.641 29.3546C339.931 28.5051 341.001 27.5612 341.85 26.5229C342.7 25.4532 343.124 24.2104 343.124 22.7946C343.124 22.3856 343.014 22.1182 342.794 21.9923C342.574 21.835 342.259 21.7564 341.85 21.7564C340.749 21.7564 339.742 22.244 338.83 23.2194C337.949 24.1947 337.162 25.4532 336.47 26.9949C335.809 28.5051 335.259 30.0782 334.818 31.7143Z" fill="white"/>
<path d="M16.1659 85.9413C15.1271 85.9413 14.2274 85.7002 13.4669 85.2179C12.7064 84.7541 12.1221 84.1513 11.714 83.4093C11.3059 82.6488 11.1018 81.8697 11.1018 81.0721C11.1018 79.7365 11.3059 78.5029 11.714 77.3714C12.1221 76.2214 12.66 75.1826 13.3278 74.2551C13.9956 73.3091 14.719 72.4744 15.4981 71.7509C16.2957 71.0275 17.0655 70.4246 17.8075 69.9423C18.568 69.4415 19.2451 69.0705 19.8387 68.8294C20.4323 68.5697 20.8682 68.4398 21.1464 68.4398C21.6472 68.4398 21.9997 68.5511 22.2037 68.7737C22.4263 68.9778 22.5376 69.3209 22.5376 69.8032C22.5376 70.0815 22.3336 70.4154 21.9255 70.8049C21.5359 71.1944 21.0166 71.6396 20.3673 72.1405C19.7366 72.6413 19.0689 73.2071 18.364 73.8377C17.6591 74.4684 16.982 75.1733 16.3328 75.9524C15.7021 76.7315 15.1827 77.5847 14.7746 78.5122C14.3851 79.4397 14.1903 80.4506 14.1903 81.5451C14.1903 81.9532 14.2645 82.2685 14.4129 82.4911C14.5799 82.7137 14.8488 82.825 15.2198 82.825C16.2772 82.825 17.4087 82.6395 18.6144 82.2685C19.8387 81.879 21.0537 81.3967 22.2594 80.8216C23.4836 80.2281 24.6337 79.6159 25.7096 78.9852C26.804 78.3546 27.7408 77.7888 28.5198 77.288C28.8352 77.0654 29.1042 76.8891 29.3268 76.7593C29.5493 76.6294 29.707 76.5645 29.7998 76.5645C30.3563 76.5645 30.6345 76.852 30.6345 77.4271C30.6345 77.7239 30.4119 78.1227 29.9667 78.6235C29.4473 79.2728 28.7424 79.9405 27.8521 80.6269C26.9802 81.3132 26.0064 81.9717 24.9305 82.6024C23.8732 83.2331 22.788 83.7988 21.6751 84.2997C20.5806 84.8005 19.5511 85.1993 18.5866 85.4961C17.622 85.7929 16.8151 85.9413 16.1659 85.9413ZM43.6097 86.5813C42.8863 86.5813 42.3577 86.3865 42.0238 85.997C41.6899 85.626 41.5229 84.8747 41.5229 83.7432C41.5229 82.7786 41.6806 81.5265 41.9959 79.9869C42.3113 78.4473 42.6637 76.7871 43.0533 75.0064C40.9943 77.3065 38.6199 78.7719 35.9302 79.4026C35.3923 80.5156 34.7616 81.5358 34.0382 82.4633C33.3148 83.3908 32.5264 84.142 31.6731 84.717C30.8384 85.2735 29.9666 85.5518 29.0576 85.5518C27.9261 85.5518 26.9523 85.1808 26.1361 84.4388C25.3385 83.6968 24.9396 82.556 24.9396 81.0164C24.9396 79.9776 25.0973 79.0965 25.4127 78.3731C25.728 77.6311 26.0897 77.0746 26.4978 76.7036C26.1639 75.9988 25.997 75.1919 25.997 74.2829C25.997 73.0587 26.3309 71.9735 26.9986 71.0275C27.6664 70.0815 28.5475 69.3395 29.6419 68.8015C30.7549 68.2636 31.9606 67.9946 33.2591 67.9946C33.9825 67.9946 34.6689 68.1801 35.3181 68.5511C35.9859 68.9036 36.5238 69.4508 36.9319 70.1928C37.3586 70.9162 37.5719 71.8344 37.5719 72.9474C37.5719 73.8748 37.4328 74.8951 37.1545 76.008C38.4715 75.229 39.77 74.1624 41.0499 72.8082C42.3484 71.4541 43.5077 69.9331 44.528 68.2451C44.8433 67.7442 45.2885 67.4938 45.8635 67.4938C46.3458 67.4938 46.7261 67.6422 47.0043 67.939C47.3011 68.2172 47.4495 68.5882 47.4495 69.052C47.4495 69.1447 47.3939 69.4508 47.2826 69.9702C47.1713 70.4896 47.0229 71.1666 46.8374 72.0013C46.6519 72.8175 46.4478 73.7172 46.2252 74.7003C46.0212 75.6834 45.8171 76.6851 45.6131 77.7053C45.4091 78.7255 45.2236 79.6901 45.0566 80.599C45.5389 79.7272 46.0583 78.7997 46.6148 77.8166C47.1898 76.8149 47.7834 75.8318 48.3955 74.8672C49.0077 73.8841 49.6105 72.9937 50.2041 72.1961C50.7977 71.3985 51.3449 70.7678 51.8457 70.3041C52.3466 69.8218 52.7732 69.5806 53.1257 69.5806C53.8305 69.5806 54.4241 69.7847 54.9064 70.1928C55.3887 70.6008 55.6298 71.0182 55.6298 71.4449C55.6298 71.8715 55.5835 72.53 55.4907 73.4204C55.398 74.3108 55.2774 75.3124 55.129 76.4254C54.9992 77.5198 54.86 78.6235 54.7116 79.7365C54.5632 80.8495 54.4427 81.8604 54.3499 82.7693C54.2572 83.6597 54.2108 84.3275 54.2108 84.7727C54.2108 85.1437 54.0346 85.4961 53.6821 85.83C53.3297 86.1639 52.9309 86.3309 52.4857 86.3309C52.4486 86.3309 52.3837 86.3309 52.2909 86.3309C52.0683 86.3494 51.8643 86.3123 51.6788 86.2196C51.4933 86.1454 51.3356 85.8671 51.2058 85.3848C51.0945 84.9025 51.0388 84.0864 51.0388 82.9363C51.0388 82.1572 51.0759 81.3039 51.1501 80.3765C51.2243 79.449 51.3171 78.5215 51.4284 77.594C51.5582 76.648 51.6973 75.7669 51.8457 74.9507C51.3635 75.7483 50.8255 76.6573 50.2319 77.6775C49.6569 78.6792 49.054 79.7087 48.4234 80.766C47.7927 81.8048 47.1713 82.7693 46.5591 83.6597C45.9655 84.5315 45.4091 85.2364 44.8897 85.7744C44.3888 86.3123 43.9622 86.5813 43.6097 86.5813ZM33.1478 77.288C33.389 76.5645 33.5837 75.8133 33.7321 75.0342C33.8805 74.2366 33.9547 73.4575 33.9547 72.6969C33.9547 72.3816 33.8898 72.0755 33.7599 71.7787C33.6301 71.482 33.4075 71.3336 33.0922 71.3336C32.4615 71.3336 31.8401 71.4634 31.2279 71.7231C30.6343 71.9828 30.1428 72.3538 29.7532 72.8361C29.3637 73.3184 29.1689 73.8934 29.1689 74.5612C29.1689 75.1548 29.3637 75.6556 29.7532 76.0637C30.1613 76.4718 30.6622 76.7778 31.2558 76.9819C31.8679 77.1859 32.4708 77.288 33.0643 77.288C33.0829 77.288 33.1107 77.288 33.1478 77.288ZM32.007 79.7365C31.3578 79.7179 30.7271 79.6345 30.115 79.4861C29.5028 79.3191 28.9463 79.0873 28.4455 78.7905C28.3899 79.0873 28.3342 79.3748 28.2786 79.653C28.2229 79.9127 28.1951 80.1631 28.1951 80.4043C28.1951 80.8124 28.26 81.1834 28.3899 81.5172C28.5383 81.8326 28.835 81.9903 29.2802 81.9903C29.744 81.9903 30.2077 81.7862 30.6714 81.3781C31.1537 80.97 31.5989 80.4228 32.007 79.7365Z" fill="white"/>
<path d="M348.267 63.6346C334.566 75.0399 318.638 87.0844 304.942 98.4897C306.173 90.7281 305.288 88.4908 305.8 80.6493C317.072 72.4562 336.228 66.7829 348.267 63.6346Z" fill="#BFE1FF"/>
<path d="M304.942 98.4898L311.01 84.0428L326.671 81.0117L304.942 98.4898Z" fill="#0274B9"/>
<path d="M290.442 68.5302C295.38 72.6747 300.35 75.237 305.8 80.6493C318.723 75.4022 335.344 68.8818 348.267 63.6346C338.306 71.2044 322.697 79.5733 311.01 84.0374C314.877 88.4269 326.149 94.4731 329.671 98.527C340.959 81.555 343.137 72.4563 348.267 63.6346C331.599 63.1126 307.057 67.0813 290.442 68.5302Z" fill="#F5F5F5"/>
<path d="M260.902 85.6178C262.666 80.633 268.644 78.9593 278.433 80.503C290.668 82.4326 296.54 94.885 309.106 88.1313" stroke="white" stroke-width="0.716245" stroke-dasharray="5.01 5.01"/>
<path d="M227.572 87.29V93.1388C224.645 94.6728 221.374 95.4292 218.071 95.3352C216.009 95.3682 213.957 95.0442 212.005 94.3774C210.294 93.7927 208.733 92.8378 207.433 91.5808C206.162 90.2948 205.194 88.7418 204.598 87.0346C203.911 85.1093 203.574 83.0767 203.602 81.0327C203.57 78.4897 204.066 75.9677 205.058 73.626C205.956 71.4762 207.472 69.6409 209.413 68.3519C211.504 67.0216 213.946 66.3498 216.423 66.4236C221.251 66.4236 224.656 67.8794 226.64 70.791C228.623 73.7026 229.606 77.8146 229.589 83.127H210.524C210.55 84.0942 210.773 85.0459 211.179 85.9241C211.585 86.8023 212.166 87.5886 212.886 88.235C214.436 89.5068 216.4 90.1616 218.403 90.0739C221.645 89.9322 224.798 88.9747 227.572 87.29ZM210.524 78.1466H222.757C222.725 76.4586 222.172 74.8219 221.174 73.46C220.655 72.8452 219.998 72.3616 219.257 72.0487C218.516 71.7358 217.711 71.6024 216.909 71.6594C216.074 71.6109 215.238 71.7446 214.46 72.0511C213.681 72.3576 212.979 72.8296 212.401 73.4344C211.263 74.7482 210.605 76.4099 210.536 78.1466H210.524Z" fill="white"/>
<path d="M174.358 94.6968V56.7695H183.744C186.298 56.7695 188.508 56.8462 190.257 57.0122C191.972 57.1693 193.654 57.5781 195.25 58.2253C196.818 58.8378 198.157 59.9221 199.081 61.3285C200.096 63.0488 200.585 65.0289 200.486 67.0239C200.498 68.4497 200.174 69.8583 199.541 71.1359C198.905 72.3899 197.965 73.4652 196.808 74.2646C195.575 75.1123 194.156 75.651 192.671 75.8353V75.9247C194.229 76.0396 195.57 77.355 196.681 79.8451L202.708 94.6968H194.229L189.67 82.8461C189.375 82.0406 188.985 81.2733 188.508 80.5603C188.117 79.9932 187.572 79.55 186.937 79.2833C186.117 78.9973 185.251 78.8674 184.383 78.9002H181.944V94.6968H174.358ZM181.957 62.7715V72.9876H184.447C186.446 73.0634 188.438 72.7016 190.283 71.9277C191.751 71.2381 192.492 69.8334 192.492 67.7135C192.605 66.9028 192.455 66.0773 192.064 65.358C191.673 64.6387 191.062 64.0634 190.321 63.7165C188.443 63.0251 186.447 62.7084 184.447 62.7843L181.957 62.7715Z" fill="white"/>
<path d="M165.037 88.5161V93.6241L163.479 94.2116C162.878 94.4287 162.202 94.6202 161.563 94.799C159.894 95.2198 158.177 95.4215 156.455 95.3992C153.704 95.4893 150.976 94.8645 148.538 93.5858C146.461 92.4266 144.807 90.638 143.813 88.4778C142.728 86.0049 142.2 83.3237 142.267 80.6241C142.195 78.1162 142.73 75.6278 143.825 73.3707C144.821 71.3308 146.387 69.6231 148.333 68.4542C150.373 67.2485 152.707 66.6339 155.076 66.6792C157.578 66.5601 160.053 67.2447 162.138 68.633C163.959 69.9834 165.302 71.8805 165.969 74.0475C166.785 76.6671 167.178 79.4003 167.131 82.1438H147.593C147.58 83.7976 148.022 85.423 148.87 86.8432C149.663 88.2049 150.81 89.3259 152.19 90.0868C153.542 90.8625 155.075 91.2677 156.634 91.2617C158.277 91.2376 159.903 90.9219 161.435 90.3294C162.735 89.9255 163.959 89.3131 165.062 88.5161H165.037ZM147.593 78.3766H161.755C161.767 77.0564 161.493 75.7491 160.95 74.5456C160.443 73.4192 159.623 72.4619 158.588 71.7872C157.496 71.1137 156.23 70.7762 154.948 70.8167C153.562 70.7706 152.195 71.159 151.041 71.9277C150.035 72.6152 149.225 73.5526 148.691 74.6477C148.141 75.8118 147.787 77.0588 147.644 78.3383L147.593 78.3766Z" fill="white"/>
<path d="M131.655 56.6929H136.699V94.6968H131.655V56.6929Z" fill="white"/>
<path d="M123.559 88.5415V93.6496C123.125 93.8284 122.614 94.0071 122.014 94.237C121.414 94.4669 120.737 94.6457 120.099 94.8244C119.46 95.0032 118.668 95.1309 117.825 95.2586C116.868 95.378 115.904 95.4335 114.939 95.4246C112.188 95.5147 109.46 94.8899 107.022 93.6113C104.946 92.4521 103.291 90.6634 102.297 88.5032C101.214 86.0299 100.686 83.349 100.752 80.6496C100.691 78.1288 101.243 75.631 102.361 73.3706C103.357 71.3307 104.923 69.623 106.869 68.4541C108.902 67.2575 111.227 66.6475 113.586 66.6918C116.072 66.5875 118.527 67.2762 120.597 68.6584C122.418 70.0089 123.76 71.906 124.428 74.073C125.244 76.6925 125.636 79.4258 125.59 82.1692H106.051C106.034 83.8237 106.476 85.4505 107.328 86.8686C108.12 88.227 109.262 89.3474 110.636 90.1123C111.994 90.8823 113.531 91.2829 115.093 91.2743C116.735 91.2551 118.361 90.9438 119.894 90.3549C121.191 89.9542 122.412 89.3414 123.508 88.5415H123.559ZM106.128 78.4021H120.29C120.304 77.0803 120.025 75.7719 119.473 74.571C118.975 73.4044 118.138 72.4148 117.069 71.7314C116.001 71.048 114.751 70.7025 113.484 70.74C112.097 70.6939 110.731 71.0823 109.576 71.851C108.534 72.5595 107.701 73.534 107.162 74.6732C106.621 75.8395 106.271 77.0858 106.128 78.3637V78.4021Z" fill="white"/>
<path d="M253.942 94.7351V91.8362H253.827C252.772 93.0207 251.462 93.9508 249.995 94.5568C248.529 95.1628 246.944 95.4289 245.361 95.3353C243.534 95.3855 241.721 95.014 240.061 94.2498C238.628 93.5678 237.389 92.5357 236.46 91.2488C235.512 89.9588 234.822 88.4974 234.429 86.9453C233.561 83.5477 233.561 79.9863 234.429 76.5887C234.822 75.0523 235.512 73.6076 236.46 72.3363C237.396 71.0783 238.635 70.0769 240.061 69.4247C241.724 68.6744 243.537 68.312 245.361 68.3648C246.917 68.3139 248.465 68.6108 249.892 69.2337C251.319 69.8567 252.589 70.7901 253.61 71.9659H253.712V56.6418H260.902V94.7351H253.942ZM241.274 81.7989C241.242 83.8242 241.739 85.8228 242.717 87.5966C243.164 88.419 243.836 89.0965 244.655 89.5491C245.475 90.0016 246.406 90.2104 247.34 90.1506C248.676 90.2055 249.982 89.7488 250.992 88.8736C251.942 88.018 252.648 86.9249 253.035 85.7066C253.453 84.4418 253.664 83.1181 253.661 81.7862C253.654 80.8128 253.529 79.8439 253.291 78.9001C253.045 77.9575 252.657 77.0576 252.142 76.2312C251.624 75.4435 250.934 74.7841 250.124 74.3029C249.246 73.8016 248.248 73.5499 247.238 73.575C245.942 73.5254 244.677 73.9835 243.713 74.852C242.82 75.7145 242.173 76.7986 241.836 77.9934C241.463 79.2361 241.273 80.5269 241.274 81.8245V81.7989Z" fill="white"/>
<path d="M88.467 61.4179H76.6292V56.6163H105.758V61.4179H93.9199V94.6202H88.467V61.4179Z" fill="white"/>
</svg>
