<svg width="338" height="115" viewBox="0 0 338 115" fill="none" xmlns="http://www.w3.org/2000/svg">
<path d="M10.7835 29L1.33478e-05 3.4984H9.25345L18.0333 25.029H12.5322L21.5671 3.4984H30.019L19.2355 29H10.7835ZM37.0858 29.3643C35.5071 29.3643 34.0742 29.0486 32.7869 28.4171C31.524 27.7614 30.5282 26.7534 29.7996 25.3933C29.071 24.009 28.7067 22.236 28.7067 20.0744V9.07232H36.9401V18.6536C36.9401 20.0623 37.1708 21.0459 37.6322 21.6045C38.0937 22.1631 38.7252 22.4424 39.5266 22.4424C40.0124 22.4424 40.4617 22.321 40.8746 22.0781C41.3118 21.811 41.6639 21.386 41.9311 20.8031C42.1982 20.1959 42.3318 19.4065 42.3318 18.4351V9.07232H50.5652V29H42.7326V23.2439L44.2991 24.8105C43.5948 26.3648 42.5868 27.5185 41.2753 28.2714C39.9881 29 38.5916 29.3643 37.0858 29.3643ZM64.1263 29.3643C61.6976 29.3643 59.5724 28.915 57.7509 28.0164C55.9536 27.1177 54.5571 25.8912 53.5613 24.3368C52.5656 22.7582 52.0677 20.9852 52.0677 19.0179C52.0677 17.0021 52.5534 15.217 53.5249 13.6626C54.5207 12.1082 55.8686 10.8939 57.5687 10.0195C59.2931 9.14518 61.224 8.70801 63.3612 8.70801C65.3285 8.70801 67.1379 9.09661 68.7894 9.8738C70.4653 10.651 71.8011 11.8046 72.7968 13.3347C73.8169 14.8648 74.3269 16.7592 74.3269 19.0179C74.3269 19.3094 74.3148 19.6373 74.2905 20.0016C74.2662 20.3416 74.2419 20.6573 74.2176 20.9488H58.8803V16.9778H69.8459L66.7493 18.0343C66.7493 17.2571 66.6036 16.6014 66.3121 16.067C66.045 15.5084 65.6685 15.0834 65.1828 14.792C64.697 14.4762 64.1142 14.3184 63.4341 14.3184C62.7541 14.3184 62.159 14.4762 61.649 14.792C61.1633 15.0834 60.7868 15.5084 60.5196 16.067C60.2525 16.6014 60.1189 17.2571 60.1189 18.0343V19.273C60.1189 20.123 60.2889 20.8516 60.6289 21.4588C60.969 22.066 61.4547 22.5275 62.0862 22.8432C62.7176 23.1346 63.4827 23.2804 64.3813 23.2804C65.3042 23.2804 66.0571 23.1589 66.64 22.916C67.2472 22.6732 67.8787 22.3089 68.5344 21.8231L72.8333 26.1584C71.8618 27.2027 70.6596 28.0042 69.2266 28.5628C67.818 29.0971 66.1178 29.3643 64.1263 29.3643ZM75.8323 29V1.9683H84.0656V29H75.8323ZM96.2398 29.3643C93.4954 29.3643 91.3581 28.7086 89.828 27.397C88.2979 26.0612 87.5328 24.0211 87.5328 21.2767V4.59132H95.7662V21.2038C95.7662 21.811 95.9241 22.2846 96.2398 22.6246C96.5798 22.9646 96.9927 23.1346 97.4785 23.1346C98.1828 23.1346 98.8021 22.9525 99.3364 22.5882L101.304 28.3078C100.672 28.6721 99.9072 28.9393 99.0086 29.1093C98.1342 29.2793 97.2113 29.3643 96.2398 29.3643ZM84.8005 15.0834V9.07232H99.8465V15.0834H84.8005ZM113.811 29V25.4662L113.228 24.519V17.8157C113.228 16.8442 112.924 16.1035 112.317 15.5934C111.734 15.0834 110.775 14.8284 109.439 14.8284C108.541 14.8284 107.63 14.9741 106.707 15.2656C105.784 15.5327 104.995 15.9092 104.339 16.3949L101.716 10.9667C102.882 10.2381 104.278 9.6795 105.905 9.29091C107.533 8.90231 109.123 8.70801 110.678 8.70801C114.102 8.70801 116.75 9.47306 118.62 11.0032C120.514 12.5333 121.461 14.962 121.461 18.2893V29H113.811ZM108.164 29.3643C106.537 29.3643 105.177 29.085 104.084 28.5264C102.991 27.9678 102.165 27.227 101.607 26.3041C101.048 25.3569 100.769 24.3126 100.769 23.1711C100.769 21.8838 101.096 20.7909 101.752 19.8923C102.408 18.9937 103.404 18.3136 104.74 17.8522C106.1 17.3907 107.812 17.16 109.876 17.16H114.029V21.1309H111.188C110.314 21.1309 109.67 21.2767 109.257 21.5681C108.868 21.8353 108.674 22.2481 108.674 22.8068C108.674 23.2682 108.844 23.6568 109.184 23.9725C109.548 24.264 110.034 24.4097 110.641 24.4097C111.2 24.4097 111.71 24.264 112.171 23.9725C112.657 23.6568 113.009 23.1711 113.228 22.5153L114.284 24.9562C113.969 26.4377 113.301 27.5428 112.281 28.2714C111.261 29 109.888 29.3643 108.164 29.3643ZM145.815 29V25.4662L145.232 24.519V17.8157C145.232 16.8442 144.928 16.1035 144.321 15.5934C143.738 15.0834 142.779 14.8284 141.443 14.8284C140.544 14.8284 139.633 14.9741 138.711 15.2656C137.788 15.5327 136.998 15.9092 136.343 16.3949L133.719 10.9667C134.885 10.2381 136.282 9.6795 137.909 9.29091C139.536 8.90231 141.127 8.70801 142.681 8.70801C146.106 8.70801 148.753 9.47306 150.623 11.0032C152.518 12.5333 153.465 14.962 153.465 18.2893V29H145.815ZM140.168 29.3643C138.541 29.3643 137.18 29.085 136.087 28.5264C134.995 27.9678 134.169 27.227 133.61 26.3041C133.052 25.3569 132.772 24.3126 132.772 23.1711C132.772 21.8838 133.1 20.7909 133.756 19.8923C134.412 18.9937 135.407 18.3136 136.743 17.8522C138.103 17.3907 139.816 17.16 141.88 17.16H146.033V21.1309H143.192C142.317 21.1309 141.674 21.2767 141.261 21.5681C140.872 21.8353 140.678 22.2481 140.678 22.8068C140.678 23.2682 140.848 23.6568 141.188 23.9725C141.552 24.264 142.038 24.4097 142.645 24.4097C143.204 24.4097 143.714 24.264 144.175 23.9725C144.661 23.6568 145.013 23.1711 145.232 22.5153L146.288 24.9562C145.972 26.4377 145.304 27.5428 144.284 28.2714C143.264 29 141.892 29.3643 140.168 29.3643ZM155.93 29V1.9683H164.164V29H155.93ZM189.992 29.5829C187.952 29.5829 186.058 29.2672 184.309 28.6357C182.585 27.9799 181.079 27.057 179.792 25.8669C178.529 24.6769 177.545 23.2682 176.841 21.641C176.136 20.0137 175.784 18.2165 175.784 16.2492C175.784 14.2819 176.136 12.4847 176.841 10.8574C177.545 9.23019 178.529 7.82153 179.792 6.63145C181.079 5.44138 182.585 4.53061 184.309 3.89914C186.058 3.24338 187.952 2.9155 189.992 2.9155C192.494 2.9155 194.704 3.35267 196.623 4.22702C198.566 5.10136 200.169 6.36429 201.432 8.01582L196.003 12.8611C195.251 11.9139 194.413 11.1853 193.49 10.6753C192.591 10.141 191.571 9.8738 190.43 9.8738C189.531 9.8738 188.717 10.0195 187.989 10.311C187.26 10.6024 186.629 11.0274 186.094 11.586C185.584 12.1447 185.183 12.8247 184.892 13.6262C184.601 14.4034 184.455 15.2777 184.455 16.2492C184.455 17.2207 184.601 18.1072 184.892 18.9087C185.183 19.6858 185.584 20.3537 186.094 20.9123C186.629 21.471 187.26 21.896 187.989 22.1874C188.717 22.4789 189.531 22.6246 190.43 22.6246C191.571 22.6246 192.591 22.3696 193.49 21.8596C194.413 21.3252 195.251 20.5845 196.003 19.6373L201.432 24.4826C200.169 26.1098 198.566 27.3728 196.623 28.2714C194.704 29.1457 192.494 29.5829 189.992 29.5829ZM212.276 29.3643C210.018 29.3643 208.014 28.9271 206.265 28.0528C204.541 27.1542 203.181 25.9277 202.185 24.3733C201.189 22.8189 200.691 21.0338 200.691 19.0179C200.691 17.0021 201.189 15.217 202.185 13.6626C203.181 12.1082 204.541 10.8939 206.265 10.0195C208.014 9.14518 210.018 8.70801 212.276 8.70801C214.535 8.70801 216.539 9.14518 218.287 10.0195C220.036 10.8939 221.396 12.1082 222.368 13.6626C223.363 15.217 223.861 17.0021 223.861 19.0179C223.861 21.0338 223.363 22.8189 222.368 24.3733C221.396 25.9277 220.036 27.1542 218.287 28.0528C216.539 28.9271 214.535 29.3643 212.276 29.3643ZM212.276 22.9525C212.884 22.9525 213.43 22.8068 213.916 22.5153C214.401 22.2239 214.79 21.7867 215.082 21.2038C215.373 20.5966 215.519 19.868 215.519 19.0179C215.519 18.1436 215.373 17.4271 215.082 16.8685C214.79 16.2856 214.401 15.8485 213.916 15.557C213.43 15.2656 212.884 15.1198 212.276 15.1198C211.669 15.1198 211.123 15.2656 210.637 15.557C210.151 15.8485 209.763 16.2856 209.471 16.8685C209.18 17.4271 209.034 18.1436 209.034 19.0179C209.034 19.868 209.18 20.5966 209.471 21.2038C209.763 21.7867 210.151 22.2239 210.637 22.5153C211.123 22.8068 211.669 22.9525 212.276 22.9525ZM225.345 29V1.9683H233.579V29H225.345ZM247.137 29.3643C244.709 29.3643 242.583 28.915 240.762 28.0164C238.965 27.1177 237.568 25.8912 236.572 24.3368C235.577 22.7582 235.079 20.9852 235.079 19.0179C235.079 17.0021 235.564 15.217 236.536 13.6626C237.532 12.1082 238.88 10.8939 240.58 10.0195C242.304 9.14518 244.235 8.70801 246.372 8.70801C248.339 8.70801 250.149 9.09661 251.8 9.8738C253.476 10.651 254.812 11.8046 255.808 13.3347C256.828 14.8648 257.338 16.7592 257.338 19.0179C257.338 19.3094 257.326 19.6373 257.301 20.0016C257.277 20.3416 257.253 20.6573 257.229 20.9488H241.891V16.9778H252.857L249.76 18.0343C249.76 17.2571 249.615 16.6014 249.323 16.067C249.056 15.5084 248.68 15.0834 248.194 14.792C247.708 14.4762 247.125 14.3184 246.445 14.3184C245.765 14.3184 245.17 14.4762 244.66 14.792C244.174 15.0834 243.798 15.5084 243.531 16.067C243.263 16.6014 243.13 17.2571 243.13 18.0343V19.273C243.13 20.123 243.3 20.8516 243.64 21.4588C243.98 22.066 244.466 22.5275 245.097 22.8432C245.729 23.1346 246.494 23.2804 247.392 23.2804C248.315 23.2804 249.068 23.1589 249.651 22.916C250.258 22.6732 250.89 22.3089 251.545 21.8231L255.844 26.1584C254.873 27.2027 253.671 28.0042 252.238 28.5628C250.829 29.0971 249.129 29.3643 247.137 29.3643ZM279.383 29.3643C277.1 29.3643 275.072 28.9271 273.299 28.0528C271.526 27.1785 270.13 25.9641 269.11 24.4097C268.114 22.831 267.616 21.0338 267.616 19.0179C267.616 17.0021 268.114 15.217 269.11 13.6626C270.13 12.1082 271.526 10.8939 273.299 10.0195C275.072 9.14518 277.1 8.70801 279.383 8.70801C281.812 8.70801 283.888 9.23019 285.613 10.2745C287.337 11.3189 288.527 12.764 289.183 14.6098L282.808 17.7429C282.395 16.8199 281.885 16.1521 281.278 15.7392C280.695 15.3263 280.051 15.1198 279.347 15.1198C278.74 15.1198 278.169 15.2656 277.634 15.557C277.124 15.8485 276.712 16.2856 276.396 16.8685C276.104 17.4271 275.959 18.1436 275.959 19.0179C275.959 19.8923 276.104 20.6209 276.396 21.2038C276.712 21.7867 277.124 22.2239 277.634 22.5153C278.169 22.8068 278.74 22.9525 279.347 22.9525C280.051 22.9525 280.695 22.746 281.278 22.3332C281.885 21.9203 282.395 21.2524 282.808 20.3295L289.183 23.4625C288.527 25.3083 287.337 26.7534 285.613 27.7978C283.888 28.8421 281.812 29.3643 279.383 29.3643ZM300.344 29.3643C298.085 29.3643 296.081 28.9271 294.333 28.0528C292.608 27.1542 291.248 25.9277 290.252 24.3733C289.257 22.8189 288.759 21.0338 288.759 19.0179C288.759 17.0021 289.257 15.217 290.252 13.6626C291.248 12.1082 292.608 10.8939 294.333 10.0195C296.081 9.14518 298.085 8.70801 300.344 8.70801C302.602 8.70801 304.606 9.14518 306.355 10.0195C308.103 10.8939 309.464 12.1082 310.435 13.6626C311.431 15.217 311.929 17.0021 311.929 19.0179C311.929 21.0338 311.431 22.8189 310.435 24.3733C309.464 25.9277 308.103 27.1542 306.355 28.0528C304.606 28.9271 302.602 29.3643 300.344 29.3643ZM300.344 22.9525C300.951 22.9525 301.497 22.8068 301.983 22.5153C302.469 22.2239 302.857 21.7867 303.149 21.2038C303.44 20.5966 303.586 19.868 303.586 19.0179C303.586 18.1436 303.44 17.4271 303.149 16.8685C302.857 16.2856 302.469 15.8485 301.983 15.557C301.497 15.2656 300.951 15.1198 300.344 15.1198C299.737 15.1198 299.19 15.2656 298.704 15.557C298.219 15.8485 297.83 16.2856 297.539 16.8685C297.247 17.4271 297.101 18.1436 297.101 19.0179C297.101 19.868 297.247 20.5966 297.539 21.2038C297.83 21.7867 298.219 22.2239 298.704 22.5153C299.19 22.8068 299.737 22.9525 300.344 22.9525ZM313.413 29V9.07232H321.245V14.9013L319.679 13.2254C320.456 11.7196 321.5 10.5903 322.812 9.83737C324.148 9.08446 325.629 8.70801 327.256 8.70801C328.787 8.70801 330.171 9.02374 331.41 9.65521C332.648 10.2624 333.62 11.2217 334.324 12.5333C335.053 13.8448 335.417 15.5449 335.417 17.6336V29H327.184V19.0544C327.184 17.8157 326.965 16.9414 326.528 16.4314C326.091 15.897 325.496 15.6299 324.743 15.6299C324.184 15.6299 323.662 15.7635 323.176 16.0306C322.715 16.2735 322.338 16.6864 322.047 17.2693C321.78 17.8522 321.646 18.6415 321.646 19.6373V29H313.413Z" fill="white"/>
<path d="M337.692 53.7812C318.563 69.7049 296.325 86.5211 277.203 102.445C278.921 91.6084 277.686 88.4846 278.4 77.5366C294.138 66.0977 320.883 58.1768 337.692 53.7812Z" fill="#BFE1FF"/>
<path d="M277.203 102.445L285.674 82.2744L307.54 78.0425L277.203 102.445Z" fill="#0274B9"/>
<path d="M256.958 60.6163C263.853 66.4027 270.792 69.9802 278.4 77.5367C296.444 70.2107 319.649 61.1072 337.692 53.7813C323.784 64.35 301.992 76.0343 285.674 82.2669C291.074 88.3954 306.812 96.837 311.728 102.497C327.488 78.801 330.53 66.0978 337.692 53.7813C314.42 53.0524 280.156 58.5933 256.958 60.6163Z" fill="white"/>
<path d="M189.749 82.3336C192.725 70.8017 207.508 66.4107 224.025 69.9818C244.671 74.4458 261.801 107.221 283.005 91.5974" stroke="white" stroke-dasharray="7 7"/>
<path d="M24.4825 114.71C19.7913 114.71 15.2922 112.846 11.975 109.529C8.65778 106.212 6.79419 101.713 6.79419 97.0217V42.3647H172.468C177.159 42.3647 181.658 44.2283 184.975 47.5455C188.292 50.8627 190.156 55.3618 190.156 60.0531V114.666L24.4825 114.71Z" fill="url(#paint0_linear_30_133)"/>
<path d="M147.991 88.2107V93.274C145.458 94.602 142.626 95.2568 139.766 95.1755C137.981 95.204 136.204 94.9235 134.515 94.3463C133.034 93.8401 131.682 93.0134 130.557 91.9252C129.457 90.812 128.619 89.4675 128.103 87.9896C127.508 86.3228 127.216 84.5632 127.241 82.7936C127.213 80.5921 127.642 78.4088 128.501 76.3816C129.279 74.5205 130.591 72.9317 132.271 71.8158C134.081 70.6641 136.195 70.0826 138.34 70.1465C142.519 70.1465 145.467 71.4068 147.184 73.9274C148.902 76.448 149.753 80.0077 149.738 84.6067H133.233C133.255 85.444 133.449 86.2679 133.8 87.0282C134.152 87.7885 134.655 88.4692 135.278 89.0288C136.619 90.1297 138.32 90.6967 140.054 90.6207C142.86 90.4981 145.59 89.6691 147.991 88.2107ZM133.233 80.2952H143.823C143.795 78.8338 143.316 77.4169 142.453 76.2379C142.003 75.7056 141.435 75.287 140.793 75.0162C140.152 74.7453 139.455 74.6298 138.76 74.6791C138.037 74.6372 137.314 74.7529 136.64 75.0182C135.966 75.2835 135.358 75.6922 134.858 76.2158C133.873 77.3532 133.303 78.7917 133.244 80.2952H133.233Z" fill="white"/>
<path d="M101.924 94.6227V61.7888H110.05C112.261 61.7888 114.173 61.8551 115.688 61.9988C117.173 62.1349 118.629 62.4887 120.01 63.0491C121.368 63.5792 122.527 64.518 123.327 65.7355C124.206 67.2248 124.629 68.939 124.543 70.6661C124.553 71.9004 124.273 73.1198 123.725 74.2259C123.174 75.3114 122.361 76.2424 121.359 76.9344C120.292 77.6682 119.063 78.1346 117.777 78.2942V78.3716C119.126 78.4711 120.287 79.6098 121.249 81.7655L126.467 94.6227H119.126L115.179 84.3635C114.924 83.6662 114.586 83.0019 114.173 82.3846C113.835 81.8937 113.363 81.51 112.814 81.2791C112.104 81.0316 111.354 80.9191 110.603 80.9474H108.491V94.6227H101.924ZM108.502 66.9847V75.8289H110.658C112.389 75.8945 114.113 75.5813 115.71 74.9113C116.981 74.3143 117.623 73.0982 117.623 71.2631C117.72 70.5612 117.59 69.8465 117.252 69.2238C116.914 68.6011 116.385 68.1031 115.743 67.8028C114.117 67.2042 112.389 66.9301 110.658 66.9958L108.502 66.9847Z" fill="white"/>
<path d="M93.854 89.272V93.6941L92.5053 94.2027C91.9857 94.3906 91.3997 94.5564 90.847 94.7112C89.4017 95.0755 87.9152 95.2502 86.4249 95.2308C84.0429 95.3088 81.6813 94.7679 79.5707 93.661C77.7732 92.6574 76.3409 91.109 75.4802 89.2389C74.5412 87.0981 74.0846 84.7769 74.1426 82.4399C74.08 80.2687 74.5427 78.1145 75.4913 76.1606C76.3536 74.3946 77.7091 72.9162 79.3938 71.9043C81.1593 70.8605 83.1804 70.3285 85.2309 70.3676C87.3971 70.2645 89.5394 70.8573 91.3445 72.0591C92.9213 73.2281 94.0833 74.8705 94.661 76.7465C95.3679 79.0142 95.7076 81.3805 95.6671 83.7555H78.7526C78.7421 85.1872 79.1245 86.5943 79.8581 87.8238C80.5446 89.0026 81.538 89.9731 82.7325 90.6318C83.9031 91.3033 85.2301 91.6541 86.5797 91.6489C88.0021 91.6281 89.4096 91.3548 90.7364 90.8419C91.8612 90.4922 92.9216 89.962 93.8761 89.272H93.854ZM78.7526 80.4942H91.0128C91.0239 79.3513 90.7862 78.2196 90.3163 77.1776C89.8769 76.2025 89.1671 75.3738 88.2711 74.7897C87.326 74.2067 86.2303 73.9145 85.1204 73.9495C83.9201 73.9096 82.7373 74.2459 81.7375 74.9113C80.8667 75.5065 80.1657 76.318 79.7033 77.2661C79.2272 78.2739 78.9209 79.3534 78.7968 80.461L78.7526 80.4942Z" fill="white"/>
<path d="M64.9556 61.7224H69.3224V94.6227H64.9556V61.7224Z" fill="white"/>
<path d="M57.9466 89.2941V93.7162C57.5707 93.8709 57.1285 94.0257 56.6089 94.2247C56.0893 94.4237 55.5034 94.5785 54.9506 94.7333C54.3979 94.888 53.7124 94.9986 52.9828 95.1091C52.1541 95.2125 51.3194 95.2605 50.4843 95.2528C48.1023 95.3308 45.7407 94.79 43.6301 93.683C41.8326 92.6795 40.4003 91.131 39.5397 89.2609C38.6017 87.1198 38.1451 84.7989 38.202 82.462C38.1495 80.2797 38.6275 78.1173 39.595 76.1605C40.4573 74.3945 41.8127 72.9162 43.4974 71.9043C45.2576 70.8683 47.2704 70.3402 49.3125 70.3786C51.4649 70.2883 53.5904 70.8845 55.3818 72.0811C56.9586 73.2502 58.1207 74.8925 58.6984 76.7685C59.4052 79.0363 59.7449 81.4025 59.7044 83.7775H42.7899C42.7748 85.2098 43.1575 86.6182 43.8954 87.8459C44.5806 89.0218 45.5696 89.9918 46.7587 90.6539C47.9349 91.3205 49.2651 91.6673 50.617 91.6599C52.0388 91.6433 53.4464 91.3738 54.7738 90.8639C55.8962 90.517 56.9534 89.9866 57.9024 89.2941H57.9466ZM42.8562 80.5163H55.1165C55.1287 79.372 54.8871 78.2393 54.4089 77.1997C53.9782 76.1897 53.2531 75.3331 52.3282 74.7414C51.4033 74.1498 50.3215 73.8507 49.224 73.8831C48.0237 73.8432 46.8409 74.1795 45.8411 74.8449C44.9392 75.4583 44.2178 76.3019 43.7517 77.2881C43.2828 78.2978 42.9804 79.3768 42.8562 80.4831V80.5163Z" fill="white"/>
<path d="M170.82 94.6559V92.1464H170.721C169.807 93.1718 168.673 93.977 167.403 94.5016C166.134 95.0262 164.762 95.2566 163.391 95.1755C161.81 95.219 160.24 94.8974 158.803 94.2358C157.562 93.6454 156.49 92.7519 155.686 91.6378C154.865 90.5211 154.268 89.2559 153.928 87.9122C153.176 84.9709 153.176 81.8878 153.928 78.9465C154.268 77.6163 154.865 76.3657 155.686 75.2651C156.496 74.176 157.569 73.3091 158.803 72.7445C160.243 72.095 161.812 71.7812 163.391 71.8269C164.738 71.7829 166.079 72.0399 167.314 72.5792C168.55 73.1185 169.649 73.9265 170.533 74.9445H170.621V61.6782H176.845V94.6559H170.82ZM159.853 83.457C159.825 85.2103 160.256 86.9405 161.103 88.476C161.489 89.188 162.071 89.7746 162.781 90.1664C163.49 90.5581 164.296 90.7388 165.105 90.6871C166.261 90.7347 167.392 90.3393 168.266 89.5816C169.089 88.8409 169.7 87.8946 170.035 86.8399C170.397 85.745 170.58 84.599 170.577 83.4459C170.57 82.6033 170.463 81.7645 170.256 80.9475C170.043 80.1314 169.708 79.3524 169.261 78.6369C168.814 77.9551 168.216 77.3842 167.515 76.9676C166.755 76.5336 165.891 76.3157 165.016 76.3374C163.894 76.2945 162.799 76.6911 161.965 77.443C161.192 78.1896 160.631 79.1281 160.34 80.1625C160.017 81.2384 159.853 82.3557 159.853 83.4791V83.457Z" fill="white"/>
<path d="M27.5669 65.8129H17.3187V61.6561H42.5357V65.8129H32.2875V94.5564H27.5669V65.8129Z" fill="white"/>
<defs>
<linearGradient id="paint0_linear_30_133" x1="98.4971" y1="114.931" x2="98.4971" y2="40.9165" gradientUnits="userSpaceOnUse">
<stop stop-color="#004772"/>
<stop offset="1" stop-color="#0274B9"/>
</linearGradient>
</defs>
</svg>
