<svg width="330" height="103" viewBox="0 0 330 103" fill="none" xmlns="http://www.w3.org/2000/svg">
<path d="M7.36224 53.5372C6.48129 53.5372 5.60034 52.9866 4.71938 51.8855C3.8699 50.7843 3.08333 49.0381 2.35969 46.6469C1.63605 44.2558 1.054 41.141 0.61352 37.3026C0.204507 33.4327 0 28.7292 0 23.1918C0 20.1084 0.141581 17.7016 0.424744 15.9711C0.707907 14.2092 1.08546 12.9192 1.5574 12.1012C2.0608 11.2831 2.62712 10.764 3.25637 10.5437C3.88563 10.3235 4.53061 10.2134 5.19132 10.2134C6.04081 10.2134 6.76445 10.528 7.36224 11.1573C7.99149 11.7865 8.30612 12.6518 8.30612 13.753C8.30612 14.7283 7.97576 15.9397 7.31505 17.3869C7.12627 18.9286 7.00042 20.313 6.9375 21.54C6.90603 22.7356 6.8903 24.0098 6.8903 25.3627C6.8903 27.5022 6.92176 29.6886 6.98469 31.9225C7.07908 34.1248 7.20493 36.2486 7.36224 38.2936C7.51955 40.3072 7.6926 42.1006 7.88137 43.6737C8.66794 41.7545 9.54889 39.6308 10.5242 37.3026C11.4996 34.9743 12.4749 32.6304 13.4502 30.2707C14.457 27.911 15.4009 25.6931 16.2819 23.6165C17.1943 21.5085 17.9651 19.7152 18.5944 18.2364C19.2551 16.7577 19.6956 15.7509 19.9158 15.216C20.7024 13.3283 21.5519 11.9753 22.4643 11.1573C23.3767 10.3392 24.3048 9.93022 25.2487 9.93022C26.0038 9.93022 26.6488 10.1662 27.1837 10.6381C27.7185 11.1101 27.986 12.0068 27.986 13.3282C27.986 13.5799 27.7343 14.3193 27.2309 15.5464C26.7589 16.7734 26.0982 18.3465 25.2487 20.2658C24.4307 22.1535 23.5025 24.2615 22.4643 26.5897C21.4575 28.8865 20.4192 31.2617 19.3495 33.7158C18.1854 36.3901 17.0212 38.9229 15.8571 41.314C14.7245 43.7052 13.6233 45.8132 12.5536 47.638C11.5153 49.4628 10.54 50.8944 9.62754 51.9327C8.74659 53.0024 7.99149 53.5372 7.36224 53.5372Z" fill="#171717" fill-opacity="0.31"/>
<path d="M43.5503 51.5551C42.8267 51.5551 42.166 51.2562 41.5682 50.6584C41.0019 50.0921 40.7187 49.1325 40.7187 47.7796C40.7187 46.7728 40.7974 45.3727 40.9547 43.5793C41.1434 41.7545 41.4895 39.4106 41.9929 36.5475C40.8917 38.8128 39.7434 40.8264 38.5478 42.5883C37.3522 44.3502 36.1724 45.7345 35.0082 46.7413C33.8756 47.7167 32.7901 48.2043 31.7519 48.2043C30.0844 48.2043 28.7629 47.7009 27.7876 46.6941C26.8122 45.6559 26.3246 43.7209 26.3246 40.8893C26.3246 39.5364 26.4347 38.0105 26.6549 36.3115C26.9066 34.6125 27.2213 32.9135 27.5988 31.2146C27.9764 29.5156 28.3539 28.0055 28.7315 26.6841C29.1405 25.3312 29.5023 24.3244 29.8169 23.6637C30.0686 23.0974 30.3833 22.6569 30.7608 22.3423C31.1698 22.0277 31.6889 21.8704 32.3182 21.8704C33.325 21.8704 34.0958 22.2007 34.6307 22.8614C35.1656 23.5221 35.433 24.1986 35.433 24.8908C35.433 25.4256 35.3071 26.1964 35.0554 27.2032C34.8352 28.21 34.552 29.3268 34.206 30.5539C33.8913 31.7809 33.561 33.0394 33.2149 34.3293C32.8688 35.6193 32.5699 36.8306 32.3182 37.9633C32.098 39.0959 31.9878 40.0555 31.9878 40.8421C31.9878 41.8174 32.3654 42.3051 33.1205 42.3051C33.561 42.3051 34.1273 41.8804 34.8195 41.0309C35.5431 40.1814 36.2982 39.0487 37.0848 37.6329C37.9028 36.1856 38.7208 34.6125 39.5389 32.9135C40.3883 31.1831 41.1592 29.437 41.8514 27.6751C42.575 25.8818 43.1885 24.23 43.6919 22.7198C44.0065 21.776 44.4313 21.1153 44.9661 20.7377C45.501 20.3601 46.1145 20.1714 46.8067 20.1714C47.8764 20.1714 48.6945 20.4703 49.2608 21.0681C49.8586 21.6658 50.1575 22.5153 50.1575 23.6165C50.1575 24.1199 50.0788 24.9694 49.9215 26.165C49.7642 27.3606 49.5597 28.7605 49.308 30.3651C49.0877 31.9697 48.8203 33.6686 48.5057 35.462C48.1911 37.2554 47.8764 39.0173 47.5618 40.7477C47.2786 42.4782 46.9955 44.067 46.7123 45.5143C46.4292 46.9301 46.1932 48.0628 46.0044 48.9122C45.6898 50.1707 45.3122 50.9259 44.8718 51.1776C44.4313 51.4293 43.9908 51.5551 43.5503 51.5551Z" fill="#171717" fill-opacity="0.31"/>
<path d="M59.1966 51.036C57.2459 51.036 55.6728 50.3595 54.4772 49.0066C53.2816 47.6223 52.6838 45.4042 52.6838 42.3523C52.6838 40.4016 52.9041 38.4509 53.3445 36.5003C53.8165 34.5181 54.4614 32.6461 55.2795 30.8842C56.129 29.0908 57.1043 27.5022 58.2055 26.1178C59.3382 24.7334 60.5809 23.648 61.9338 22.8614C63.2867 22.0434 64.6868 21.6344 66.1341 21.6344C68.5881 21.6344 70.5074 22.2951 71.8917 23.6165C73.2761 24.938 73.9682 26.6211 73.9682 28.6662C73.9682 30.2393 73.5278 31.6708 72.6468 32.9607C71.7973 34.2192 70.6332 35.3519 69.1545 36.3587C67.6757 37.3655 66.0239 38.2779 64.1991 39.0959C62.3743 39.914 60.5023 40.6533 58.583 41.314C58.4257 42.4467 58.3471 43.4535 58.3471 44.3344C58.3471 44.8693 58.646 45.1367 59.2438 45.1367C60.6596 45.1367 62.1698 44.9165 63.7744 44.476C65.4104 44.0041 67.0622 43.4063 68.7297 42.6827C70.3972 41.9276 72.0018 41.1567 73.5435 40.3702C75.0852 39.5521 76.4852 38.7813 77.7437 38.0577C79.0337 37.3026 80.0877 36.7048 80.9057 36.2643C81.7552 35.7924 82.3058 35.5564 82.5575 35.5564C83.2497 35.5564 83.7531 35.7609 84.0677 36.1699C84.3824 36.5789 84.5397 37.0194 84.5397 37.4913C84.5397 37.7116 84.1149 38.1992 83.2654 38.9543C82.4474 39.7094 81.3147 40.6061 79.8675 41.6444C78.4517 42.6512 76.8471 43.7052 75.0537 44.8064C73.2918 45.8761 71.4512 46.8986 69.532 47.874C67.6443 48.8179 65.8037 49.573 64.0103 50.1393C62.2484 50.7371 60.6438 51.036 59.1966 51.036ZM59.3853 37.1138C60.6753 36.3587 61.9495 35.5721 63.208 34.7541C64.498 33.9046 65.5677 32.9607 66.4172 31.9225C67.2667 30.8527 67.6915 29.6101 67.6915 28.1942C67.6915 27.7852 67.5813 27.5178 67.3611 27.392C67.1409 27.2347 66.8262 27.156 66.4172 27.156C65.316 27.156 64.3092 27.6436 63.3968 28.619C62.5159 29.5943 61.7293 30.8527 61.0371 32.3944C60.3764 33.9046 59.8258 35.4777 59.3853 37.1138Z" fill="#171717" fill-opacity="0.31"/>
<path d="M87.1936 51.7911C84.362 51.7911 82.1281 50.9258 80.4921 49.1954C78.8875 47.4335 78.0852 44.9322 78.0852 41.6916C78.0852 39.9297 78.3211 37.8689 78.7931 35.5092C79.265 33.118 79.8785 30.6011 80.6336 27.9583C81.4202 25.284 82.254 22.6412 83.1349 20.0298C84.0473 17.4184 84.944 14.9957 85.825 12.7619C86.7059 10.5281 87.4767 8.65598 88.1375 7.14578C88.7038 5.98167 89.5061 5.39962 90.5443 5.39962C91.2051 5.39962 91.7399 5.60412 92.1489 6.01314C92.5894 6.42215 92.8096 7.08286 92.8096 7.99527C92.8096 8.43575 92.5894 9.39537 92.1489 10.8741C91.7085 12.3528 91.1264 14.1777 90.4028 16.3487C89.7106 18.4881 88.9555 20.8006 88.1375 23.2862C87.3509 25.7717 86.5958 28.2728 85.8722 30.7898C85.18 33.3068 84.6136 35.6822 84.1732 37.9161C83.7327 40.1185 83.5125 41.9905 83.5125 43.5321C83.5125 44.1614 83.6855 44.6648 84.0316 45.0424C84.4091 45.4199 84.8968 45.6087 85.4946 45.6087C86.7846 45.6087 88.106 45.3727 89.4589 44.9008C90.8432 44.4288 92.1961 43.831 93.5176 43.1074C94.8704 42.3838 96.1447 41.6129 97.3403 40.7949C98.5358 39.9769 99.6056 39.206 100.549 38.4824C101.525 37.7273 102.311 37.1295 102.909 36.689C103.696 36.0912 104.231 35.7924 104.514 35.7924C105.583 35.7924 106.118 36.3115 106.118 37.3498C106.118 37.6015 105.804 38.1206 105.174 38.9072C104.64 39.5993 103.884 40.4803 102.909 41.55C101.934 42.6197 100.801 43.7524 99.5112 44.948C98.2527 46.1121 96.8998 47.2133 95.4525 48.2515C94.0367 49.2898 92.6209 50.1393 91.2051 50.8C89.7892 51.4607 88.4521 51.7911 87.1936 51.7911Z" fill="#171717" fill-opacity="0.31"/>
<path d="M135.327 18.5838C135.327 18.9613 135.201 19.2917 134.95 19.5748C134.698 19.858 134.383 20.0782 134.006 20.2356C133.471 20.4558 132.543 20.739 131.221 21.0851C129.9 21.4311 128.295 21.8244 126.408 22.2649C124.551 22.7054 122.553 23.1616 120.414 23.6335C118.275 24.074 116.135 24.4987 113.996 24.9078C113.178 27.9282 112.344 31.0428 111.494 34.252C110.645 37.4297 106.35 53.4177 105.501 56.501C105.186 57.6022 104.809 58.436 104.368 59.0023C103.928 59.6001 103.173 59.899 102.103 59.899C100.939 59.899 100.152 59.5214 99.7431 58.7663C99.3655 58.0427 99.3183 57.0516 99.6015 55.7931C100.42 52.3637 104.62 36.3128 105.312 33.3553C106.036 30.3978 106.618 28.0068 107.058 26.182C105.17 26.4966 103.519 26.7483 102.103 26.9371C100.687 27.0944 99.6802 27.1573 99.0824 27.1258C98.4217 27.0629 97.8711 26.7955 97.4306 26.3236C96.9901 25.8516 96.7856 25.2696 96.8171 24.5774C96.88 23.9481 97.1631 23.4133 97.6665 22.9728C98.17 22.5009 98.7677 22.2177 99.4599 22.1233C100.435 22.0289 101.694 21.8873 103.235 21.6986C104.777 21.5098 106.476 21.2896 108.332 21.0379C108.741 19.4333 109.213 17.7815 109.748 16.0825C110.283 14.3521 110.834 12.7002 111.4 11.1271C111.998 9.52248 112.564 8.12238 113.099 6.92681C113.634 5.73123 114.121 4.86602 114.562 4.33116C114.908 3.92215 115.333 3.60754 115.836 3.3873C116.371 3.16706 116.89 3.05695 117.394 3.05695C118.054 3.05695 118.589 3.29291 118.998 3.76485C119.407 4.23678 119.612 4.78736 119.612 5.41661C119.612 5.66831 119.596 5.93574 119.564 6.2189C119.533 6.47061 119.47 6.7223 119.376 6.974C118.778 8.54713 118.133 10.4507 117.441 12.6845C116.78 14.9184 116.088 17.3725 115.364 20.0468C117.724 19.7007 120.036 19.3546 122.302 19.0085C124.599 18.631 126.675 18.2849 128.531 17.9703C130.419 17.6242 131.929 17.3253 133.062 17.0736C133.691 16.8533 134.226 16.9005 134.667 17.2152C135.107 17.4983 135.327 17.9545 135.327 18.5838Z" fill="#171717" fill-opacity="0.31"/>
<path d="M116.462 52.8935C115.455 52.8935 114.543 52.6104 113.725 52.044C112.907 51.5092 112.262 50.8013 111.79 49.9203C111.318 49.0079 111.082 48.0326 111.082 46.9943C111.082 45.0436 111.507 43.1401 112.356 41.2838C113.237 39.4275 114.385 37.6656 115.801 35.9981C117.217 34.3306 118.759 32.8047 120.426 31.4204C122.125 30.0046 123.808 28.7934 125.476 27.7866C127.175 26.7798 128.717 25.9932 130.101 25.4269C131.517 24.8606 132.618 24.5774 133.404 24.5774C134.317 24.5774 135.056 24.7819 135.623 25.1909C136.22 25.5685 136.519 26.1663 136.519 26.9843C136.519 27.236 136.456 27.4405 136.33 27.5978C136.739 27.6922 137.07 27.9281 137.322 28.3057C137.573 28.6832 137.699 29.2495 137.699 30.0046C137.699 30.3192 137.62 31.1372 137.463 32.4586C137.306 33.78 137.133 35.3846 136.944 37.2724C136.787 39.1601 136.708 41.1265 136.708 43.1716C136.708 43.4862 136.755 43.7694 136.85 44.0211C136.944 44.2413 137.149 44.3514 137.463 44.3514C138.722 44.3514 139.996 44.0997 141.286 43.5963C142.607 43.0615 139.126 44.7605 140.353 44.0054C141.611 43.2188 142.744 42.448 143.751 41.6929C144.789 40.9063 145.654 40.2613 146.347 39.7579C147.07 39.2231 147.542 38.9556 147.762 38.9556C148.832 38.9556 149.367 39.4905 149.367 40.5602C149.367 40.8434 149.021 41.4412 148.329 42.3536C147.668 43.2345 146.756 44.2571 145.591 45.4212C144.427 46.5538 143.122 47.6865 141.674 48.8192C140.259 49.9203 143.535 48.4888 141.994 49.2124C140.484 49.936 139.021 50.2979 137.605 50.2979C135.874 50.2979 134.553 49.8889 133.64 49.0708C132.759 48.2528 132.13 47.1516 131.753 45.7673C131.407 44.3514 131.218 42.7626 131.186 41.0007C129.582 43.2974 127.914 45.3425 126.184 47.1359C124.485 48.8978 122.802 50.2979 121.134 51.3361C119.467 52.3744 117.909 52.8935 116.462 52.8935ZM133.168 29.2495C130.085 30.7283 127.316 32.4271 124.862 34.3463C122.408 36.2341 120.458 38.2162 119.01 40.2928C117.595 42.3693 116.887 44.3672 116.887 46.2864C116.887 46.8212 117.138 47.0887 117.642 47.0887C118.24 47.0887 119.026 46.7426 120.001 46.0504C121.008 45.3582 122.094 44.4458 123.258 43.3132C124.422 42.1491 125.586 40.8591 126.75 39.4433C127.914 37.996 129 36.5173 130.007 35.0071C131.013 33.4969 131.816 32.0496 132.413 30.6653C132.634 30.1619 132.885 29.69 133.168 29.2495Z" fill="#171717" fill-opacity="0.31"/>
<path d="M164.093 51.4947C163.086 51.4947 162.174 51.2115 161.356 50.6452C160.538 50.1104 159.893 49.4025 159.421 48.5215C158.949 47.6091 158.713 46.6337 158.713 45.5955C158.713 43.6448 159.138 41.7413 159.987 39.885C160.868 38.0287 162.017 36.2668 163.433 34.5993C164.848 32.9318 166.39 31.4059 168.058 30.0216C169.756 28.6057 171.44 27.3946 173.107 26.3878C174.806 25.381 176.348 24.5944 177.732 24.0281C179.148 23.4618 180.249 23.1786 181.036 23.1786C181.948 23.1786 182.688 23.3831 183.254 23.7921C183.852 24.1697 184.151 24.7675 184.151 25.5855C184.151 25.8372 184.088 26.0417 183.962 26.199C184.371 26.2934 184.701 26.5293 184.953 26.9069C185.205 27.2844 185.33 27.8507 185.33 28.6058C185.33 28.9204 185.252 29.7384 185.094 31.0598C184.937 32.3812 184.764 33.9858 184.575 35.8736C184.418 37.7613 184.339 39.7277 184.339 41.7728C184.339 42.0874 184.387 42.3706 184.481 42.6223C184.575 42.8425 184.78 42.9526 185.094 42.9526C186.353 42.9526 187.627 42.7009 188.917 42.1975C190.239 41.6627 191.513 41.0177 192.74 40.2626C193.047 40.8554 197.121 44.2953 189.625 47.8136C188.115 48.5372 186.652 48.899 185.236 48.899C183.506 48.899 182.184 48.49 181.272 47.672C180.391 46.854 179.762 45.7528 179.384 44.3684C179.038 42.9526 178.849 41.3638 178.818 39.6019C177.213 41.8986 175.546 43.9437 173.815 45.7371C172.116 47.499 170.433 48.899 168.765 49.9373C167.098 50.9756 165.54 51.4947 164.093 51.4947ZM180.8 27.8507C177.717 29.3295 174.948 31.0283 172.494 32.9475C170.04 34.8353 168.089 36.8174 166.642 38.894C165.226 40.9705 164.518 42.9684 164.518 44.8876C164.518 45.4224 164.77 45.6899 165.273 45.6899C165.871 45.6899 166.657 45.3438 167.633 44.6516C168.64 43.9594 169.725 43.047 170.889 41.9144C172.053 40.7502 173.217 39.4603 174.381 38.0445C175.546 36.5972 176.631 35.1185 177.638 33.6083C178.645 32.0981 179.447 30.6508 180.045 29.2665C180.265 28.7631 180.517 28.2912 180.8 27.8507Z" fill="#171717" fill-opacity="0.31"/>
<path d="M198.026 52.6104C195.194 52.6104 192.96 51.7452 191.324 50.0148C189.719 48.2529 188.917 45.7516 188.917 42.511C188.917 40.7491 189.153 38.6883 189.625 36.3286C190.097 33.9374 190.711 31.4204 191.466 28.7776C192.252 26.1032 193.086 23.4604 193.967 20.849C194.879 18.2376 195.776 15.815 196.657 13.5811C197.538 11.3473 198.309 9.47528 198.969 7.96508C199.536 6.80096 200.338 6.2189 201.376 6.2189C202.037 6.2189 202.572 6.42341 202.981 6.83243C203.421 7.24144 203.642 7.90215 203.642 8.81457C203.642 9.25504 203.421 10.2146 202.981 11.6934C202.54 13.1721 201.958 14.997 201.235 17.1679C200.543 19.3073 199.787 21.6198 198.969 24.1054C198.183 26.5909 197.428 29.0922 196.704 31.6092C196.012 34.1262 195.446 36.5016 195.005 38.7355C194.565 40.9378 194.344 42.8099 194.344 44.3515C194.344 44.9808 194.518 45.4842 194.864 45.8617C195.241 46.2393 195.729 46.4281 196.327 46.4281C197.617 46.4281 198.938 46.1921 200.291 45.7201C201.675 45.2482 203.028 44.6504 204.35 43.9268C205.702 43.2031 206.977 42.4323 208.172 41.6143C209.368 40.7963 210.438 40.0254 211.381 39.3018C212.357 38.5467 213.143 37.9489 213.741 37.5084C214.528 36.9106 215.063 36.6117 215.346 36.6117C216.415 36.6117 216.95 37.1309 216.95 38.1691C216.95 38.4208 216.636 38.94 216.006 39.7265C215.472 40.4187 214.716 41.2997 213.741 42.3694C212.766 43.4391 211.633 44.5718 210.343 45.7673C209.085 46.9315 207.732 48.0326 206.285 49.0709C204.869 50.1092 203.453 50.9587 202.037 51.6194C200.621 52.2801 199.284 52.6104 198.026 52.6104Z" fill="#171717" fill-opacity="0.31"/>
<path d="M244.148 40.7477C245.123 40.7477 245.816 41.0151 246.225 41.55C246.634 42.0534 246.838 42.5883 246.838 43.1546C246.838 43.9412 246.445 44.7749 245.658 45.6559C244.872 46.5368 243.849 47.3549 242.591 48.11C241.364 48.8336 240.042 49.4314 238.626 49.9033C237.211 50.3753 235.858 50.6112 234.568 50.6112C232.648 50.6112 230.808 50.0921 229.046 49.0538C227.316 47.9841 225.9 46.4896 224.799 44.5704C223.729 42.6512 223.194 40.3702 223.194 37.7273C223.194 35.5564 223.603 33.4012 224.421 31.2618C225.27 29.1223 226.387 27.0617 227.772 25.0795C229.188 23.0974 230.729 21.2568 232.397 19.5579C234.096 17.8589 235.795 16.3801 237.494 15.1216C239.224 13.8631 240.813 12.8878 242.26 12.1956C243.708 11.4719 244.872 11.1101 245.753 11.1101C246.854 11.1101 247.672 11.3933 248.207 11.9596C248.773 12.4945 249.056 13.2496 249.056 14.2249C249.056 15.0115 248.899 15.625 248.584 16.0655C248.301 16.4745 247.845 16.8363 247.216 17.151C245.202 18.1892 243.157 19.4477 241.08 20.9265C239.035 22.4052 237.163 24.0413 235.464 25.8346C233.765 27.5965 232.397 29.4527 231.358 31.4033C230.32 33.354 229.801 35.3362 229.801 37.3498C229.801 39.5521 230.242 41.2197 231.123 42.3523C232.003 43.485 233.199 44.0513 234.709 44.0513C235.464 44.0513 236.282 43.894 237.163 43.5793C238.044 43.2333 238.909 42.84 239.759 42.3995C240.64 41.959 241.458 41.5815 242.213 41.2668C243 40.9208 243.645 40.7477 244.148 40.7477Z" fill="#171717" fill-opacity="0.31"/>
<path d="M257.469 50.7528C255.235 50.7528 253.442 49.9662 252.089 48.3931C250.736 46.7885 250.06 44.6491 250.06 41.9748C250.06 41.1253 250.17 40.26 250.39 39.3791C250.642 38.4981 250.941 37.6801 251.287 36.925C251.098 36.6418 250.941 36.28 250.815 35.8396C250.72 35.3676 250.673 34.817 250.673 34.1878C250.673 32.1427 251.035 30.2707 251.759 28.5718C252.482 26.8413 253.458 25.347 254.685 24.0885C255.912 22.83 257.265 21.8546 258.743 21.1624C260.222 20.4703 261.717 20.1242 263.227 20.1242C265.807 20.1242 267.915 20.9894 269.551 22.7198C271.218 24.4503 272.052 27.1402 272.052 30.7898C272.052 32.6147 271.769 34.4709 271.203 36.3587C270.636 38.2464 269.865 40.0555 268.89 41.786C267.946 43.485 266.845 45.0109 265.587 46.3638C264.36 47.7167 263.038 48.7864 261.622 49.573C260.238 50.3595 258.854 50.7528 257.469 50.7528ZM256.714 34.8013C256.871 35.1474 256.95 35.5564 256.95 36.0283C256.95 36.5003 256.856 36.9879 256.667 37.4913C256.478 37.9947 256.289 38.6712 256.101 39.5207C255.912 40.3387 255.817 41.5185 255.817 43.0602C255.817 43.4692 255.865 43.8153 255.959 44.0985C256.085 44.3502 256.352 44.476 256.761 44.476C257.831 44.476 258.838 44.1299 259.782 43.4378C260.757 42.7456 261.622 41.8332 262.377 40.7005C263.164 39.5679 263.825 38.3094 264.36 36.925C264.926 35.5092 265.351 34.0777 265.634 32.6304C265.948 31.1516 266.106 29.7831 266.106 28.5246C266.106 27.7065 265.948 27.1403 265.634 26.8257C265.319 26.5111 264.769 26.3538 263.982 26.3538C262.912 26.3538 261.811 26.6998 260.678 27.392C259.577 28.0527 258.649 28.965 257.894 30.1291C257.139 31.2618 256.761 32.5517 256.761 33.999C256.761 34.2822 256.746 34.5496 256.714 34.8013Z" fill="#171717" fill-opacity="0.31"/>
<path d="M283.686 51.5551C280.855 51.5551 278.621 50.6899 276.985 48.9594C275.38 47.1975 274.578 44.6963 274.578 41.4556C274.578 39.6937 274.814 37.6329 275.286 35.2732C275.758 32.8821 276.371 30.3652 277.127 27.7223C277.913 25.048 278.747 22.4052 279.628 19.7938C280.54 17.1824 281.437 14.7598 282.318 12.5259C283.199 10.2921 283.97 8.42002 284.63 6.90982C285.197 5.7457 285.999 5.16365 287.037 5.16365C287.698 5.16365 288.233 5.36816 288.642 5.77717C289.082 6.18618 289.303 6.84689 289.303 7.75931C289.303 8.19978 289.082 9.1594 288.642 10.6381C288.201 12.1169 287.619 13.9418 286.896 16.1127C286.203 18.2522 285.448 20.5647 284.63 23.0502C283.844 25.5357 283.089 28.0369 282.365 30.5539C281.673 33.0709 281.107 35.4463 280.666 37.6801C280.226 39.8825 280.005 41.7545 280.005 43.2962C280.005 43.9254 280.178 44.4288 280.525 44.8064C280.902 45.1839 281.39 45.3727 281.988 45.3727C283.277 45.3727 284.599 45.1367 285.952 44.6648C287.336 44.1929 288.689 43.5951 290.01 42.8714C291.363 42.1478 292.638 41.377 293.833 40.5589C295.029 39.7409 296.098 38.9701 297.042 38.2464C298.018 37.4913 298.804 36.8935 299.402 36.4531C300.189 35.8553 300.723 35.5564 301.007 35.5564C302.076 35.5564 302.611 36.0755 302.611 37.1138C302.611 37.3655 302.297 37.8846 301.667 38.6712C301.132 39.3634 300.377 40.2443 299.402 41.314C298.427 42.3838 297.294 43.5164 296.004 44.712C294.746 45.8761 293.393 46.9773 291.945 48.0156C290.53 49.0538 289.114 49.9033 287.698 50.564C286.282 51.2247 284.945 51.5551 283.686 51.5551Z" fill="#171717" fill-opacity="0.31"/>
<path d="M302.292 50.8C300.341 50.8 298.768 50.1236 297.572 48.7707C296.377 47.3863 295.779 45.1682 295.779 42.1163C295.779 40.1657 295.999 38.215 296.44 36.2643C296.911 34.2822 297.556 32.4102 298.374 30.6483C299.224 28.8549 300.199 27.2662 301.3 25.8818C302.433 24.4975 303.676 23.412 305.029 22.6255C306.382 21.8074 307.782 21.3984 309.229 21.3984C311.683 21.3984 313.602 22.0591 314.987 23.3806C316.371 24.702 317.063 26.3851 317.063 28.4302C317.063 30.0033 316.623 31.4348 315.742 32.7248C314.892 33.9833 313.728 35.1159 312.249 36.1227C310.771 37.1295 309.119 38.0419 307.294 38.86C305.469 39.678 303.597 40.4174 301.678 41.0781C301.521 42.2107 301.442 43.2175 301.442 44.0985C301.442 44.6333 301.741 44.9008 302.339 44.9008C303.755 44.9008 305.265 44.6805 306.869 44.2401C308.505 43.7681 310.157 43.1703 311.825 42.4467C313.492 41.6916 315.097 40.9208 316.638 40.1342C318.18 39.3162 319.58 38.5453 320.839 37.8217C322.129 37.0666 323.183 36.4688 324.001 36.0283C324.85 35.5564 325.401 35.3204 325.652 35.3204C326.345 35.3204 326.848 35.5249 327.163 35.9339C327.477 36.343 327.635 36.7834 327.635 37.2554C327.635 37.4756 327.21 37.9633 326.36 38.7184C325.542 39.4735 324.41 40.3702 322.962 41.4084C321.547 42.4152 319.942 43.4692 318.149 44.5704C316.387 45.6401 314.546 46.6627 312.627 47.638C310.739 48.5819 308.899 49.337 307.105 49.9033C305.343 50.5011 303.739 50.8 302.292 50.8ZM302.48 36.8778C303.77 36.1227 305.045 35.3361 306.303 34.5181C307.593 33.6686 308.663 32.7248 309.512 31.6865C310.362 30.6168 310.786 29.3741 310.786 27.9583C310.786 27.5493 310.676 27.2819 310.456 27.156C310.236 26.9987 309.921 26.9201 309.512 26.9201C308.411 26.9201 307.404 27.4077 306.492 28.383C305.611 29.3583 304.824 30.6168 304.132 32.1584C303.471 33.6686 302.921 35.2418 302.48 36.8778Z" fill="#171717" fill-opacity="0.31"/>
<path d="M6.17693 97.1538C4.90986 97.1538 3.8125 96.8597 2.88483 96.2714C1.95716 95.7058 1.24444 94.9704 0.746661 94.0654C0.248887 93.1377 0 92.1874 0 91.2145C0 89.5854 0.248887 88.0808 0.746661 86.7006C1.24444 85.2977 1.90059 84.0307 2.71513 82.8994C3.52967 81.7454 4.41209 80.7273 5.36239 79.8449C6.33531 78.9624 7.27429 78.2271 8.17934 77.6388C9.10701 77.0279 9.93286 76.5754 10.6569 76.2812C11.3809 75.9645 11.9126 75.8061 12.252 75.8061C12.8629 75.8061 13.2928 75.9419 13.5417 76.2134C13.8132 76.4623 13.949 76.8808 13.949 77.4691C13.949 77.8085 13.7001 78.2158 13.2023 78.6909C12.7272 79.1661 12.0937 79.7091 11.3017 80.32C10.5325 80.9309 9.71791 81.621 8.85812 82.3903C7.99833 83.1596 7.17247 84.0194 6.38056 84.9697C5.61127 85.92 4.97774 86.9608 4.47997 88.0921C4.00482 89.2234 3.76725 90.4565 3.76725 91.7914C3.76725 92.2892 3.85775 92.6739 4.03876 92.9454C4.24239 93.2169 4.57047 93.3526 5.02299 93.3526C6.31268 93.3526 7.69288 93.1264 9.16357 92.6739C10.6569 92.1987 12.1389 91.6104 13.6096 90.909C15.1029 90.185 16.5057 89.4383 17.8181 88.669C19.153 87.8997 20.2956 87.2097 21.2459 86.5987C21.6306 86.3272 21.9586 86.1123 22.2301 85.9539C22.5017 85.7955 22.694 85.7163 22.8071 85.7163C23.4859 85.7163 23.8253 86.067 23.8253 86.7684C23.8253 87.1305 23.5538 87.6169 23.0107 88.2278C22.3772 89.0197 21.5174 89.8343 20.4314 90.6714C19.3679 91.5086 18.1801 92.3118 16.8678 93.0811C15.5781 93.8504 14.2544 94.5405 12.8969 95.1514C11.5619 95.7623 10.3062 96.2488 9.12963 96.6108C7.95308 96.9728 6.96884 97.1538 6.17693 97.1538Z" fill="black" fill-opacity="0.36"/>
<path d="M39.6521 97.9344C38.7697 97.9344 38.1248 97.6968 37.7175 97.2217C37.3103 96.7692 37.1066 95.8528 37.1066 94.4726C37.1066 93.2961 37.299 91.7688 37.6836 89.8909C38.0682 88.0129 38.4981 85.9879 38.9733 83.8157C36.4618 86.6214 33.5656 88.4088 30.2849 89.1781C29.6287 90.5357 28.8594 91.7801 27.977 92.9114C27.0946 94.0427 26.133 94.9591 25.0922 95.6605C24.074 96.3393 23.0106 96.6787 21.9019 96.6787C20.5217 96.6787 19.3338 96.2262 18.3383 95.3211C17.3654 94.4161 16.8789 93.0246 16.8789 91.1466C16.8789 89.8795 17.0712 88.8048 17.4559 87.9224C17.8405 87.0173 18.2817 86.3386 18.7795 85.886C18.3722 85.0262 18.1686 84.042 18.1686 82.9333C18.1686 81.44 18.5759 80.1164 19.3904 78.9624C20.2049 77.8085 21.2797 76.9035 22.6146 76.2473C23.9722 75.5912 25.4429 75.2631 27.0267 75.2631C27.9091 75.2631 28.7463 75.4893 29.5382 75.9419C30.3527 76.3717 31.0089 77.0392 31.5067 77.9443C32.0271 78.8267 32.2873 79.9467 32.2873 81.3042C32.2873 82.4355 32.1176 83.68 31.7782 85.0375C33.3846 84.0872 34.9685 82.7863 36.5297 81.1346C38.1135 79.4828 39.5276 77.6275 40.7721 75.5685C41.1567 74.9576 41.6997 74.6522 42.4011 74.6522C42.9894 74.6522 43.4533 74.8332 43.7926 75.1952C44.1547 75.5346 44.3357 75.9871 44.3357 76.5528C44.3357 76.6659 44.2678 77.0392 44.132 77.6727C43.9963 78.3063 43.8153 79.1321 43.589 80.1503C43.3628 81.1459 43.1139 82.2432 42.8423 83.4424C42.5935 84.6416 42.3446 85.8634 42.0957 87.1078C41.8468 88.3523 41.6205 89.5288 41.4169 90.6375C42.0052 89.5741 42.6387 88.4428 43.3175 87.2436C44.0189 86.0218 44.7429 84.8226 45.4896 83.646C46.2363 82.4469 46.9716 81.3608 47.6957 80.3879C48.4197 79.415 49.0872 78.6457 49.6981 78.08C50.309 77.4917 50.8294 77.1976 51.2593 77.1976C52.1191 77.1976 52.8431 77.4465 53.4314 77.9443C54.0196 78.442 54.3138 78.9511 54.3138 79.4715C54.3138 79.9919 54.2572 80.7951 54.1441 81.8812C54.031 82.9673 53.8839 84.1891 53.7029 85.5466C53.5445 86.8816 53.3748 88.2278 53.1938 89.5854C53.0128 90.943 52.8657 92.1761 52.7526 93.2848C52.6395 94.3708 52.5829 95.1854 52.5829 95.7284C52.5829 96.1809 52.3679 96.6108 51.938 97.0181C51.5081 97.4253 51.0217 97.629 50.4787 97.629C50.4334 97.629 50.3542 97.629 50.2411 97.629C49.9696 97.6516 49.7207 97.6063 49.4944 97.4932C49.2682 97.4027 49.0758 97.0633 48.9175 96.4751C48.7817 95.8868 48.7138 94.8912 48.7138 93.4884C48.7138 92.5381 48.7591 91.4973 48.8496 90.366C48.9401 89.2347 49.0532 88.1034 49.189 86.9721C49.3474 85.8181 49.517 84.7434 49.6981 83.7479C49.1098 84.7208 48.4536 85.8295 47.7296 87.0739C47.0282 88.2957 46.2928 89.5515 45.5235 90.8412C44.7543 92.1082 43.9963 93.2848 43.2496 94.3708C42.5256 95.4342 41.8468 96.294 41.2133 96.9502C40.6024 97.6063 40.082 97.9344 39.6521 97.9344ZM26.8909 86.5987C27.1851 85.7163 27.4227 84.8 27.6037 83.8497C27.7847 82.8768 27.8752 81.9265 27.8752 80.9988C27.8752 80.6142 27.796 80.2408 27.6376 79.8788C27.4792 79.5168 27.2077 79.3358 26.8231 79.3358C26.0538 79.3358 25.2958 79.4941 24.5491 79.8109C23.8251 80.1277 23.2255 80.5802 22.7504 81.1685C22.2752 81.7568 22.0376 82.4582 22.0376 83.2727C22.0376 83.9968 22.2752 84.6076 22.7504 85.1054C23.2481 85.6032 23.859 85.9765 24.5831 86.2254C25.3297 86.4743 26.0651 86.5987 26.7891 86.5987C26.8118 86.5987 26.8457 86.5987 26.8909 86.5987ZM25.4994 89.5854C24.7075 89.5628 23.9382 89.461 23.1916 89.2799C22.4449 89.0763 21.7661 88.7935 21.1552 88.4315C21.0874 88.7935 21.0195 89.1442 20.9516 89.4836C20.8837 89.8003 20.8498 90.1058 20.8498 90.3999C20.8498 90.8977 20.929 91.3502 21.0874 91.7575C21.2684 92.1421 21.6304 92.3345 22.1734 92.3345C22.7391 92.3345 23.3047 92.0856 23.8704 91.5878C24.4586 91.09 25.0017 90.4226 25.4994 89.5854Z" fill="black" fill-opacity="0.36"/>
<path d="M7.02776 95.7128C5.76069 95.7128 4.66333 95.4187 3.73566 94.8304C2.80799 94.2648 2.09527 93.5294 1.59749 92.6244C1.09972 91.6967 0.85083 90.7464 0.85083 89.7735C0.85083 88.1444 1.09972 86.6398 1.59749 85.2596C2.09527 83.8568 2.75142 82.5897 3.56596 81.4584C4.3805 80.3045 5.26292 79.2863 6.21322 78.4039C7.18614 77.5215 8.12512 76.7861 9.03017 76.1978C9.95784 75.5869 10.7837 75.1344 11.5077 74.8403C12.2318 74.5235 12.7635 74.3651 13.1029 74.3651C13.7138 74.3651 14.1437 74.5009 14.3926 74.7724C14.6641 75.0213 14.7998 75.4399 14.7998 76.0281C14.7998 76.3675 14.5509 76.7748 14.0532 77.2499C13.578 77.7251 12.9445 78.2681 12.1526 78.879C11.3833 79.4899 10.5687 80.18 9.70895 80.9493C8.84916 81.7186 8.0233 82.5784 7.23139 83.5287C6.4621 84.479 5.82857 85.5198 5.3308 86.6511C4.85565 87.7824 4.61808 89.0155 4.61808 90.3505C4.61808 90.8482 4.70858 91.2329 4.88959 91.5044C5.09322 91.7759 5.4213 91.9117 5.87382 91.9117C7.16351 91.9117 8.54371 91.6854 10.0144 91.2329C11.5077 90.7577 12.9897 90.1695 14.4604 89.4681C15.9538 88.744 17.3566 87.9973 18.6689 87.2281C20.0038 86.4588 21.1464 85.7687 22.0967 85.1578C22.4814 84.8863 22.8095 84.6713 23.081 84.5129C23.3525 84.3546 23.5448 84.2753 23.6579 84.2753C24.3367 84.2753 24.6761 84.626 24.6761 85.3275C24.6761 85.6895 24.4046 86.176 23.8616 86.7869C23.228 87.5788 22.3683 88.3933 21.2822 89.2305C20.2188 90.0676 19.0309 90.8709 17.7186 91.6401C16.4289 92.4094 15.1053 93.0995 13.7477 93.7104C12.4128 94.3213 11.157 94.8078 9.98046 95.1698C8.80391 95.5318 7.81967 95.7128 7.02776 95.7128Z" fill="white"/>
<path d="M40.5029 96.4935C39.6205 96.4935 38.9756 96.2559 38.5684 95.7807C38.1611 95.3282 37.9575 94.4118 37.9575 93.0316C37.9575 91.8551 38.1498 90.3278 38.5344 88.4499C38.9191 86.5719 39.349 84.5469 39.8241 82.3748C37.3126 85.1804 34.4165 86.9679 31.1357 87.7371C30.4795 89.0947 29.7102 90.3392 28.8278 91.4705C27.9454 92.6018 26.9838 93.5181 25.943 94.2195C24.9248 94.8983 23.8614 95.2377 22.7527 95.2377C21.3725 95.2377 20.1847 94.7852 19.1891 93.8801C18.2162 92.9751 17.7297 91.5836 17.7297 89.7056C17.7297 88.4386 17.922 87.3638 18.3067 86.4814C18.6913 85.5763 19.1325 84.8976 19.6303 84.4451C19.2231 83.5853 19.0194 82.601 19.0194 81.4923C19.0194 79.999 19.4267 78.6754 20.2412 77.5215C21.0558 76.3675 22.1305 75.4625 23.4654 74.8063C24.823 74.1502 26.2937 73.8221 27.8775 73.8221C28.76 73.8221 29.5971 74.0484 30.389 74.5009C31.2036 74.9308 31.8597 75.5982 32.3575 76.5033C32.8779 77.3857 33.1381 78.5057 33.1381 79.8633C33.1381 80.9946 32.9684 82.239 32.629 83.5966C34.2355 82.6463 35.8193 81.3453 37.3805 79.6936C38.9643 78.0419 40.3785 76.1865 41.6229 74.1276C42.0075 73.5166 42.5506 73.2112 43.252 73.2112C43.8403 73.2112 44.3041 73.3922 44.6435 73.7542C45.0055 74.0936 45.1865 74.5461 45.1865 75.1118C45.1865 75.2249 45.1186 75.5982 44.9829 76.2318C44.8471 76.8653 44.6661 77.6912 44.4398 78.7093C44.2136 79.7049 43.9647 80.8022 43.6932 82.0014C43.4443 83.2006 43.1954 84.4224 42.9465 85.6669C42.6976 86.9113 42.4714 88.0879 42.2677 89.1965C42.856 88.1331 43.4895 87.0018 44.1683 85.8026C44.8697 84.5808 45.5938 83.3816 46.3404 82.2051C47.0871 81.0059 47.8224 79.9198 48.5465 78.9469C49.2705 77.974 49.938 77.2047 50.5489 76.639C51.1598 76.0508 51.6802 75.7566 52.1101 75.7566C52.9699 75.7566 53.6939 76.0055 54.2822 76.5033C54.8705 77.0011 55.1646 77.5101 55.1646 78.0305C55.1646 78.5509 55.1081 79.3542 54.9949 80.4402C54.8818 81.5263 54.7347 82.7481 54.5537 84.1057C54.3953 85.4406 54.2256 86.7868 54.0446 88.1444C53.8636 89.502 53.7165 90.7351 53.6034 91.8438C53.4903 92.9298 53.4337 93.7444 53.4337 94.2874C53.4337 94.7399 53.2188 95.1698 52.7889 95.5771C52.359 95.9844 51.8725 96.188 51.3295 96.188C51.2842 96.188 51.205 96.188 51.0919 96.188C50.8204 96.2106 50.5715 96.1654 50.3453 96.0522C50.119 95.9617 49.9267 95.6224 49.7683 95.0341C49.6325 94.4458 49.5647 93.4502 49.5647 92.0474C49.5647 91.0971 49.6099 90.0563 49.7004 88.925C49.7909 87.7937 49.904 86.6624 50.0398 85.5311C50.1982 84.3772 50.3679 83.3024 50.5489 82.3069C49.9606 83.2798 49.3045 84.3885 48.5804 85.6329C47.879 86.8547 47.1437 88.1105 46.3744 89.4002C45.6051 90.6672 44.8471 91.8438 44.1004 92.9298C43.3764 93.9933 42.6976 94.853 42.0641 95.5092C41.4532 96.1654 40.9328 96.4935 40.5029 96.4935ZM27.7418 85.1578C28.0359 84.2754 28.2735 83.359 28.4545 82.4087C28.6355 81.4358 28.726 80.4855 28.726 79.5578C28.726 79.1732 28.6468 78.7998 28.4884 78.4378C28.3301 78.0758 28.0585 77.8948 27.6739 77.8948C26.9046 77.8948 26.1466 78.0532 25.4 78.3699C24.6759 78.6867 24.0763 79.1392 23.6012 79.7275C23.1261 80.3158 22.8885 81.0172 22.8885 81.8317C22.8885 82.5558 23.1261 83.1667 23.6012 83.6644C24.099 84.1622 24.7099 84.5356 25.4339 84.7844C26.1806 85.0333 26.9159 85.1578 27.64 85.1578C27.6626 85.1578 27.6965 85.1578 27.7418 85.1578ZM26.3503 88.1444C25.5584 88.1218 24.7891 88.02 24.0424 87.839C23.2957 87.6353 22.617 87.3525 22.0061 86.9905C21.9382 87.3525 21.8703 87.7032 21.8024 88.0426C21.7345 88.3594 21.7006 88.6648 21.7006 88.959C21.7006 89.4567 21.7798 89.9093 21.9382 90.3165C22.1192 90.7012 22.4812 90.8935 23.0242 90.8935C23.5899 90.8935 24.1555 90.6446 24.7212 90.1468C25.3095 89.649 25.8525 88.9816 26.3503 88.1444Z" fill="white"/>
<path d="M329.506 65.5381C315.805 76.9434 299.877 88.988 286.181 100.393C287.411 92.6317 286.527 90.3943 287.038 82.5529C298.31 74.3598 317.467 68.6865 329.506 65.5381Z" fill="#BFE1FF"/>
<path d="M286.181 100.393L292.248 85.9463L307.91 82.9152L286.181 100.393Z" fill="#0274B9"/>
<path d="M271.68 70.4338C276.619 74.5783 281.589 77.1406 287.038 82.5529C299.962 77.3057 316.582 70.7854 329.506 65.5382C319.544 73.108 303.936 81.4768 292.248 85.9409C296.116 90.3305 307.388 96.3767 310.909 100.431C322.197 83.4585 324.376 74.3599 329.506 65.5382C312.837 65.0162 288.296 68.9848 271.68 70.4338Z" fill="white"/>
<path d="M242.14 87.5214C243.904 82.5365 249.883 80.8629 259.671 82.4066C271.907 84.3362 277.778 96.7885 290.345 90.0349" stroke="white" stroke-width="0.716245" stroke-dasharray="5.01 5.01"/>
<path d="M215.753 94.6327V100.481C212.827 102.015 209.555 102.772 206.252 102.678C204.19 102.711 202.138 102.387 200.186 101.72C198.475 101.135 196.914 100.18 195.615 98.9234C194.344 97.6375 193.375 96.0844 192.78 94.3773C192.093 92.452 191.755 90.4193 191.784 88.3753C191.752 85.8323 192.247 83.3103 193.239 80.9686C194.138 78.8189 195.653 76.9836 197.594 75.6946C199.685 74.3642 202.128 73.6925 204.605 73.7663C209.432 73.7663 212.837 75.2221 214.821 78.1337C216.805 81.0453 217.788 85.1572 217.771 90.4696H198.705C198.731 91.4368 198.954 92.3886 199.361 93.2668C199.767 94.145 200.348 94.9312 201.067 95.5777C202.617 96.8494 204.582 97.5043 206.584 97.4166C209.826 97.2749 212.98 96.3173 215.753 94.6327ZM198.705 85.4893H210.939C210.906 83.8013 210.353 82.1645 209.355 80.8026C208.836 80.1878 208.18 79.7043 207.438 79.3914C206.697 79.0785 205.893 78.9451 205.09 79.0021C204.255 78.9536 203.419 79.0872 202.641 79.3937C201.863 79.7002 201.16 80.1722 200.582 80.7771C199.444 82.0909 198.787 83.7525 198.718 85.4893H198.705Z" fill="black" fill-opacity="0.32"/>
<path d="M162.54 102.039V64.1122H171.926C174.48 64.1122 176.689 64.1888 178.439 64.3548C180.153 64.512 181.836 64.9208 183.432 65.568C184.999 66.1804 186.338 67.2648 187.263 68.6711C188.278 70.3915 188.766 72.3716 188.667 74.3666C188.679 75.7924 188.356 77.201 187.722 78.4786C187.086 79.7325 186.147 80.8079 184.99 81.6072C183.756 82.4549 182.337 82.9936 180.852 83.178V83.2674C182.41 83.3823 183.751 84.6976 184.862 87.1878L190.889 102.039H182.41L177.851 90.1888C177.556 89.3833 177.166 88.6159 176.689 87.9029C176.298 87.3358 175.753 86.8926 175.118 86.6259C174.298 86.34 173.432 86.2101 172.564 86.2428H170.125V102.039H162.54ZM170.138 70.1141V80.3302H172.628C174.627 80.406 176.619 80.0443 178.464 79.2703C179.933 78.5807 180.673 77.176 180.673 75.0562C180.786 74.2454 180.636 73.4199 180.245 72.7006C179.855 71.9813 179.244 71.406 178.502 71.0591C176.624 70.3677 174.628 70.051 172.628 70.1269L170.138 70.1141Z" fill="black" fill-opacity="0.32"/>
<path d="M153.218 95.8587V100.967L151.66 101.554C151.06 101.771 150.383 101.963 149.744 102.142C148.075 102.562 146.358 102.764 144.636 102.742C141.885 102.832 139.157 102.207 136.719 100.928C134.643 99.7693 132.988 97.9806 131.994 95.8204C130.909 93.3475 130.382 90.6663 130.449 87.9668C130.377 85.4588 130.911 82.9705 132.007 80.7134C133.003 78.6734 134.569 76.9658 136.515 75.7969C138.554 74.5912 140.889 73.9766 143.257 74.0218C145.759 73.9027 148.234 74.5874 150.319 75.9757C152.141 77.3261 153.483 79.2232 154.15 81.3902C154.967 84.0097 155.359 86.743 155.312 89.4864H135.774C135.762 91.1402 136.204 92.7657 137.051 94.1859C137.844 95.5475 138.991 96.6685 140.371 97.4295C141.723 98.2051 143.256 98.6104 144.815 98.6043C146.458 98.5802 148.084 98.2646 149.617 97.6721C150.916 97.2682 152.141 96.6557 153.244 95.8587H153.218ZM135.774 85.7193H149.936C149.949 84.399 149.674 83.0918 149.132 81.8882C148.624 80.7618 147.804 79.8046 146.769 79.1299C145.677 78.4564 144.412 78.1188 143.13 78.1593C141.743 78.1132 140.377 78.5017 139.222 79.2703C138.216 79.9579 137.406 80.8952 136.872 81.9904C136.322 83.1545 135.968 84.4015 135.825 85.6809L135.774 85.7193Z" fill="black" fill-opacity="0.32"/>
<path d="M119.837 64.0355H124.881V102.039H119.837V64.0355Z" fill="black" fill-opacity="0.32"/>
<path d="M111.741 95.8842V100.992C111.306 101.171 110.796 101.35 110.195 101.58C109.595 101.81 108.918 101.988 108.28 102.167C107.641 102.346 106.85 102.474 106.007 102.601C105.05 102.721 104.085 102.776 103.121 102.767C100.369 102.857 97.6414 102.233 95.2033 100.954C93.127 99.7947 91.4725 98.0061 90.4784 95.8459C89.3949 93.3726 88.8675 90.6916 88.9332 87.9922C88.8726 85.4715 89.4248 82.9736 90.5422 80.7133C91.5383 78.6733 93.104 76.9657 95.0501 75.7968C97.0833 74.6001 99.4083 73.9902 101.767 74.0345C104.253 73.9301 106.709 74.6188 108.778 76.0011C110.599 77.3515 111.942 79.2486 112.609 81.4156C113.426 84.0352 113.818 86.7684 113.771 89.5119H94.2328C94.2154 91.1664 94.6574 92.7932 95.5098 94.2113C96.3013 95.5697 97.4437 96.6901 98.8173 97.4549C100.176 98.2249 101.712 98.6256 103.274 98.617C104.916 98.5978 106.542 98.2865 108.076 97.6975C109.372 97.2968 110.593 96.6841 111.69 95.8842H111.741ZM94.3094 85.7447H108.472C108.486 84.423 108.207 83.1145 107.654 81.9137C107.157 80.7471 106.319 79.7575 105.251 79.0741C104.182 78.3907 102.933 78.0452 101.665 78.0826C100.278 78.0365 98.9122 78.4249 97.7573 79.1936C96.7155 79.9022 95.8821 80.8766 95.3438 82.0158C94.8021 83.1821 94.4528 84.4284 94.3094 85.7064V85.7447Z" fill="black" fill-opacity="0.32"/>
<path d="M242.124 102.078V99.1789H242.009C240.953 100.363 239.643 101.293 238.177 101.899C236.71 102.505 235.126 102.772 233.542 102.678C231.716 102.728 229.902 102.357 228.242 101.592C226.809 100.91 225.571 99.8784 224.641 98.5915C223.693 97.3015 223.003 95.8401 222.611 94.2879C221.743 90.8903 221.743 87.329 222.611 83.9314C223.003 82.3949 223.693 80.9502 224.641 79.6789C225.578 78.4209 226.816 77.4195 228.242 76.7673C229.906 76.0171 231.718 75.6546 233.542 75.7074C235.098 75.6565 236.646 75.9534 238.073 76.5764C239.501 77.1993 240.771 78.1327 241.792 79.3086H241.894V63.9844H249.083V102.078H242.124ZM229.456 89.1416C229.423 91.1669 229.921 93.1655 230.899 94.9392C231.345 95.7617 232.018 96.4392 232.837 96.8917C233.656 97.3443 234.587 97.553 235.521 97.4932C236.857 97.5482 238.163 97.0915 239.174 96.2162C240.124 95.3606 240.829 94.2676 241.217 93.0492C241.634 91.7845 241.846 90.4607 241.843 89.1288C241.835 88.1554 241.711 87.1865 241.472 86.2428C241.226 85.3002 240.839 84.4003 240.323 83.5738C239.806 82.7862 239.116 82.1268 238.305 81.6455C237.428 81.1443 236.43 80.8926 235.419 80.9176C234.123 80.868 232.858 81.3262 231.895 82.1946C231.002 83.0571 230.354 84.1412 230.017 85.3361C229.644 86.5788 229.455 87.8695 229.456 89.1671V89.1416Z" fill="black" fill-opacity="0.32"/>
<path d="M76.6484 68.7605H64.8105V63.959H93.9392V68.7605H82.1013V101.963H76.6484V68.7605Z" fill="black" fill-opacity="0.32"/>
<path d="M216.818 93.8197V99.6684C213.891 101.202 210.62 101.959 207.317 101.865C205.255 101.898 203.203 101.574 201.251 100.907C199.54 100.322 197.979 99.3674 196.679 98.1105C195.408 96.8245 194.44 95.2715 193.844 93.5643C193.157 91.639 192.82 89.6064 192.848 87.5623C192.816 85.0193 193.312 82.4973 194.304 80.1557C195.203 78.0059 196.718 76.1706 198.659 74.8816C200.75 73.5512 203.192 72.8795 205.67 72.9533C210.497 72.9533 213.902 74.4091 215.886 77.3207C217.869 80.2323 218.853 84.3443 218.836 89.6566H199.77C199.796 90.6239 200.019 91.5756 200.425 92.4538C200.831 93.332 201.412 94.1183 202.132 94.7647C203.682 96.0364 205.646 96.6913 207.649 96.6036C210.891 96.4619 214.044 95.5044 216.818 93.8197ZM199.77 84.6763H212.004C211.971 82.9883 211.418 81.3515 210.42 79.9896C209.901 79.3748 209.244 78.8913 208.503 78.5784C207.762 78.2655 206.957 78.1321 206.155 78.1891C205.32 78.1406 204.484 78.2742 203.706 78.5807C202.927 78.8872 202.225 79.3593 201.647 79.9641C200.509 81.2779 199.852 82.9396 199.782 84.6763H199.77Z" fill="white"/>
<path d="M163.604 101.226V63.2992H172.991C175.545 63.2992 177.754 63.3758 179.503 63.5418C181.218 63.699 182.901 64.1078 184.496 64.755C186.064 65.3674 187.403 66.4518 188.327 67.8581C189.342 69.5785 189.831 71.5586 189.732 73.5536C189.744 74.9794 189.42 76.388 188.787 77.6656C188.151 78.9195 187.211 79.9949 186.054 80.7943C184.821 81.6419 183.402 82.1806 181.917 82.365V82.4544C183.475 82.5693 184.816 83.8846 185.927 86.3748L191.954 101.226H183.475L178.916 89.3758C178.621 88.5703 178.231 87.8029 177.754 87.0899C177.363 86.5228 176.818 86.0796 176.183 85.8129C175.363 85.527 174.497 85.3971 173.629 85.4298H171.19V101.226H163.604ZM171.203 69.3012V79.5172H173.693C175.692 79.593 177.684 79.2313 179.529 78.4573C180.997 77.7677 181.738 76.363 181.738 74.2432C181.851 73.4324 181.701 72.6069 181.31 71.8876C180.919 71.1683 180.309 70.5931 179.567 70.2461C177.689 69.5547 175.693 69.238 173.693 69.3139L171.203 69.3012Z" fill="white"/>
<path d="M154.283 95.0457V100.154L152.725 100.741C152.125 100.958 151.448 101.15 150.809 101.329C149.14 101.749 147.423 101.951 145.701 101.929C142.95 102.019 140.222 101.394 137.784 100.115C135.707 98.9563 134.053 97.1676 133.059 95.0074C131.974 92.5345 131.447 89.8533 131.514 87.1538C131.441 84.6458 131.976 82.1575 133.072 79.9004C134.068 77.8604 135.633 76.1528 137.579 74.9839C139.619 73.7782 141.953 73.1636 144.322 73.2088C146.824 73.0897 149.299 73.7744 151.384 75.1627C153.205 76.5131 154.548 78.4102 155.215 80.5772C156.031 83.1967 156.424 85.93 156.377 88.6735H136.839C136.827 90.3272 137.268 91.9527 138.116 93.3729C138.909 94.7345 140.056 95.8555 141.436 96.6165C142.788 97.3921 144.321 97.7974 145.88 97.7913C147.523 97.7672 149.149 97.4516 150.682 96.8591C151.981 96.4552 153.206 95.8427 154.308 95.0457H154.283ZM136.839 84.9063H151.001C151.014 83.586 150.739 82.2788 150.196 81.0752C149.689 79.9488 148.869 78.9916 147.834 78.3169C146.742 77.6434 145.476 77.3058 144.194 77.3464C142.808 77.3002 141.441 77.6887 140.287 78.4574C139.281 79.1449 138.471 80.0823 137.937 81.1774C137.387 82.3415 137.033 83.5885 136.89 84.868L136.839 84.9063Z" fill="white"/>
<path d="M120.901 63.2225H125.946V101.226H120.901V63.2225Z" fill="white"/>
<path d="M112.805 95.0712V100.179C112.371 100.358 111.86 100.537 111.26 100.767C110.66 100.997 109.983 101.175 109.345 101.354C108.706 101.533 107.914 101.661 107.072 101.788C106.114 101.908 105.15 101.963 104.186 101.954C101.434 102.044 98.7061 101.42 96.268 100.141C94.1917 98.9817 92.5372 97.1931 91.5431 95.0329C90.4596 92.5596 89.9322 89.8787 89.9979 87.1793C89.9373 84.6585 90.4894 82.1606 91.6069 79.9003C92.603 77.8604 94.1687 76.1527 96.1148 74.9838C98.148 73.7872 100.473 73.1772 102.832 73.2215C105.318 73.1172 107.773 73.8058 109.843 75.1881C111.664 76.5385 113.006 78.4356 113.674 80.6026C114.49 83.2222 114.883 85.9555 114.836 88.6989H95.2975C95.2801 90.3534 95.7221 91.9802 96.5745 93.3983C97.366 94.7567 98.5084 95.8771 99.882 96.6419C101.241 97.4119 102.777 97.8126 104.339 97.804C105.981 97.7848 107.607 97.4735 109.14 96.8846C110.437 96.4839 111.658 95.8711 112.754 95.0712H112.805ZM95.3741 84.9317H109.536C109.55 83.61 109.271 82.3016 108.719 81.1007C108.221 79.9341 107.384 78.9445 106.315 78.2611C105.247 77.5777 103.997 77.2322 102.73 77.2696C101.343 77.2235 99.9769 77.612 98.822 78.3806C97.7802 79.0892 96.9468 80.0636 96.4085 81.2028C95.8668 82.3691 95.5175 83.6155 95.3741 84.8934V84.9317Z" fill="white"/>
<path d="M243.188 101.265V98.3659H243.073C242.018 99.5504 240.708 100.48 239.241 101.086C237.775 101.692 236.191 101.959 234.607 101.865C232.78 101.915 230.967 101.544 229.307 100.779C227.874 100.097 226.635 99.0654 225.706 97.7785C224.758 96.4885 224.068 95.0271 223.676 93.4749C222.807 90.0773 222.807 86.516 223.676 83.1184C224.068 81.5819 224.758 80.1372 225.706 78.8659C226.642 77.6079 227.881 76.6065 229.307 75.9543C230.971 75.2041 232.783 74.8416 234.607 74.8944C236.163 74.8436 237.711 75.1404 239.138 75.7634C240.565 76.3864 241.835 77.3197 242.856 78.4956H242.958V63.1714H250.148V101.265H243.188ZM230.52 88.3286C230.488 90.3539 230.985 92.3525 231.963 94.1262C232.41 94.9487 233.082 95.6262 233.901 96.0787C234.721 96.5313 235.652 96.74 236.586 96.6803C237.922 96.7352 239.228 96.2785 240.238 95.4032C241.188 94.5476 241.894 93.4546 242.282 92.2363C242.699 90.9715 242.91 89.6477 242.907 88.3158C242.9 87.3425 242.775 86.3735 242.537 85.4298C242.291 84.4872 241.903 83.5873 241.388 82.7608C240.87 81.9732 240.18 81.3138 239.37 80.8325C238.492 80.3313 237.494 80.0796 236.484 80.1046C235.188 80.055 233.923 80.5132 232.959 81.3816C232.067 82.2441 231.419 83.3282 231.082 84.5231C230.709 85.7658 230.519 87.0565 230.52 88.3541V88.3286Z" fill="white"/>
<path d="M77.7131 67.9476H65.8752V63.146H95.0039V67.9476H83.166V101.15H77.7131V67.9476Z" fill="white"/>
<path d="M9.23358 50.4803C8.35263 50.4803 7.47167 49.9297 6.59072 48.8285C5.74123 47.7273 4.95467 45.9812 4.23103 43.59C3.50739 41.1988 2.92533 38.084 2.48486 34.2456C2.07584 30.3757 1.87134 25.6722 1.87134 20.1348C1.87134 17.0515 2.01292 14.6446 2.29608 12.9142C2.57925 11.1523 2.9568 9.86226 3.42873 9.04423C3.93214 8.2262 4.49846 7.70704 5.12771 7.4868C5.75696 7.26656 6.40195 7.15644 7.06266 7.15644C7.91215 7.15644 8.63579 7.47108 9.23358 8.10033C9.86283 8.72958 10.1775 9.59485 10.1775 10.696C10.1775 11.6714 9.8471 12.8827 9.18638 14.33C8.99761 15.8717 8.87176 17.256 8.80883 18.4831C8.77737 19.6786 8.76164 20.9529 8.76164 22.3058C8.76164 24.4452 8.7931 26.6317 8.85603 28.8655C8.95042 31.0679 9.07627 33.1916 9.23358 35.2367C9.39089 37.2503 9.56393 39.0437 9.75271 40.6168C10.5393 38.6976 11.4202 36.5738 12.3956 34.2456C13.3709 31.9174 14.3462 29.5735 15.3216 27.2138C16.3284 24.8541 17.2723 22.6361 18.1532 20.5596C19.0656 18.4516 19.8365 16.6582 20.4657 15.1795C21.1264 13.7007 21.5669 12.6939 21.7871 12.1591C22.5737 10.2713 23.4232 8.91835 24.3356 8.10033C25.248 7.2823 26.1762 6.87327 27.12 6.87327C27.8751 6.87327 28.5201 7.10925 29.055 7.58119C29.5899 8.05313 29.8573 8.94986 29.8573 10.2713C29.8573 10.523 29.6056 11.2624 29.1022 12.4894C28.6303 13.7165 27.9695 15.2896 27.12 17.2088C26.302 19.0966 25.3739 21.2045 24.3356 23.5328C23.3288 25.8295 22.2905 28.2048 21.2208 30.6589C20.0567 33.3332 18.8926 35.8659 17.7285 38.2571C16.5958 40.6482 15.4946 42.7562 14.4249 44.5811C13.3866 46.4059 12.4113 47.8374 11.4989 48.8757C10.6179 49.9454 9.86283 50.4803 9.23358 50.4803Z" fill="white"/>
<path d="M45.4217 48.4982C44.698 48.4982 44.0373 48.1993 43.4395 47.6015C42.8732 47.0351 42.59 46.0755 42.59 44.7226C42.59 43.7158 42.6687 42.3158 42.826 40.5224C43.0148 38.6976 43.3609 36.3536 43.8643 33.4905C42.7631 35.7558 41.6147 37.7694 40.4191 39.5313C39.2235 41.2932 38.0437 42.6776 36.8796 43.6844C35.7469 44.6597 34.6615 45.1474 33.6232 45.1474C31.9557 45.1474 30.6343 44.644 29.6589 43.6372C28.6836 42.5989 28.1959 40.664 28.1959 37.8323C28.1959 36.4795 28.306 34.9535 28.5263 33.2545C28.778 31.5556 29.0926 29.8566 29.4701 28.1576C29.8477 26.4586 30.2253 24.9486 30.6028 23.6272C31.0118 22.2743 31.3736 21.2675 31.6883 20.6068C31.94 20.0404 32.2546 19.6 32.6321 19.2853C33.0412 18.9707 33.5603 18.8134 34.1895 18.8134C35.1963 18.8134 35.9672 19.1438 36.502 19.8045C37.0369 20.4652 37.3043 21.1416 37.3043 21.8338C37.3043 22.3687 37.1785 23.1395 36.9268 24.1463C36.7065 25.1531 36.4234 26.2699 36.0773 27.4969C35.7627 28.724 35.4323 29.9824 35.0862 31.2724C34.7401 32.5624 34.4412 33.7737 34.1895 34.9063C33.9693 36.039 33.8592 36.9986 33.8592 37.7852C33.8592 38.7605 34.2367 39.2482 34.9918 39.2482C35.4323 39.2482 35.9986 38.8234 36.6908 37.9739C37.4144 37.1244 38.1695 35.9918 38.9561 34.576C39.7741 33.1287 40.5922 31.5556 41.4102 29.8566C42.2597 28.1261 43.0305 26.3801 43.7227 24.6182C44.4463 22.8248 45.0599 21.1731 45.5633 19.6629C45.8779 18.719 46.3026 18.0583 46.8375 17.6808C47.3724 17.3032 47.9859 17.1144 48.678 17.1144C49.7478 17.1144 50.5658 17.4133 51.1321 18.0111C51.7299 18.6089 52.0288 19.4584 52.0288 20.5596C52.0288 21.063 51.9502 21.9125 51.7928 23.108C51.6355 24.3036 51.431 25.7036 51.1793 27.3082C50.9591 28.9127 50.6916 30.6117 50.377 32.4051C50.0624 34.1984 49.7478 35.9603 49.4331 37.6908C49.15 39.4212 48.8668 41.0101 48.5837 42.4573C48.3005 43.8732 48.0645 45.0058 47.8758 45.8553C47.5611 47.1138 47.1836 47.8689 46.7431 48.1206C46.3026 48.3723 45.8621 48.4982 45.4217 48.4982Z" fill="white"/>
<path d="M61.0679 47.979C59.1172 47.979 57.5441 47.3026 56.3485 45.9497C55.1529 44.5653 54.5552 42.3472 54.5552 39.2954C54.5552 37.3447 54.7754 35.394 55.2159 33.4433C55.6878 31.4612 56.3328 29.5892 57.1508 27.8273C58.0003 26.0339 58.9756 24.4452 60.0768 23.0609C61.2095 21.6765 62.4523 20.591 63.8051 19.8045C65.158 18.9865 66.5581 18.5774 68.0054 18.5774C70.4595 18.5774 72.3787 19.2382 73.763 20.5596C75.1474 21.881 75.8396 23.5641 75.8396 25.6092C75.8396 27.1823 75.3991 28.6138 74.5182 29.9038C73.6687 31.1623 72.5046 32.2949 71.0258 33.3017C69.5471 34.3085 67.8953 35.221 66.0704 36.039C64.2456 36.857 62.3736 37.5964 60.4544 38.2571C60.2971 39.3897 60.2184 40.3965 60.2184 41.2775C60.2184 41.8124 60.5173 42.0798 61.1151 42.0798C62.5309 42.0798 64.0411 41.8596 65.6457 41.4191C67.2818 40.9471 68.9335 40.3494 70.6011 39.6257C72.2686 38.8706 73.8732 38.0998 75.4148 37.3132C76.9565 36.4952 78.3566 35.7244 79.6151 35.0007C80.905 34.2456 81.959 33.6478 82.7771 33.2073C83.6266 32.7354 84.1772 32.4994 84.4289 32.4994C85.121 32.4994 85.6244 32.7039 85.9391 33.113C86.2537 33.522 86.411 33.9625 86.411 34.4344C86.411 34.6546 85.9863 35.1423 85.1368 35.8974C84.3187 36.6525 83.1861 37.5492 81.7388 38.5874C80.323 39.5943 78.7184 40.6482 76.925 41.7494C75.1631 42.8192 73.3226 43.8417 71.4034 44.817C69.5156 45.7609 67.675 46.516 65.8817 47.0823C64.1198 47.6801 62.5152 47.979 61.0679 47.979ZM61.2567 34.0568C62.5466 33.3017 63.8209 32.5152 65.0794 31.6971C66.3693 30.8477 67.4391 29.9038 68.2886 28.8655C69.1381 27.7958 69.5628 26.5531 69.5628 25.1373C69.5628 24.7283 69.4527 24.4609 69.2324 24.335C69.0122 24.1777 68.6976 24.0991 68.2886 24.0991C67.1874 24.0991 66.1806 24.5867 65.2682 25.562C64.3872 26.5374 63.6006 27.7958 62.9085 29.3375C62.2478 30.8477 61.6972 32.4208 61.2567 34.0568Z" fill="white"/>
<path d="M89.0649 48.7341C86.2333 48.7341 83.9994 47.8689 82.3634 46.1385C80.7588 44.3766 79.9565 41.8753 79.9565 38.6346C79.9565 36.8727 80.1925 34.8119 80.6644 32.4523C81.1364 30.0611 81.7499 27.5442 82.505 24.9013C83.2915 22.227 84.1253 19.5842 85.0062 16.9728C85.9187 14.3615 86.8153 11.9388 87.6963 9.70496C88.5772 7.47111 89.3481 5.59904 90.0088 4.08884C90.5751 2.92472 91.3774 2.34267 92.4157 2.34267C93.0764 2.34267 93.6113 2.54718 94.0203 2.95619C94.4607 3.3652 94.681 4.02591 94.681 4.93833C94.681 5.3788 94.4607 6.33842 94.0203 7.81716C93.5798 9.2959 92.9977 11.1208 92.2741 13.2917C91.5819 15.4312 90.8268 17.7437 90.0088 20.2292C89.2222 22.7148 88.4671 25.2159 87.7435 27.7329C87.0513 30.2499 86.485 32.6253 86.0445 34.8591C85.604 37.0615 85.3838 38.9335 85.3838 40.4752C85.3838 41.1045 85.5568 41.6079 85.9029 41.9854C86.2805 42.363 86.7681 42.5517 87.3659 42.5517C88.6559 42.5517 89.9773 42.3158 91.3302 41.8438C92.7146 41.3719 94.0675 40.7741 95.3889 40.0505C96.7418 39.3268 98.016 38.556 99.2116 37.738C100.407 36.9199 101.477 36.1491 102.421 35.4255C103.396 34.6704 104.183 34.0726 104.78 33.6321C105.567 33.0343 106.102 32.7354 106.385 32.7354C107.455 32.7354 107.99 33.2545 107.99 34.2928C107.99 34.5445 107.675 35.0636 107.046 35.8502C106.511 36.5424 105.756 37.4233 104.78 38.4931C103.805 39.5628 102.672 40.6954 101.383 41.891C100.124 43.0551 98.7711 44.1563 97.3238 45.1946C95.908 46.2329 94.4922 47.0823 93.0764 47.7431C91.6606 48.4038 90.3234 48.7341 89.0649 48.7341Z" fill="white"/>
<path d="M137.199 15.5268C137.199 15.9044 137.073 16.2347 136.821 16.5179C136.569 16.8011 136.255 17.0213 135.877 17.1786C135.342 17.3989 134.414 17.682 133.093 18.0281C131.771 18.3742 130.167 18.7675 128.279 19.208C126.423 19.6484 124.425 20.1046 122.285 20.5766C120.146 21.017 118.006 21.4418 115.867 21.8508C115.049 24.8712 114.215 27.9858 113.366 31.195C112.516 34.3727 108.222 50.3607 107.372 53.444C107.057 54.5452 106.68 55.379 106.239 55.9454C105.799 56.5431 105.044 56.842 103.974 56.842C102.81 56.842 102.023 56.4645 101.614 55.7094C101.237 54.9857 101.19 53.9946 101.473 52.7361C102.291 49.3067 106.491 33.2558 107.183 30.2983C107.907 27.3409 108.489 24.9499 108.929 23.125C107.042 23.4397 105.39 23.6913 103.974 23.8801C102.558 24.0374 101.551 24.1003 100.954 24.0689C100.293 24.006 99.7424 23.7386 99.3019 23.2666C98.8614 22.7947 98.6569 22.2126 98.6884 21.5205C98.7513 20.8912 99.0345 20.3563 99.5379 19.9159C100.041 19.4439 100.639 19.1608 101.331 19.0664C102.307 18.972 103.565 18.8304 105.107 18.6416C106.648 18.4528 108.347 18.2326 110.204 17.9809C110.613 16.3763 111.085 14.7245 111.62 13.0256C112.154 11.2951 112.705 9.64325 113.271 8.07013C113.869 6.46553 114.435 5.06544 114.97 3.86986C115.505 2.67429 115.993 1.80908 116.433 1.27421C116.779 0.865201 117.204 0.550589 117.708 0.330352C118.242 0.110113 118.762 0 119.265 0C119.926 0 120.46 0.23596 120.87 0.7079C121.279 1.17984 121.483 1.73041 121.483 2.35966C121.483 2.61137 121.467 2.8788 121.436 3.16196C121.404 3.41366 121.341 3.66536 121.247 3.91705C120.649 5.49018 120.004 7.39372 119.312 9.62757C118.651 11.8614 117.959 14.3155 117.236 16.9898C119.595 16.6438 121.908 16.2977 124.173 15.9516C126.47 15.574 128.546 15.2279 130.403 14.9133C132.29 14.5672 133.801 14.2683 134.933 14.0166C135.563 13.7964 136.097 13.8436 136.538 14.1582C136.978 14.4414 137.199 14.8976 137.199 15.5268Z" fill="white"/>
<path d="M118.333 49.8366C117.326 49.8366 116.414 49.5534 115.596 48.9871C114.778 48.4522 114.133 47.7443 113.661 46.8634C113.189 45.951 112.953 44.9756 112.953 43.9373C112.953 41.9867 113.378 40.0832 114.227 38.2269C115.108 36.3706 116.257 34.6087 117.672 32.9412C119.088 31.2737 120.63 29.7478 122.298 28.3634C123.996 26.9476 125.68 25.7364 127.347 24.7296C129.046 23.7228 130.588 22.9363 131.972 22.3699C133.388 21.8036 134.489 21.5205 135.276 21.5205C136.188 21.5205 136.928 21.725 137.494 22.134C138.092 22.5115 138.391 23.1093 138.391 23.9273C138.391 24.179 138.328 24.3835 138.202 24.5409C138.611 24.6352 138.941 24.8712 139.193 25.2487C139.445 25.6263 139.57 26.1925 139.57 26.9476C139.57 27.2623 139.492 28.0802 139.334 29.4017C139.177 30.7231 139.004 32.3277 138.815 34.2154C138.658 36.1032 138.579 38.0696 138.579 40.1146C138.579 40.4293 138.627 40.7124 138.721 40.9641C138.815 41.1844 139.02 41.2945 139.334 41.2945C140.593 41.2945 141.867 41.0428 143.157 40.5394C144.479 40.0045 140.997 41.7035 142.224 40.9484C143.483 40.1619 144.615 39.391 145.622 38.6359C146.66 37.8494 147.526 37.2044 148.218 36.701C148.942 36.1661 149.413 35.8987 149.634 35.8987C150.703 35.8987 151.238 36.4336 151.238 37.5033C151.238 37.7864 150.892 38.3842 150.2 39.2966C149.539 40.1776 148.627 41.2001 147.463 42.3643C146.299 43.4969 144.993 44.6296 143.546 45.7622C142.13 46.8634 145.407 45.4318 143.865 46.1555C142.355 46.8791 140.892 47.2409 139.476 47.2409C137.746 47.2409 136.424 46.8319 135.512 46.0139C134.631 45.1959 134.002 44.0947 133.624 42.7103C133.278 41.2945 133.089 39.7056 133.058 37.9437C131.453 40.2405 129.786 42.2856 128.055 44.0789C126.356 45.8408 124.673 47.2409 123.005 48.2792C121.338 49.3174 119.78 49.8366 118.333 49.8366ZM135.04 26.1926C131.956 27.6713 129.188 29.3702 126.734 31.2894C124.28 33.1772 122.329 35.1593 120.882 37.2358C119.466 39.3124 118.758 41.3102 118.758 43.2294C118.758 43.7643 119.01 44.0317 119.513 44.0317C120.111 44.0317 120.897 43.6856 121.873 42.9935C122.88 42.3013 123.965 41.3889 125.129 40.2562C126.293 39.0921 127.457 37.8021 128.621 36.3863C129.786 34.9391 130.871 33.4603 131.878 31.9501C132.885 30.4399 133.687 28.9927 134.285 27.6083C134.505 27.1049 134.757 26.6331 135.04 26.1926Z" fill="white"/>
<path d="M165.965 48.4378C164.958 48.4378 164.045 48.1546 163.227 47.5883C162.409 47.0534 161.764 46.3455 161.292 45.4646C160.82 44.5521 160.584 43.5768 160.584 42.5385C160.584 40.5879 161.009 38.6844 161.859 36.8281C162.74 34.9718 163.888 33.2099 165.304 31.5424C166.72 29.8749 168.261 28.349 169.929 26.9646C171.628 25.5488 173.311 24.3376 174.979 23.3308C176.678 22.324 178.219 21.5375 179.604 20.9711C181.019 20.4048 182.121 20.1216 182.907 20.1216C183.82 20.1216 184.559 20.3262 185.125 20.7352C185.723 21.1127 186.022 21.7105 186.022 22.5285C186.022 22.7802 185.959 22.9847 185.833 23.142C186.242 23.2364 186.573 23.4724 186.824 23.8499C187.076 24.2275 187.202 24.7937 187.202 25.5488C187.202 25.8635 187.123 26.6814 186.966 28.0029C186.809 29.3243 186.635 30.9289 186.447 32.8166C186.289 34.7044 186.211 36.6708 186.211 38.7158C186.211 39.0305 186.258 39.3136 186.352 39.5653C186.447 39.7856 186.651 39.8957 186.966 39.8957C188.224 39.8957 189.499 39.644 190.789 39.1406C192.11 38.6057 193.384 37.9607 194.611 37.2056C194.919 37.7985 198.992 41.2384 191.496 44.7566C189.986 45.4803 188.523 45.8421 187.107 45.8421C185.377 45.8421 184.056 45.4331 183.143 44.6151C182.262 43.797 181.633 42.6958 181.255 41.3115C180.909 39.8957 180.721 38.3068 180.689 36.5449C179.084 38.8417 177.417 40.8867 175.686 42.6801C173.988 44.442 172.304 45.8421 170.637 46.8804C168.969 47.9186 167.412 48.4378 165.965 48.4378ZM182.671 24.7938C179.588 26.2725 176.819 27.9714 174.365 29.8906C171.911 31.7783 169.96 33.7605 168.513 35.837C167.097 37.9135 166.389 39.9114 166.389 41.8306C166.389 42.3655 166.641 42.6329 167.144 42.6329C167.742 42.6329 168.529 42.2868 169.504 41.5947C170.511 40.9025 171.596 39.9901 172.76 38.8574C173.925 37.6933 175.089 36.4033 176.253 34.9875C177.417 33.5402 178.502 32.0615 179.509 30.5513C180.516 29.0411 181.318 27.5939 181.916 26.2095C182.136 25.7061 182.388 25.2342 182.671 24.7938Z" fill="white"/>
<path d="M199.897 49.5535C197.065 49.5535 194.831 48.6883 193.195 46.9578C191.591 45.1959 190.789 42.6947 190.789 39.454C190.789 37.6921 191.024 35.6313 191.496 33.2716C191.968 30.8805 192.582 28.3635 193.337 25.7206C194.124 23.0463 194.957 20.4034 195.838 17.7921C196.751 15.1807 197.647 12.758 198.528 10.5242C199.409 8.29036 200.18 6.41833 200.841 4.90813C201.407 3.74402 202.209 3.16196 203.248 3.16196C203.908 3.16196 204.443 3.36647 204.852 3.77548C205.293 4.18449 205.513 4.8452 205.513 5.75762C205.513 6.1981 205.293 7.1577 204.852 8.63644C204.412 10.1152 203.83 11.94 203.106 14.1109C202.414 16.2504 201.659 18.5629 200.841 21.0484C200.054 23.534 199.299 26.0352 198.576 28.5522C197.883 31.0693 197.317 33.4447 196.877 35.6785C196.436 37.8809 196.216 39.7529 196.216 41.2946C196.216 41.9238 196.389 42.4272 196.735 42.8048C197.112 43.1823 197.6 43.3711 198.198 43.3711C199.488 43.3711 200.809 43.1351 202.162 42.6632C203.547 42.1913 204.899 41.5935 206.221 40.8698C207.574 40.1462 208.848 39.3754 210.044 38.5573C211.239 37.7393 212.309 36.9685 213.253 36.2448C214.228 35.4897 215.015 34.8919 215.612 34.4515C216.399 33.8537 216.934 33.5548 217.217 33.5548C218.287 33.5548 218.822 34.0739 218.822 35.1122C218.822 35.3639 218.507 35.883 217.878 36.6696C217.343 37.3618 216.588 38.2427 215.612 39.3124C214.637 40.3822 213.504 41.5148 212.215 42.7104C210.956 43.8745 209.603 44.9757 208.156 46.014C206.74 47.0522 205.324 47.9017 203.908 48.5624C202.493 49.2231 201.155 49.5535 199.897 49.5535Z" fill="white"/>
<path d="M246.019 37.6908C246.995 37.6908 247.687 37.9582 248.096 38.4931C248.505 38.9965 248.709 39.5313 248.709 40.0977C248.709 40.8842 248.316 41.718 247.53 42.5989C246.743 43.4799 245.72 44.2979 244.462 45.053C243.235 45.7766 241.913 46.3744 240.498 46.8464C239.082 47.3183 237.729 47.5543 236.439 47.5543C234.52 47.5543 232.679 47.0352 230.917 45.9969C229.187 44.9272 227.771 43.4327 226.67 41.5135C225.6 39.5943 225.065 37.3132 225.065 34.6704C225.065 32.4994 225.474 30.3443 226.292 28.2048C227.142 26.0654 228.259 24.0047 229.643 22.0226C231.059 20.0405 232.601 18.1999 234.268 16.5009C235.967 14.8019 237.666 13.3232 239.365 12.0647C241.095 10.8062 242.684 9.83081 244.132 9.13863C245.579 8.415 246.743 8.05314 247.624 8.05314C248.725 8.05314 249.543 8.33632 250.078 8.90265C250.644 9.43752 250.928 10.1926 250.928 11.168C250.928 11.9546 250.77 12.5681 250.456 13.0086C250.172 13.4176 249.716 13.7794 249.087 14.094C247.073 15.1323 245.028 16.3908 242.952 17.8695C240.907 19.3483 239.035 20.9843 237.336 22.7777C235.637 24.5396 234.268 26.3957 233.23 28.3464C232.192 30.2971 231.672 32.2792 231.672 34.2928C231.672 36.4952 232.113 38.1627 232.994 39.2954C233.875 40.428 235.07 40.9943 236.581 40.9943C237.336 40.9943 238.154 40.837 239.035 40.5224C239.916 40.1763 240.781 39.783 241.63 39.3426C242.511 38.9021 243.329 38.5245 244.084 38.2099C244.871 37.8638 245.516 37.6908 246.019 37.6908Z" fill="white"/>
<path d="M259.341 47.6959C257.107 47.6959 255.313 46.9093 253.96 45.3362C252.608 43.7316 251.931 41.5921 251.931 38.9178C251.931 38.0683 252.041 37.2031 252.261 36.3221C252.513 35.4412 252.812 34.6232 253.158 33.8681C252.969 33.5849 252.812 33.2231 252.686 32.7826C252.592 32.3107 252.545 31.7601 252.545 31.1308C252.545 29.0858 252.906 27.2138 253.63 25.5148C254.354 23.7844 255.329 22.29 256.556 21.0315C257.783 19.773 259.136 18.7977 260.615 18.1055C262.094 17.4133 263.588 17.0672 265.098 17.0672C267.678 17.0672 269.786 17.9325 271.422 19.6629C273.09 21.3933 273.923 24.0832 273.923 27.7329C273.923 29.5577 273.64 31.414 273.074 33.3017C272.508 35.1895 271.737 36.9986 270.761 38.729C269.818 40.428 268.716 41.9539 267.458 43.3068C266.231 44.6597 264.909 45.7295 263.494 46.516C262.109 47.3026 260.725 47.6959 259.341 47.6959ZM258.585 31.7443C258.743 32.0904 258.821 32.4994 258.821 32.9714C258.821 33.4433 258.727 33.931 258.538 34.4344C258.349 34.9378 258.161 35.6142 257.972 36.4637C257.783 37.2818 257.689 38.4616 257.689 40.0033C257.689 40.4123 257.736 40.7584 257.83 41.0415C257.956 41.2932 258.224 41.4191 258.633 41.4191C259.702 41.4191 260.709 41.073 261.653 40.3808C262.628 39.6886 263.494 38.7762 264.249 37.6436C265.035 36.5109 265.696 35.2524 266.231 33.8681C266.797 32.4523 267.222 31.0207 267.505 29.5734C267.82 28.0947 267.977 26.7261 267.977 25.4676C267.977 24.6496 267.82 24.0834 267.505 23.7687C267.19 23.4541 266.64 23.2968 265.853 23.2968C264.784 23.2968 263.682 23.6429 262.55 24.335C261.449 24.9957 260.52 25.9081 259.765 27.0722C259.01 28.2048 258.633 29.4948 258.633 30.942C258.633 31.2252 258.617 31.4926 258.585 31.7443Z" fill="white"/>
<path d="M285.558 48.4982C282.726 48.4982 280.492 47.6329 278.856 45.9025C277.252 44.1406 276.449 41.6393 276.449 38.3987C276.449 36.6368 276.685 34.576 277.157 32.2163C277.629 29.8251 278.243 27.3082 278.998 24.6654C279.784 21.9911 280.618 19.3483 281.499 16.7369C282.412 14.1255 283.308 11.7028 284.189 9.46899C285.07 7.23515 285.841 5.36307 286.502 3.85287C287.068 2.68876 287.87 2.10671 288.909 2.10671C289.569 2.10671 290.104 2.31121 290.513 2.72023C290.954 3.12924 291.174 3.78994 291.174 4.70236C291.174 5.14284 290.954 6.10245 290.513 7.58119C290.073 9.05993 289.491 10.8848 288.767 13.0558C288.075 15.1952 287.32 17.5077 286.502 19.9933C285.715 22.4788 284.96 24.9799 284.236 27.4969C283.544 30.0139 282.978 32.3893 282.537 34.6232C282.097 36.8255 281.877 38.6976 281.877 40.2392C281.877 40.8685 282.05 41.3719 282.396 41.7494C282.773 42.127 283.261 42.3158 283.859 42.3158C285.149 42.3158 286.47 42.0798 287.823 41.6079C289.207 41.1359 290.56 40.5381 291.882 39.8145C293.235 39.0909 294.509 38.32 295.704 37.502C296.9 36.684 297.97 35.9131 298.914 35.1895C299.889 34.4344 300.676 33.8366 301.273 33.3961C302.06 32.7983 302.595 32.4994 302.878 32.4994C303.948 32.4994 304.483 33.0186 304.483 34.0568C304.483 34.3085 304.168 34.8277 303.539 35.6142C303.004 36.3064 302.249 37.1874 301.273 38.2571C300.298 39.3268 299.165 40.4595 297.875 41.6551C296.617 42.8192 295.264 43.9204 293.817 44.9586C292.401 45.9969 290.985 46.8464 289.569 47.5071C288.153 48.1678 286.816 48.4982 285.558 48.4982Z" fill="white"/>
<path d="M304.163 47.7431C302.212 47.7431 300.639 47.0666 299.444 45.7137C298.248 44.3294 297.65 42.1113 297.65 39.0594C297.65 37.1087 297.87 35.158 298.311 33.2074C298.783 31.2252 299.428 29.3532 300.246 27.5913C301.095 25.7979 302.071 24.2092 303.172 22.8249C304.304 21.4405 305.547 20.3551 306.9 19.5685C308.253 18.7505 309.653 18.3415 311.1 18.3415C313.554 18.3415 315.474 19.0022 316.858 20.3236C318.242 21.645 318.935 23.3282 318.935 25.3732C318.935 26.9464 318.494 28.3779 317.613 29.6678C316.764 30.9263 315.6 32.059 314.121 33.0658C312.642 34.0726 310.99 34.985 309.165 35.803C307.341 36.621 305.469 37.3604 303.549 38.0211C303.392 39.1538 303.313 40.1606 303.313 41.0415C303.313 41.5764 303.612 41.8438 304.21 41.8438C305.626 41.8438 307.136 41.6236 308.741 41.1831C310.377 40.7112 312.029 40.1134 313.696 39.3897C315.364 38.6346 316.968 37.8638 318.51 37.0772C320.051 36.2592 321.452 35.4884 322.71 34.7648C324 34.0096 325.054 33.4119 325.872 32.9714C326.722 32.4994 327.272 32.2635 327.524 32.2635C328.216 32.2635 328.719 32.468 329.034 32.877C329.349 33.286 329.506 33.7265 329.506 34.1984C329.506 34.4187 329.081 34.9063 328.232 35.6614C327.414 36.4165 326.281 37.3132 324.834 38.3515C323.418 39.3583 321.813 40.4123 320.02 41.5135C318.258 42.5832 316.418 43.6057 314.498 44.5811C312.611 45.5249 310.77 46.28 308.977 46.8464C307.215 47.4442 305.61 47.7431 304.163 47.7431ZM304.352 33.8209C305.642 33.0658 306.916 32.2792 308.174 31.4612C309.464 30.6117 310.534 29.6678 311.384 28.6296C312.233 27.5598 312.658 26.3171 312.658 24.9013C312.658 24.4923 312.548 24.2249 312.327 24.0991C312.107 23.9418 311.793 23.8631 311.384 23.8631C310.282 23.8631 309.276 24.3507 308.363 25.326C307.482 26.3014 306.696 27.5598 306.003 29.1015C305.343 30.6117 304.792 32.1848 304.352 33.8209Z" fill="white"/>
</svg>
