<svg width="26" height="26" viewBox="0 0 26 26" fill="none" xmlns="http://www.w3.org/2000/svg">
<path d="M0 26L1.90244 19.0244C0.845531 17.1219 0.317076 15.0081 0.317076 12.8943C0.317076 5.81299 6.02438 0 13.1057 0C20.187 0 26 5.81299 26 12.8943C26 19.9756 20.187 25.6829 13.1057 25.6829C10.9919 25.6829 8.87804 25.1545 7.0813 24.2032L0 26ZM7.29267 21.4553L7.71545 21.7724C9.30081 22.7236 11.2033 23.252 13 23.252C18.813 23.252 23.4634 18.4959 23.4634 12.7886C23.4634 7.08131 18.813 2.43088 13 2.43088C7.29268 2.43088 2.64228 7.08131 2.64228 12.7886C2.64228 14.6911 3.17072 16.5935 4.12194 18.1788L4.43902 18.6016L3.38211 22.5122L7.29267 21.4553Z" fill="#1A5394"/>
<path fill-rule="evenodd" clip-rule="evenodd" d="M17.8612 14.6914C17.3328 14.3743 16.6986 13.9515 16.0645 14.2686C15.6417 14.48 15.3246 15.2198 15.0076 15.5369C14.8666 15.7483 14.6553 15.7835 14.3734 15.6426C12.6119 14.938 11.2379 13.7754 10.2515 12.1548C10.0401 11.8377 10.1458 11.6263 10.2515 11.4149C10.5685 11.0979 10.9913 10.6751 11.097 10.2523C11.097 9.72386 10.8856 9.19542 10.6742 8.77265C10.4629 8.2442 10.1458 7.39867 9.61733 7.18729C9.19457 6.87021 8.45473 6.97592 8.03197 7.39868C7.29213 8.03283 6.86936 8.98404 6.97506 9.93526C6.97506 10.2171 6.97506 10.4989 6.97506 10.7808C7.18644 11.4149 7.5035 11.9434 7.82057 12.5775C8.03195 13.0003 8.3138 13.4231 8.6661 13.8458C9.61732 15.1141 10.7799 16.2767 12.1539 17.1222C12.8937 17.545 13.6336 17.8621 14.3734 18.1791C15.219 18.3905 15.9588 18.7076 16.91 18.4962C17.8612 18.3905 18.9181 17.7564 19.2352 16.8052C19.3409 16.4881 19.4466 16.171 19.3409 15.9597C19.2352 15.3255 18.3897 14.9027 17.8612 14.6914Z" fill="#1A5394"/>
</svg>
