<svg width="32" height="32" viewBox="0 0 32 32" fill="none" xmlns="http://www.w3.org/2000/svg">
<path d="M16.0332 0.522461C24.5314 0.522461 31.4773 7.46515 31.4775 16.0332C31.4775 24.5329 24.5329 31.4775 16.0332 31.4775C7.46514 31.4774 0.522461 24.5314 0.522461 16.0332C0.522655 7.46669 7.46669 0.522643 16.0332 0.522461Z" stroke="#E33BA3" stroke-width="1.04495"/>
<path d="M17.3753 14.8931L22.6751 8.72119H21.4004L16.7715 14.0881L13.1488 8.72119H8.85535L14.4235 16.8386L8.85535 23.2789H10.13L15.0273 17.6436L18.9182 23.2789H23.1447L17.3753 14.8931ZM15.631 16.9057L15.0943 16.1006L10.5996 9.66041H12.5451L16.1677 14.826L16.7044 15.6311L21.4004 22.4067H19.4549L15.631 16.9057Z" fill="#E33BA3"/>
</svg>
